SplineFontDB: 3.0
FontName: CoelacanthWireframe
FullName: Coelacanth Wireframe
FamilyName: CoelacanthWireframe
Weight: Regular

StartChar: a
Encoding: 97 97 0
Width: 412
VWidth: 1159
Flags: HMW
AnchorPoint: "Bottom" 193 -15 basechar 0
AnchorPoint: "Ogonek" 325 18 basechar 0
AnchorPoint: "Top" 191 465 basechar 0
LayerCount: 2
Fore
SplineSet
281 168 m 1x01d0
 273.3 170 266.654038784 169.161406365 259 170 c 0
 221.6171875 173.5 169.782873778 166.291582193 149 162 c 0
 89.904890566 147.72 37 121.502 37 65 c 3
 37 19.5 48.210122449 -9 92 -9 c 3
 157.352692308 -9 213.033653846 14 282 47 c 1
 280 64.0667 280 86.8222 280 111 c 3
 280 133.8 280.667 150.9 281 168 c 1x01d0
190 410 m 3
 208.94349711 410 267.903968321 365.382841955 277.5 350.5 c 0
 283 340.061 285 317.286 285 304 c 3
 285 238 280 175 280 111 c 3
 280 79.077 280.773373944 45.6667381272 284 28 c 0
 290.849684211 -9.50406 306.908421053 -11 312 -11 c 3
 325.55526087 -11 352.665782609 12.0582 373 38 c 1
 373 38 l 1
 354.029411765 13.5 324.546470588 -11 313 -11 c 3x05b0
 296.779954545 -11 289.208909091 2.53333 282 47 c 1
 216.999903846 17.069 163.25 -9 92 -9 c 3
 45.114744898 -9 37 24.2877 37 65 c 3x03d0
 37 81.0078 43.3007262392 100.656156097 50 109 c 0
 55.9904 116.460952381 60.9394592067 122.778383953 70 129 c 0
 113.997757848 156.921052632 186.85426009 177.75 281 168 c 1
 283 221.367 285 304 285 304 c 3
 285 315 282.217967217 339.084498901 277.5 350.5 c 0
 271.430635838 362.5 210.25650289 410 190 410 c 3
 176.365281046 410 51 376.02 51 319 c 3
 51 307.223 57.4375 290.203 59 283.5 c 1
 59 283.5 l 1
 55 297.579 51 310.125 51 319 c 3x03b0
 51 332.829 57.8077438709 347.680121421 73.5 359.5 c 0
 118.582375479 392 177.336762452 410 190 410 c 3
EndSplineSet
Substitution2: "case-1" A
Substitution2: "pcap-1" a.pcap
Substitution2: "smcp-1" a.smcp
EndChar

StartChar: b
Encoding: 98 98 1
Width: 515
VWidth: 1159
Flags: HMW
AnchorPoint: "Bottom" 256 -15 basechar 0
AnchorPoint: "Top" 112 749 basechar 0
LayerCount: 2
Fore
SplineSet
91 324 m 9
 88 222.5 88 164.5 88 63 c 3
 88 57 91.5107 49.3769 99 44 c 0
 143.324 14.4884 203.377 -3 262 -3 c 3
 367.016 -3 463 85.75 463 210 c 3
 463 304.276 388.078 406 282 406 c 3
 202.717 406 109.019 346.162 91 324 c 9
29 669 m 1
 83.2476 696 102.743 706 118 753 c 1
 118 753 l 1
 100 719 100.395 689.662 99 667 c 0
 95 602 91 457.071 91 324 c 1
 121.108 353 205.087 406 282 406 c 3
 387 406 463 305.408 463 210 c 3
 463 91.5647 372.276 -3 262 -3 c 3
 159.274 -3 147.677 35 93 35 c 3
 83.9446 35 65.9778 6.92 61 -4 c 1
 61 -4 l 1
 65.6001 4.27586 78.5837 20.1122 84 36 c 0
 89 46.0756 87.6923 72.3333 88 145 c 0
 90 288 92 367 92 510 c 3
 99 590.513 96.9417 640.242 99 667 c 0
 100 700.091 94.0623 695 86 695 c 3
 76.3497 695 50.863 681 29 669 c 1
 29 669 l 1
EndSplineSet
Substitution2: "case-1" B
Substitution2: "pcap-1" b.pcap
Substitution2: "smcp-1" b.smcp
EndChar

StartChar: c
Encoding: 99 99 2
Width: 421
VWidth: 1159
Flags: MW
HStem: -15 52<185 333> 357 60<169 308>
VStem: 34 71<119 282>
AnchorPoint: "Bottom" 228 -15 basechar 0
AnchorPoint: "Top" 231 465 basechar 0
LayerCount: 2
Fore
SplineSet
383 373 m 1
 345.613 398 294.452 411 261 411 c 3
 139.927 411 46 301.804 46 190 c 3
 46 47.207 157.991 -9 236 -9 c 3
 293.063 -9 341.347 16.5 375 42 c 1
 375 42 l 1
 344.111 17.8421 290.51 -9 236 -9 c 3
 188.98 -9 46 22.797 46 190 c 3
 46 310.209 148.425 411 261 411 c 3
 306.75 411 353.453 393.326 383 373 c 1
 383 373 l 1
EndSplineSet
Substitution2: "case-1" C
Substitution2: "pcap-1" c.pcap
Substitution2: "smcp-1" c.smcp
EndChar

StartChar: d
Encoding: 100 100 3
Width: 522
VWidth: 1159
Flags: HMW
AnchorPoint: "Bottom" 210 -15 basechar 0
AnchorPoint: "Top" 376 734 basechar 0
AnchorPoint: "TopRight" 489.5 581 basechar 0
LayerCount: 2
Fore
SplineSet
400 114 m 1
 347.78 51.5517 266.36 1 183 1 c 3
 90.3619 1 32 82.1525 32 172 c 3
 32 249.861 73.901 317.016 124 354 c 0
 168.955 384.326 223.682 399 253 399 c 3
 291.802 399 380.271 365.895 402 362 c 1
 402 514.416 414.201 583.664 416 672 c 0
 422 730 413.667 730 408 730 c 3
 393.658 730 357.31 692 310 681 c 1
 310 681 l 1
 347.818 691.096 390.727 716.795 422 748 c 1
 422 748 l 1
 421 733.462 417.741 705.399 417 694 c 0
 406.762 536.525 401 356.698 401 185 c 3
 401 117.026 402 28.6782 402 -15 c 3
 402 -17.5714 402.951 -32 420 -32 c 3
 437.181 -32 465.641 0.25 479 11 c 1
 479 11 l 1
 454.946 -9 426.354 -32 420 -32 c 3
 413 -32 402 -30.1327 402 -15 c 3
 402 28.6782 400 106.412 400 114 c 1
253 399 m 3
 214.123 399 159.342 374.769 124 354 c 0
 72.3509 318.281 32 260.448 32 172 c 3
 32 87.4396 85.519 1 183 1 c 3
 270.226 1 346.813 51.2222 400 114 c 1
 400.5 195.203 402 279.698 402 362 c 0
 402 362 l 0
 354.756 379.077 271.171 399 253 399 c 3
EndSplineSet
Substitution2: "case-1" D
Substitution2: "pcap-1" d.pcap
Substitution2: "smcp-1" d.smcp
EndChar

StartChar: e
Encoding: 101 101 4
Width: 403
VWidth: 1159
Flags: MW
HStem: 425 168
VStem: 45 185
AnchorPoint: "Bottom" 205 -15 basechar 0
AnchorPoint: "Ogonek" 298.65 23 basechar 0
AnchorPoint: "Top" 209 465 basechar 0
LayerCount: 2
Fore
SplineSet
205 405 m 3
 257.158 405 311.701 362.748 330 317 c 0
 341 289.5 337 288.5 363 293 c 1
 363 293 l 1
 263.258 273.5 141.221 247.833 45 226.5 c 1
 42 210.553 40 191.947 40 176 c 3
 40 44.9 119.998 -8 196 -8 c 3
 261.552 -8 315.947 22.3111 355 54 c 1
 355 54 l 1
 315.947 23.9118 260.158 -8 196 -8 c 3
 96.6428 -8 40 72.3789 40 176 c 3
 40 346.532 173.305 405 205 405 c 3
205 405 m 3
 173.996 405 66 357.5 45 226.5 c 1
 329 287.5 l 0
 337 288.5 l 1
 332 350.5 263.979 405 205 405 c 3
EndSplineSet
Substitution2: "case-1" E
Substitution2: "pcap-1" e.pcap
Substitution2: "smcp-1" e.smcp
EndChar

StartChar: f
Encoding: 102 102 5
Width: 357
VWidth: 1159
Flags: MW
HStem: -6 37<34 97 191 283> 355 47<39 113 187 338> 701 55<268 384>
VStem: 114 70<42 369 405 614>
AnchorPoint: "Bottom" 156 -15 basechar 0
AnchorPoint: "Top" 262 748 basechar 0
LayerCount: 2
Fore
SplineSet
312 750 m 7
 344 750 394 739 419 717 c 5
 419 717 l 5
 385.361111111 742.142857143 349.648148148 750 312 750 c 7
 243.043209428 750 126 668.422557196 126 498 c 4
 126 487.702970297 126 433.128712871 126 394 c 5
 175.589403974 394 220.410596026 394 270 394 c 5
 270 394 l 5
 220.736842105 394 175.263157895 394 126 394 c 5
 126 348.776119403 126 312.367187993 126 293 c 7
 126 202.422594142 125.755436454 117.149096781 126 29 c 4
 126.060341203 7.25095923257 126.182037059 8.7872341596 149 7 c 4
 169.107434169 5.42507005112 187.136986301 3.5 207 0 c 5
 207 0 l 5
 183.375 5 149.625 7 126 7 c 7
 106.754716981 7 77.2452830189 4 58 0 c 5
 58 0 l 5
 70.2222222222 2 84.6948005351 4.92861344923 98 6 c 4
 126.459459459 8.29166666667 126 6.78023649053 126 56 c 4
 126 115.027027027 126 192.216216216 126 266 c 7
 126 293.354097934 126 343.617021277 126 394 c 5
 102.689189189 394 80.3108108108 394 57 394 c 5
 57 394 l 5
 80.3108108108 394 102.689189189 394 126 394 c 5
 126 434.21875 126 480.625 126 493 c 7
 126 597.928909953 159.397606809 653.921100522 203 698 c 4
 224.140792335 719.371828288 264.362962963 750 312 750 c 7
EndSplineSet
Substitution2: "salt-1" f.alt
Substitution2: "case-1" F
Substitution2: "pcap-1" f.pcap
Substitution2: "smcp-1" f.smcp
EndChar

StartChar: g
Encoding: 103 103 6
Width: 473
VWidth: 1159
Flags: HMW
AnchorPoint: "Bottom" 221 -318 basechar 0
AnchorPoint: "Top" 220 465 basechar 0
LayerCount: 2
Fore
SplineSet
74 -14 m 3
 74 -40.4 148.529 -50 215 -50 c 3
 246 -50 273 -50 304 -50 c 3
 395.549 -50 434 -102.856 434 -149 c 3
 434 -258.018 246.007 -329 169 -329 c 3
 49.9958 -329 28 -264.487 28 -218 c 3
 28 -119.25 132.392 -59.25 150 -48 c 1
 64 -38 77.2727 -18.1463 70 0 c 1
 112.723 22.4 187.143 44.8 234 56 c 1
 129.5 53.2 53 129.236 53 215 c 3
 53 335.043 125.995 397 229 397 c 3
 265.472 397 301.009 384 330 359 c 1
 352.38 365 372.177 369 398 369 c 3
 413 369 432 366 438 362 c 1
 438 362 l 1
 424.441 366.5 411.559 369 398 369 c 0
 375.333 369 358.819 369 330 359 c 1
 357.222 319.979 379 302.007 379 228 c 3
 379 130.404 300 75 234 56 c 0
 86.7646 13.6141 74 8.10526 74 -14 c 3
229 397 m 3
 110.391 397 53 316.983 53 215 c 3
 53 123.455 135.5 53.2 234 56 c 1
 319.188 85.129 379 137.839 379 228 c 3
 379 304.427 339.256 397 229 397 c 3
28 -218 m 3
 28 -314.769 116.373 -329 169 -329 c 3
 214.969 -329 434 -275.186 434 -149 c 3
 434 -80.6761 375.158 -50 304 -50 c 3
 274.682 -50 244.318 -50 215 -50 c 3
 190.282 -50 164.648 -49.3333 150 -48 c 1
 58.8506 -96.5714 28 -158.22 28 -218 c 3
EndSplineSet
Substitution2: "case-1" G
Substitution2: "pcap-1" g.pcap
Substitution2: "smcp-1" g.smcp
EndChar

StartChar: h
Encoding: 104 104 7
Width: 533
VWidth: 1159
Flags: MW
HStem: -7 33<21 68 169 229 322 368 450 517> 353 50<219 349>
VStem: 92 70<42 333 352 611> 379 68<33 322>
AnchorPoint: "Bottom" 275 -15 basechar 0
AnchorPoint: "Top" 86 733 basechar 0
LayerCount: 2
Fore
SplineSet
104 321 m 1
 104 284 103 236.010637094 103 189 c 3
 103 119.053989074 103 53.6765841385 103 29 c 3
 103 4.88270458129 103.918176667 13.0063716249 134 7 c 0
 142.497423931 5.3033380184 159.052631579 0.6 168 -1 c 1
 168 -1 l 1
 144.810810811 5 126.972972973 10 102 10 c 3
 82.625 10 59.375 5 40 1 c 1
 40 1 l 1
 49.8214285714 3 54.9321134157 4.12090131133 65 6 c 0
 104 13.2790697674 102.69348023 2.62476653651 103 51 c 0
 103.371102982 109.567815706 104 200.792929293 104 274 c 3
 104 527.832386364 104.357549981 628.555173647 104 651 c 0
 103.464799255 684.596667397 105.25 718 101 718 c 3
 91.2861328125 718 64.1904761905 687.571428571 30 675 c 1
 30 675 l 1
 59.8580645161 686 94.3096774194 714 119 748 c 1
 119 748 l 1
 112.571428571 731.307692308 104 699.144966317 104 686 c 0
 104 609.502994012 104 445.580838323 104 321 c 1
 168.603550296 367.5 258.804733728 396 310 396 c 3
 388.122807018 396 428.520468193 350.631572521 432 288 c 0
 433 270 434 229 434 183 c 3
 434 115.837209302 433 51.0310077519 433 31 c 0
 433 2 432.994582891 12.9891510787 462 9 c 0
 470.880131525 7.77870447028 494.086956522 3 503 -1 c 1
 503 -1 l 1
 476.757009346 8 459.261682243 10 431 10 c 3
 413 10 395.6 5 380 -1 c 1
 380 -1 l 1
 389.777777778 1.8 393.52359179 3.73613247873 404 6 c 0
 433 12.2666666667 432.747955179 8.78145805739 433 53 c 0
 433.122501223 74.4915167601 434 122.80601979 434 143 c 3
 434 192.84375 433.92965014 266.407579307 432 288 c 0
 426.232558139 352.536585366 388.023255814 396 310 396 c 3
 246.141732283 396 155 358 104 321 c 1
EndSplineSet
Substitution2: "case-1" H
Substitution2: "pcap-1" h.pcap
Substitution2: "smcp-1" h.smcp
EndChar

StartChar: k
Encoding: 107 107 10
Width: 525
VWidth: 1159
Flags: HMW
AnchorPoint: "Bottom" 259 -15 basechar 0
AnchorPoint: "Top" 91 739 basechar 0
LayerCount: 2
Fore
SplineSet
117 229 m 1
 165.655172414 256.472527473 222.833867684 292.013918092 283 329 c 0
 318.570209689 350.866166869 368 378.703703704 368 388 c 3
 368 397.631578947 365.117647058 389.263157895 269 395 c 1
 269 395 l 1
 295 393 330 393 357 393 c 3
 386.333333333 393 428.555555556 395 453 397 c 1
 453 397 l 1
 383.097014926 391.711538462 384.76023792 391.507568621 366 380 c 2
 172 261 l 1
 244.327102804 180.60591133 315.521473285 99.5241684762 390 21 c 0
 410.595334731 -0.714064517167 393 20 489 0 c 1
 489 0 l 1
 455 6 437 10 395 10 c 3
 368.913043478 10 341.086956522 3 315 1 c 1
 315 1 l 1
 360.106382979 5.5 363.106382979 10.1 400 10 c 1
 329.475211137 84.4725274725 240.022099448 189.285714286 172 261 c 1
 117 229 l 1
 117 144 117 61.5939187137 117 29 c 0
 117 2.8672540496 118.104768648 12.9607834338 140 8 c 0
 150.17058876 5.69565859237 157.058823529 3.5 169 -1 c 1
 169 -1 l 1
 150.031578947 5 139.431578947 10 116 10 c 3
 96.9375 10 74.0625 3 55 1 c 1
 55 1 l 1
 65.3125 2 75.3879289216 4.09993943799 85 6 c 0
 117 12.3255813953 117 5.62301869107 117 51 c 0
 117 109.565656566 117 200.792929293 117 274 c 3
 117 557.636363636 117 623.090909091 117 658 c 0
 117 691.131187053 122.125 720 114 720 c 3
 103.756097561 720 81.0731707317 693.571428571 44 681 c 1
 44 681 l 1
 74.0519480519 691.095890411 108.149350649 716.794520548 133 748 c 1
 133 748 l 1
 126.571428571 731.307692308 118.172700628 699.183327473 118 686 c 0
 117 609.663697105 117 355.20935412 117 229 c 1
EndSplineSet
Substitution2: "case-1" K
Substitution2: "pcap-1" k.pcap
Substitution2: "smcp-1" k.smcp
EndChar

StartChar: l
Encoding: 108 108 11
Width: 305
VWidth: 1159
Flags: MW
HStem: -7 33<26 84 191 260>
VStem: 108 70<57 558>
AnchorPoint: "Bottom" 136 -15 basechar 0
AnchorPoint: "TopRight" 197 581 basechar 0
AnchorPoint: "Top" 138 734 basechar 0
LayerCount: 2
Fore
SplineSet
120 300 m 3
 120 208.993233446 120 67.5674256464 120 27 c 0
 120 7.0899593519 120.144002953 13.3155158237 203 5 c 0
 217.971614173 3.49743290766 233.458333333 -7.8062556419e-18 246 -1 c 1
 246 -1 l 1
 210.744 5 170.968 10 133 10 c 3
 106.396226415 10 65.6037735849 5 39 1 c 1
 39 1 l 1
 49.4054054054 2 63.4857554008 4.71452951647 74 6 c 0
 119.842105263 11.6046511628 120 9.36240660864 120 39 c 0
 120 100.717171717 120 196.853535354 120 274 c 3
 120 549.28125 120.032051448 632.05508863 120 657 c 0
 119.958676267 689.161319508 121.958333333 717 113 717 c 3
 103 717 65.9353233831 686.142857143 43 681 c 1
 43 681 l 1
 74.2 691.095890411 110.2 716.794520548 136 748 c 1
 136 748 l 1
 118.615384615 728.307692308 120 699.581574692 120 686 c 0
 120 611 120 424 120 300 c 3
EndSplineSet
Substitution2: "case-1" L
Substitution2: "pcap-1" l.pcap
Substitution2: "smcp-1" l.smcp
EndChar

StartChar: m
Encoding: 109 109 12
Width: 803
VWidth: 1159
Flags: MW
HStem: -7 33<21 68 170 229 296 348 440 492 572 619 711 776> 337 49<485 604>
VStem: 95 66<44 317 330 333> 367 68<36 321> 637 68<36 306>
AnchorPoint: "Bottom" 390 -15 basechar 0
AnchorPoint: "Top" 407 465 basechar 0
LayerCount: 2
Fore
SplineSet
692 161 m 3
 692 102.23364486 692 48.3644859813 692 30 c 0
 692 6 692.787108563 10.5493789131 716 8 c 0
 724.79431245 7.03415587946 751.020408163 2.6 760 -1 c 1
 760 -1 l 1
 726.416666667 8 703.166666667 10 667 10 c 3
 651.680851064 10 632.276595745 5 619 -1 c 1
 619 -1 l 1
 628.625 2.6 636.43687083 6.18098014566 647 8 c 0
 692.811128526 15.8888888889 692 -5.73965565233 692 52 c 0
 692 74.9253731343 692 126.507462687 692 148 c 3
 692 192.011362169 692.158821309 238.641175447 692 257 c 0
 691.352784419 331.814377072 660.043478261 379 587 379 c 3
 516.342857143 379 452.819047619 359.538461538 394 333 c 1
 396.666666667 319.304347826 402 305.969255407 402 288 c 3
 402 263 402 219 402 183 c 3
 402 117.76744186 402 50.1627906977 402 30 c 0
 402 3 403.661433459 12.2913310525 429 8 c 0
 437.393421349 6.57849300151 450.428571429 2.6 459 -1 c 1
 459 -1 l 1
 433.136842105 8 423.852631579 10 396 10 c 3
 379.163265306 10 355.591836735 5 341 -1 c 1
 341 -1 l 1
 350.810810811 2.6 362.819682589 6.1151955323 374 8 c 0
 403 12.8888888889 402 5.34426811356 402 52 c 0
 402 73.7313432836 402 122.626865672 402 143 c 3
 402 187 402 253.036222268 402 271 c 0
 402 333.298701299 380.8 394 318 394 c 3
 234 394 165.75 356.090909091 108 330 c 1
 108 227.974248927 108 90.7253218884 108 47 c 3
 108 3.23076923077 108.759043748 12.6460793474 141 7 c 0
 149.535263731 5.50529320851 166.052631579 0.6 175 -1 c 1
 175 -1 l 1
 150.756756756 5 132.108108108 10 106 10 c 3
 86 10 62 5 42 1 c 1
 42 1 l 1
 51.8214285714 3 56.7284895278 4.31506875843 67 6 c 0
 106.456264114 12.4723773842 108 7.41169453239 108 52 c 0
 108 89.0487804878 107 160.737428337 107 199 c 3
 107 224.169017083 108.001881163 311.666859965 108 336 c 0
 107.996534448 380.827453258 115.25 381 104 381 c 3
 90.3636363636 381 87.1060606061 369.333333333 52 358 c 1
 52 358 l 1
 71.0967741936 365 90.1935483871 369 116 410 c 1
 116 410 l 1
 111 389.71830986 108 360.422535211 108 330 c 1
 168 358.342857143 242.999999999 394 318 394 c 3
 361.311827957 394 382.559139785 363.044776119 394 333 c 1
 438.01754386 352.461538462 502.350877193 379 587 379 c 3
 661.579439252 379 692 332.060344828 692 258 c 3
 692 228.361111111 692 194.231481481 692 161 c 3
EndSplineSet
Substitution2: "case-1" M
Substitution2: "pcap-1" m.pcap
Substitution2: "smcp-1" m.smcp
EndChar

StartChar: n
Encoding: 110 110 13
Width: 541
VWidth: 1159
Flags: MW
HStem: -7 33<21 68 170 229 308 360 454 512> 338 60<237 357>
VStem: 95 66<44 316 330 333> 379 68<36 316>
AnchorPoint: "Bottom" 269 -15 basechar 0
AnchorPoint: "Top" 272 465 basechar 0
LayerCount: 2
Fore
SplineSet
107 353 m 0
 106.98183629 370.862282674 114.5625 391 106 391 c 3
 101.818181818 391 75.8636363637 358 55 358 c 1
 55 358 l 1
 72.9032258064 365 90.8064516127 369 115 410 c 1
 115 410 l 1
 110 386.676056339 107 352.985915493 107 318 c 1
 166.484662576 351.695652174 230.926380368 393 309 393 c 3
 387.56779661 393 436 349.756756757 436 273 c 3
 436 244.714285714 434 213.857142857 434 183 c 3
 434 114.953488372 434 48.9542322643 434 29 c 0
 434 5.83366886818 434.205583751 12.8361019721 462 7 c 0
 468.403559317 5.65541967769 481.658536585 2.2 488 -1 c 1
 488 -1 l 1
 463.911764706 8 450.941176471 10 425 10 c 3
 411.363636363 10 391.818181818 5 380 -1 c 1
 380 -1 l 1
 387.52631579 2.6 397.248164802 5.87136384732 406 8 c 0
 433.866666666 14.7777777778 434 -0.975398528675 434 51 c 0
 434 82.5223880597 434 153.447761194 434 183 c 3
 434 213.9375 436.15693449 257.864978048 436 273 c 0
 435.349173072 342.850746269 395.234567901 393 309 393 c 3
 230.170731706 393 162.766871166 352.523809524 107 318 c 1
 107 221.594936709 107 87.3164556964 107 46 c 3
 107 9 108.301770799 13.4789359733 136 7 c 0
 142.992198255 5.36444400551 156.631578947 0.6 164 -1 c 1
 164 -1 l 1
 143.270270271 5 127.324324325 10 105 10 c 3
 86.5625 10 64.4375 5 46 1 c 1
 46 1 l 1
 55.8214285714 3.4 60.9479372258 5.33834537421 71 7 c 0
 108 13.1162790698 107 8.40466746098 107 51 c 0
 107 88.3008130081 107 160.49593496 107 199 c 3
 107 227.256880734 107.025987085 327.444171094 107 353 c 0
EndSplineSet
Substitution2: "case-1" N
Substitution2: "pcap-1" n.pcap
Substitution2: "smcp-1" n.smcp
EndChar

StartChar: o
Encoding: 111 111 14
Width: 506
VWidth: 1159
Flags: HW
AnchorPoint: "Middle" 255 206 basechar 0
AnchorPoint: "Bottom" 249 -15 basechar 0
AnchorPoint: "Ogonek" 341 19.6582 basechar 0
AnchorPoint: "Horn" 420.5 341.8 basechar 0
AnchorPoint: "Top" 251 465 basechar 0
LayerCount: 2
Fore
SplineSet
256 410 m 3
 383.5 410 460 302 460 196 c 3
 460 76.0555 371.198 -8 255 -8 c 3
 136.696 -8 43 74 43 197 c 3
 43 345.627 170.8 410 256 410 c 3
256 410 m 3
 181.892 410 43 352.644 43 197 c 3
 43 78.461 132.996 -8 255 -8 c 3
 384.308 -8 460 90.6667 460 196 c 3
 460 315.319 372.108 410 256 410 c 3
EndSplineSet
Substitution2: "case-1" O
Substitution2: "pcap-1" o.pcap
Substitution2: "smcp-1" o.smcp
EndChar

StartChar: p
Encoding: 112 112 15
Width: 516
VWidth: 1159
Flags: W
HStem: -348 32<30.3438 77.6963> -342 34<173.753 251> -10 41<189.88 349.791> 322 31<15 56.5218> 355 47<220.583 342.731>
VStem: 98 73<-208.562 7 49.7914 263.889> 424 66<116.734 264.787>
AnchorPoint: "Bottom" 295 -15 basechar 0
AnchorPoint: "Top" 260 465 basechar 0
LayerCount: 2
Fore
SplineSet
110 31 m 3xbe
 110 176.283 110 319.184 110 343 c 0
 110 377.267 109.242 390 100 390 c 3
 82.6191 390 68 368 27 353 c 1
 27 353 l 1
 49.5809 359.408 84.3676 382.296 110 418 c 1
 110 412.928 110 411.913 110 348 c 1
 168.177 369.447 249.353 396 317 396 c 3
 407.272 396 478 297.155 478 208 c 3
 478 78.6606 364.076 -4 253 -4 c 3
 202.046 -4 152.735 18.1177 110 43 c 1
 110 -54.4983 110 -259.007 110 -303 c 0
 110 -331.412 113 -333 154 -334 c 0
 163.806 -334.239 175.429 -335.5 184 -336 c 1
 184 -336 l 1x7e
 159.277 -335 139.625 -333 113 -333 c 3
 95.2223 -333 66.7777 -338 49 -342 c 1
 49 -342 l 1
 56.7 -341.2 62.2765 -339.483 70 -338 c 0
 111.677 -330 110 -330.119 110 -293 c 0
 110 -236.273 110 -135.909 110 31 c 3xbe
317 396 m 3
 236.993 396 172.236 367.404 110 348 c 1
 110 43 l 1
 149.656 17.3636 194.118 -4 253 -4 c 3
 364.072 -4 478 78.3597 478 208 c 3
 478 290.024 414.026 396 317 396 c 3
EndSplineSet
Substitution2: "case-1" P
Substitution2: "pcap-1" p.pcap
Substitution2: "smcp-1" p.smcp
EndChar

StartChar: q
Encoding: 113 113 16
Width: 501
VWidth: 1159
Flags: MW
HStem: -337 34<464 499> -9 43<176 320> 375 44<177 322>
VStem: 23 74<114 280> 358 66<-164 26 53 347> 429 18<411 417>
AnchorPoint: "Bottom" 209 -15 basechar 0
AnchorPoint: "Top" 263 465 basechar 0
LayerCount: 2
Fore
SplineSet
411 53 m 1
 411 167.314893617 412 231.923237713 412 345 c 3
 412 352.448275862 412.142316436 377.847875381 407 381 c 0
 377.138010481 399.304729687 327.596491228 413 283 413 c 3
 143.613138686 413 35 302.8 35 181 c 3
 35 89.5082872928 113.952139844 -3 208 -3 c 3
 303.778186275 -3 392.507761438 44.0969793323 411 53 c 1
411 53 m 1
 364.479166667 30.6 292.583333333 -3 208 -3 c 3
 109.810810811 -3 35 91.9052631579 35 181 c 3
 35 306.74789916 148.507692308 413 283 413 c 3
 349.555555556 413 380.555555556 389 403 389 c 3
 414.5 389 418.5 406.25 422 412 c 1
 422 412 l 1
 413 393 413.218809486 389.846426885 413 380 c 0
 412.6 362 412 342.01631659 412 266 c 0
 412 241 411 135 411 93 c 3
 411 -152.36416185 411 -245.549741015 411 -286 c 0
 411 -337.249030993 412.981808906 -330.225748734 441 -331 c 0
 450.506944859 -331.262713752 471.358974359 -333 478 -333 c 1
 478 -333 l 1
 462.434343434 -332 439.424242424 -331 411 -331 c 3
 392.57480315 -331 351.42519685 -336 333 -340 c 1
 333 -340 l 1
 344 -338.75 350.783919697 -336.643450924 362 -335 c 0
 411.479166667 -327.75 411 -339.76587311 411 -293 c 0
 411 -255.496503497 411 -87.3356643357 411 53 c 1
EndSplineSet
Substitution2: "case-1" Q
Substitution2: "pcap-1" q.pcap
Substitution2: "smcp-1" q.smcp
EndChar

StartChar: r
Encoding: 114 114 17
Width: 372
VWidth: 1159
Flags: MW
HStem: -5 32<34 63 181 277> 316 108<273 339>
VStem: 95 69<53 321>
AnchorPoint: "Bottom" 149 -15 basechar 0
AnchorPoint: "Top" 169.5 465 basechar 0
LayerCount: 2
Fore
SplineSet
103 196 m 0
 102 148.604166667 101.673091846 30.6676356105 102 21 c 0
 102.608664518 3 100.67706725 7.07514420945 152 3 c 0
 167.901267379 1.73740734969 185.291666667 0 199 0 c 1
 199 0 l 1
 179.882352941 1 144.588235294 4 124 4 c 3
 98 4 72 -1 46 -5 c 1
 46 -5 l 1
 56.3125 -2.85714285714 63.7494850108 -2.03019514588 76 0 c 0
 101.259259259 4.18604651163 101 2.62684954572 101 45 c 0
 101 75.4577464789 103 186.300523284 103 218 c 3
 103 255.590361446 103 333 103 374 c 0
 103 391.889968329 103.622540693 419 99 419 c 3
 89.2622641945 419 68.9272727273 373 38 360 c 1
 38 360 l 1
 56.5 367 83 398 104 437 c 1
 103 431 103 431 103 417 c 3
 103 400.160493827 103 351.172839506 103 293 c 1
 105.859375 357.965517241 227.2734375 421.505747126 286 423 c 1
 299.363636364 423 321 412.818181818 321 403 c 3
 321 403 l 1
 318.454545455 413.545454545 301.441176471 423 286 423 c 3
 230.67240225 423 103 357.097367935 103 293 c 0
 103 256 103.358601509 212.996217372 103 196 c 0
EndSplineSet
Substitution2: "case-1" R
Substitution2: "pcap-1" r.pcap
Substitution2: "smcp-1" r.smcp
EndChar

StartChar: s
Encoding: 115 115 18
Width: 361
VWidth: 1159
Flags: MW
HStem: -9 38<109 231> 370 38<128 230>
VStem: 47 68<274 353> 248 68<46 140>
AnchorPoint: "Bottom" 162 -15 basechar 0
AnchorPoint: "Top" 180.5 465 basechar 0
LayerCount: 2
Fore
SplineSet
42 100 m 1
 70 73.3 -10.028 -3 151 -3 c 3
 227.5 -3 304 30.5091 304 94 c 3
 304 156.774 229.333 190.083 178 209.3 c 0
 129.408 228.687 59 245.431 59 308 c 3
 59 355 118.583 402 191 402 c 3
 219.787 402 245.957 396 273 390 c 1
 273 390 278.538 348.451 282 321 c 1
 282 321 l 1
 273 390 262.003 402 191 402 c 3
 120.6 402 59 362.691 59 308 c 3
 59 275.1 86.9136 239.339 178 209.3 c 0
 259.59 186.741 304 139.953 304 94 c 3
 304 26.8462 210.345 -3 151 -3 c 3
 108.7 -3 75.4 8 43 22 c 1
 47 34.0465 49 46.093 49 59 c 3
 49 67.3389 47 91.6611 42 100 c 1
 42 100 l 1
EndSplineSet
Substitution2: "case-1" S
Substitution2: "pcap-1" s.pcap
Substitution2: "smcp-1" s.smcp
EndChar

StartChar: t
Encoding: 116 116 19
Width: 341
VWidth: 1159
Flags: MW
HStem: -10 49<154 261> 360 36<148 304>
VStem: 68 74<52 357>
AnchorPoint: "Bottom" 183 -15 basechar 0
AnchorPoint: "TopRight" 313 531 basechar 0
AnchorPoint: "Top" 143.5 508 basechar 0
LayerCount: 2
Fore
SplineSet
32 393 m 1
 91.6708 393.2 91.9269 393 95 469 c 1
 95 469 l 1
 91 443 91 421 89 393 c 1
 153.466 393 229.534 393 294 393 c 1
 294 393 l 1
 229.127 393 153.873 393 89 393 c 1
 86.1875 316.62 80 223.499 80 97 c 3
 80 47.2319 104.494 -4 160 -4 c 3
 220.941 -4 273.5 26.2 308 46 c 1
 308 46 l 1
 272.85 23.6786 213.65 -4 160 -4 c 3
 142.609 -4 80 5.43925 80 97 c 3
 80 210.846 86 281.431 89 393 c 1
 89 393 54 393 32 393 c 1
 32 393 l 1
EndSplineSet
Substitution2: "case-1" T
Substitution2: "pcap-1" t.pcap
Substitution2: "smcp-1" t.smcp
EndChar

StartChar: u
Encoding: 117 117 20
Width: 526
VWidth: 1159
Flags: MW
HStem: -11 55<172 273> 338 31<292 351>
VStem: 70 76<71 327> 359 65<36 52 75 331>
AnchorPoint: "Bottom" 314 -15 basechar 0
AnchorPoint: "Ogonek" 392.65 -3 basechar 0
AnchorPoint: "Horn" 423.5 333 basechar 0
AnchorPoint: "Top" 265 465 basechar 0
LayerCount: 2
Fore
SplineSet
361 363 m 1
 380.919 373 401.591 386 417 397 c 1
 417 397 l 1
 413.182 351.24 411 176.52 411 137 c 3
 411 107 413 81 417 54 c 0
 418.214 15.1111 421.857 -16 434 -16 c 3
 437.76 -16 462.2 3.25001 481 17 c 17
 481 17 l 1
 469.212 9.54286 454.151 0.428571 444 -12 c 0
 440 -13 439 -16 434 -16 c 3
 419.318 -16 419.318 6 415 58 c 1
 359.791 40 256.102 -5 178 -5 c 3
 144.956 -5 113.652 10.1455 98 44 c 0
 87 69 82 95 82 143 c 3
 82 198 83.2095 255.015 86 312 c 0
 82.6667 356.526 86.7143 396.6 88.5 396.6 c 3
 72.6892 396.6 39.4865 354.942 30 348 c 1
 30 348 l 1
 48.2554 358.108 72.2993 390.27 91 416 c 1
 91 416 l 17
 84.5715 332.55 82 234.795 82 143 c 3
 82 63.9925 98.7441 -5 178 -5 c 3
 250.471 -5 354.281 33.4146 415 58 c 1
 409 137 417 290.113 417 298 c 3
 417 389.612 415.5 391.6 361 363 c 9
 361 363 l 1
EndSplineSet
Substitution2: "case-1" U
Substitution2: "pcap-1" u.pcap
Substitution2: "smcp-1" u.smcp
EndChar

StartChar: v
Encoding: 118 118 21
Width: 435
VWidth: 1159
Flags: MW
HStem: 371 30<10 47 148 207 274 320>
DStem2: 228 95 59 339 0.322551 -0.946552<-271.079 -13.8948> 228 95 277 128 0.393919 0.919145<1.32074 223.239>
AnchorPoint: "Bottom" 197 -15 basechar 0
AnchorPoint: "Top" 214 465 basechar 0
LayerCount: 2
Fore
SplineSet
403 404 m 1
 351 384 361.537677558 384.061659818 344 340 c 0
 315.701684042 269.711229947 281.004544647 197.139951218 256 128 c 0
 240.069512521 83.9506824561 218.316993464 36.7254901961 197 -19 c 1
 197 -19 l 1
 163.225806452 116.024725275 113.357809105 259.252891775 74 362 c 0
 69.3875572186 374.041197628 69.2779951009 388.174043134 53 389 c 0
 44.0104932271 389.456133866 32 390.888888889 22 394 c 1
 22 394 l 1
 35.1829268293 390 55.8170731707 389 69 389 c 3
 89.1043478261 389 118.07826087 393.090909091 137 398 c 1
 137 398 l 1
 121 393 82 389 82 389 c 0
 75 388 71 387 71 378 c 3
 71 377 72.152511436 366.752555734 74 362 c 0
 117.274453395 250.679012346 170.075949367 89.1851851852 197 -19 c 1
 242.76686217 93.5954545455 288.022073947 216.646856569 344 340 c 0
 349.143339717 351.333880452 355 370.272727273 355 376 c 3
 355 398.102564103 354.913793103 386.58974359 290 401 c 1
 290 401 l 1
 321 394 335 393 353 393 c 3
 369.447368421 393 389.184210526 398 403 404 c 1
 403 404 l 1
EndSplineSet
Substitution2: "case-1" V
Substitution2: "pcap-1" v.pcap
Substitution2: "smcp-1" v.smcp
EndChar

StartChar: w
Encoding: 119 119 22
Width: 669
VWidth: 1159
Flags: HMW
AnchorPoint: "Bottom" 296 -15 basechar 0
AnchorPoint: "Top" 325 465 basechar 0
LayerCount: 2
Fore
SplineSet
639 410 m 1
 601.3 392.328125 612.817538241 414.321883334 581 347 c 0
 546.740970849 274.512230954 513.453313815 198.848345807 479 128 c 0
 457.602947033 84 434.19992035 33 406 -25 c 1
 406 -25 l 1
 378.9883821 96.472972973 351.879948365 223.959459459 331 331 c 1
 304.731343283 271.587412587 277.046786667 211.799259851 251 154 c 0
 227.496271759 102.487829544 201.321419199 42.8562091503 169 -25 c 1
 169 -25 l 1
 146.676470588 102.725274725 102.222771784 262.152245777 70 369 c 0
 62.3881964158 394.240042167 59.1607435374 395.038385757 46 396 c 0
 37.9207757944 396.590323567 28 397.111111111 19 400 c 1
 19 400 l 1
 32.1829268293 396 52.8170731707 395 66 395 c 3
 82.6730769231 395 101.307692308 397 117 403 c 1
 117 403 l 1
 102.488372093 396.333333333 78 395 78 395 c 0
 71 394.818181818 67 394.636363636 67 393 c 3
 67 391.4375 63.864989477 396.335895361 72 368 c 0
 106.929605278 246.333084222 147.692307692 93.4148471615 169 -25 c 1
 224.08 94.8775510204 269.44 196.591836735 331 331 c 1
 328.5 343.294117647 325.612813819 357.925001257 324 369 c 0
 318.916987204 398.393211142 318.65621985 394.04802056 305 395 c 0
 292.543198171 395.868367627 284.375 397.888888889 275 400 c 1
 275 400 l 1
 288.061728395 396 307.938271605 395 321 395 c 3
 339.034782609 395 365.026086957 400 382 406 c 1
 382 406 l 1
 367.509433962 399.888888889 334 395 334 395 c 0
 327 394 322 393 322 384 c 3
 322 383 322.899741562 372.97889861 324 368 c 0
 345.232142857 253.172839506 380.662627551 86.5925925926 406 -25 c 1
 462.016744373 91.6727272727 528.241311997 231.67688695 581 347 c 0
 589.09091437 364.685607203 601 388.241685144 601 395 c 3
 601 404.190283401 599.598983051 392.238866397 544 407 c 1
 544 407 l 1
 569.753846154 400 583.046153846 399 598 399 c 3
 611.851351351 399 627.364864865 404 639 410 c 1
 639 410 l 1
EndSplineSet
Substitution2: "case-1" W
Substitution2: "pcap-1" w.pcap
Substitution2: "smcp-1" w.smcp
EndChar

StartChar: x
Encoding: 120 120 23
Width: 450
VWidth: 1159
Flags: W
HStem: 1 29<14.2759 53.706 120.703 167.933 233.222 271.152 360.707 427.966> 367 33<23 100.632 181.005 209.552> 375 26<267 311.763 391.82 424>
AnchorPoint: "Bottom" 215 -15 basechar 0
AnchorPoint: "Top" 224 465 basechar 0
LayerCount: 2
Fore
SplineSet
24 8 m 1xc0
 61 10 59.5259481491 10.4638531722 76 31 c 2
 222 210 l 1
 124 344 l 2
 94.4203040009 383.540205876 90.5148514851 390 35 394 c 1
 35 394 l 1xc0
 48.9552238806 393 76.0447761194 391 90 391 c 0
 122.890756303 391 161.840336134 393 193 397 c 1
 193 397 l 1
 98.78125 385.555555556 98 395.222222222 98 384 c 3
 98 374 114.199602204 357.100531748 124 344 c 2
 222 210 l 1
 337 351 l 2
 345.213003954 360.337450999 362 379.333333333 362 391 c 3
 362 396.666666667 298.666666667 393.833333333 267 395 c 1
 267 395 l 1xa0
 283 394 310 394 326 394 c 0
 352.326530612 394 392.571428571 396 412 397 c 1
 412 397 l 1
 361.115138593 395 370.655829951 391.065452979 337 351 c 0
 298.507450625 304.180534188 260.333333333 257 222 210 c 1
 263.379310345 153.333333333 299.195911575 102.79023825 342 40 c 0
 357.906417497 16.2547668955 375.629213483 17 415 8 c 1
 415 8 l 1
 391.085714286 12 346.8 15 322 15 c 0
 304.818181818 15 285.727272727 12 266 8 c 1
 266 8 l 1
 349.773931288 23.1428571429 351 11.4285714286 351 20 c 3
 351 25.7142857143 351.63746183 26.1059925279 342 40 c 2
 222 210 l 1
 76 31 l 2
 72.0116328252 26.0281998232 69 21 69 16 c 3
 69 10.1304347826 90.1698113208 16.347826087 171 7 c 1
 171 7 l 1
 147.826666667 9 116.226666667 12 92 12 c 0
 70.8961038961 12 46.4155844156 9 27 7 c 1
 24 8 l 1xc0
EndSplineSet
Substitution2: "case-1" X
Substitution2: "pcap-1" x.pcap
Substitution2: "smcp-1" x.smcp
EndChar

StartChar: y
Encoding: 121 121 24
Width: 460
VWidth: 1159
Flags: MW
HStem: 365 30<9 37 170 185 277 339 410 444>
DStem2: 176 -32 383 308 0.447214 0.894427<-152.969 14.7689>
AnchorPoint: "Bottom" 279 -15 basechar 0
AnchorPoint: "Top" 232.5 465 basechar 0
LayerCount: 2
Fore
SplineSet
101 -344 m 1
 98.0491803279 -344 84.0327868852 -341 56 -341 c 3
 30.1379310345 -341 24.1034482759 -343 6 -344 c 1
 6 -344 l 1
 64 -338 36.5924919745 -367.965156794 211 -12 c 1
 165.542372881 119.097560976 88.3322825433 323.081309709 70 363 c 0
 60.9878019607 382.624132539 62.1261995679 383.053738857 49 384 c 0
 41.1533547423 384.565660721 30.7096774194 385.916666667 22 389 c 1
 22 389 l 1
 33.3580246914 385 50.6419753086 383 62 383 c 3
 96.3617021277 383 124.659574468 384 157 390 c 1
 157 390 l 1
 131.33333331 385.220471702 105.670200316 383.061894761 80 383 c 0
 69.1097026523 382.973741835 63 382.636363636 63 381 c 3
 63 379.461538462 64.2095796523 377.463429876 71 361 c 0
 110.749654541 264.626636258 171.125438111 105.425925926 211 -12 c 1
 260.720715978 87.0946502058 322.970028888 219.148500401 371 332 c 0
 378.071908213 343.716548946 383 360.16 383 376 c 3
 383 389.702702703 382.907894737 375.189189189 306 394 c 1
 306 394 l 1
 331.608695652 387 367.130434783 383 382 383 c 3
 398.554054054 383 417.094594595 385 431 391 c 1
 431 391 l 1
 388.923076923 376 393.806698411 386.961551682 371 332 c 0
 355.708054613 295.148149215 283.196624371 136.00307996 211 -12 c 0
 31 -381 46 -335.389221557 101 -344 c 1
EndSplineSet
Substitution2: "case-1" Y
Substitution2: "pcap-1" y.pcap
Substitution2: "smcp-1" y.smcp
EndChar

StartChar: z
Encoding: 122 122 25
Width: 458
VWidth: 1159
Flags: HMW
AnchorPoint: "Bottom" 222 -15 basechar 0
AnchorPoint: "Top" 228.5 465 basechar 0
LayerCount: 2
Fore
SplineSet
351 6 m 2
 166 6 l 2
 139.957446809 6 49.2907801418 6 30 6 c 1
 30 6 l 1
 155.804794521 122.026470588 287.29109589 254.95 415 389 c 1
 357.461538462 389 302.583090695 389 245 389 c 3
 197 389 153.791103423 390.516401292 107 389 c 0
 62.5534000889 387.559579138 58 389 22 311 c 1
 22 311 l 1
 58 389 l 1
 78.5573770492 389 105.655737705 389 229 389 c 3
 319.063157895 389 392.484210526 389 415 389 c 1
 415 389 l 1
 298.834459459 265.345714286 174.158783784 140.597142857 30 6 c 1
 279 6 l 2
 319.26115592 6 372.461056731 3.45724343093 383 12 c 0
 395.142210573 21.8423481837 401.175530364 35.2565368009 411 62 c 0
 414.762282284 72.241413688 418.636363636 83 423 98 c 1
 423 98 l 1
 388 6 l 1
 388 6 374.408163265 6 351 6 c 2
EndSplineSet
Substitution2: "case-1" Z
Substitution2: "pcap-1" z.pcap
Substitution2: "smcp-1" z.smcp
EndChar

StartChar: A
Encoding: 65 65 26
Width: 730
VWidth: 1159
Flags: W
HStem: -10 37<485.198 526.465 650.751 700.047> 245 42<247 437.657> 692 20G<358 405.5>
VStem: 360 43<632.023 712>
AnchorPoint: "Bottom" 375 -15 basechar 0
AnchorPoint: "Ogonek" 638 8 basechar 0
AnchorPoint: "Top" 389 699 basechar 0
LayerCount: 2
Fore
SplineSet
218 281 m 1
 301.5 280 474.801 278 552 277 c 1
 492 438 455 536 394 704 c 1
 333 544 280.019 430.198 218 281 c 1
590 2 m 9
 590 2 l 1
 658.125 13.5 662.5 5 640 51 c 0
 609.311 129.426 588 185.5 552 277 c 1
 469.868 278.444 337.091 280.111 218 281 c 9
 179.388 192.317 155.511 138.275 118.5 55 c 0
 92.1 5.5 96.3 12 196.5 2 c 9
 196.5 2 l 1
 155.934782609 7.48595 82.7944664032 8 41 1 c 9
 41 1 l 1
 93.3103448276 8 91.7563448276 6.09639 115 47 c 0
 213.571 268.316 295.035 459.982 370 640 c 0
 385.282 676.822 386 677.5 394 704 c 9
 394 704 l 9
 401.857 680.086 402.02 679.899 416 642 c 0
 506.691 395.686 552.036 273.686 648 32 c 0
 661.203913043 6.50615 663.652173913 8 708 2 c 9
 708 2 l 1
 665.946808511 8 653.393617021 12 590 2 c 9
EndSplineSet
Position2: "cpsp-1" dx=0 dy=0 dh=10 dv=20
Substitution2: "c2pc-1" a.pcap
Substitution2: "c2sc-1" a.smcp
EndChar

StartChar: B
Encoding: 66 66 27
Width: 633
VWidth: 1159
Flags: W
HStem: -4 38<46 120.426 222.57 412.69> 349 30<212 351.635> 349 20<365 430> 653 41<48 115.219 224.972 357.268>
VStem: 130 80<45.6349 349 379 533.879> 417 90<447.929 586.24> 488 90<100.26 258.491>
AnchorPoint: "Bottom" 311 -15 basechar 0
AnchorPoint: "Top" 278 699 basechar 0
LayerCount: 2
Fore
SplineSet
64 4 m 1xba
 141 8 140.143 5.74359 142 38 c 0
 142 43.7991 142 157.461 142 292 c 3
 142 482.518 142.16 644.855 142 655 c 0
 141.5 681.156 142 679.221 109 682 c 0
 103.477 682.502 71.375 687.4 66 688 c 1
 66 688 l 1
 75.4286 688 114.086 678 165 678 c 3
 213.975 678 264.798 688 311 688 c 3
 444.647771739 688 480 575.955 480 518 c 3xbc
 480 445.57 424.432065217 382.2 311 366 c 1
 484.5 350.2 566 276.452 566 181 c 3
 566 73.6 468.69 2 317 2 c 3
 267.975 2 221.725 8 169 8 c 3
 113.189 8 70.6216 4 64 4 c 1
 64 4 l 1xba
311 366 m 0
 421.009815217 378.881 480 442 480 518 c 3
 480 559.949 454.104423913 688 311 688 c 3
 292.806 688 259 685.5 245.5 684 c 0
 144.132 672.737 143 679.689 143 655 c 0
 143 364 l 1xdc
 282.151 364 294.03 365 311 366 c 0
287 364 m 0
 143 364 l 9
 143 246.632 143 131.66 143 61 c 0
 143 8 145 9 245 6 c 0
 254.061 5.82526 293.889 2 317 2 c 3
 452.015 2 566 62.9098 566 181 c 3xba
 566 270.895 485.492 364 287 364 c 0
EndSplineSet
Position2: "cpsp-1" dx=0 dy=0 dh=10 dv=20
Substitution2: "c2pc-1" b.pcap
Substitution2: "c2sc-1" b.smcp
EndChar

StartChar: C
Encoding: 67 67 28
Width: 760
VWidth: 1159
Flags: W
HStem: -9 42<354.099 560.906> 659 40<330.855 552.759>
VStem: 50 103<245.223 465.81> 640 33<522.188 588.436> 680 27<150.932 169.074>
AnchorPoint: "Bottom" 423 -15 basechar 0
AnchorPoint: "Top" 433 699 basechar 0
LayerCount: 2
Fore
SplineSet
62 348 m 3
 62 517.06 182.317 693 454 693 c 3
 511.231 693 542.539 690.143 598 678 c 0
 641.658 668.441 687 644.2 698 664 c 1
 698 664 l 1
 660 602.588 661 564.718 661 542.2 c 0
 661 542.2 l 1
 659 616.2 693 650.2 645 666.2 c 0
 581.398 687.401 531.337 693 454 693 c 27
 235.463 693 62 568.515 62 348 c 3
 62 131.114 252.249 -3 445 -3 c 3
 591.429 -3 665 36.2 689 149 c 9
 689 149 l 1
 681.862 109.05 675.517 86.95 666 47 c 1
 606.245 19.3214 533.21 -3 445 -3 c 3
 231.684 -3 62 143.496 62 348 c 3
EndSplineSet
Position2: "cpsp-1" dx=0 dy=0 dh=10 dv=20
Substitution2: "c2pc-1" c.pcap
Substitution2: "c2sc-1" c.smcp
EndChar

StartChar: D
Encoding: 68 68 29
Width: 856
VWidth: 1159
Flags: W
HStem: -10 38<45.6316 111.688> -7 44<189.868 493.195> 640 41<43 112.506> 652 37<218.563 465.412>
VStem: 114 94<351.029 638.353> 685 94<218.557 456.158>
AnchorPoint: "Bottom" 370 -15 basechar 0
AnchorPoint: "Top" 370 699 basechar 0
LayerCount: 2
Fore
SplineSet
335 -1 m 3x5c
 586.515 -1 750 114.087 750 346 c 3
 750 530.253 592.688 683 359 683 c 3
 274.852 683 228.177 679.147848011 143.5 673.099609375 c 0
 115.5 671.099609375 114.5 671.099609375 114.5 631.099609375 c 0
 114.5 422.94974693 116.5 244.699864725 114 40 c 0
 114 22 116.903 4 144 0 c 0
 195.487 -1 258.6 -1 335 -1 c 3x5c
44 675 m 25xac
 80.027 675 100.973 675 137 675 c 27
 224 675 272 683 359 683 c 3
 567.598 683 750 550.362 750 346 c 3
 750 76.6572 533.267 -1 335 -1 c 3x5c
 261 -1 218 0 144 0 c 3
 81.5826 0 72.3043 -2 47 -4 c 9
 47 -4 l 1
 112.5 -2.34286 112.213 -0.184208 114 25 c 1
 113.935 184.203 114.891 506.195 115 644 c 1
 113.028 678.875 112.5 672.695 44 675 c 9
 44 675 l 25xac
EndSplineSet
Position2: "cpsp-1" dx=0 dy=0 dh=10 dv=20
Substitution2: "c2pc-1" d.pcap
Substitution2: "c2sc-1" d.smcp
EndChar

StartChar: E
Encoding: 69 69 30
Width: 672
VWidth: 1159
Flags: HW
AnchorPoint: "Bottom" 327 -15 basechar 0
AnchorPoint: "Ogonek" 559 5 basechar 0
AnchorPoint: "Top" 330 699 basechar 0
LayerCount: 2
Back
Fore
SplineSet
66 679 m 1
 253.65 679 537.483 679 562 679 c 1
 588 655.909 567 661.682 556 552 c 1
 556 552 l 1
 557.5 648.3 611.5 681 522 679 c 0
 444.408 677.528 297.787 679 198 679 c 0
 136.314 679 136 678.331 136 645 c 0
 136 541.905 136 442.386 136 348 c 1
 227.16 348 455.058 348.062 475 348 c 0
 509.621 347.867 501.5 347.3 523 421 c 1
 523 421 l 1
 506 369.063 510 317.937 521 266 c 1
 521 266 l 1
 502.5 345.3 509.926 344.273 475 348 c 0
 412.328 348 268.465 348 136 348 c 1
 136 227.812 136 118.777 136 37 c 0
 136 4.19573 136.228 6 201 5 c 0
 337.782 4.18164 442.215 5 554 5 c 0
 577.148 5 592.333 58.1176 614 152 c 1
 614 152 l 1
 599.231 95.3177 589.077 59.2471 578 6 c 1
 395.8 6 197.467 6 76 6 c 1
 76 6 l 1
 135.5 5.3 136 4.17646 136 33 c 1
 136 122.211 136 556.677 136 654 c 0
 136 677.473 135.684 677.464 66 679 c 1
 66 679 l 1
EndSplineSet
Position2: "cpsp-1" dx=0 dy=0 dh=10 dv=20
Substitution2: "c2pc-1" e.pcap
Substitution2: "c2sc-1" e.smcp
EndChar

StartChar: F
Encoding: 70 70 31
Width: 587
VWidth: 1159
Flags: W
HStem: -9 35<49 93.5176> 332 39<200 403.616> 654 31<31 89.1589> 680 20G<527.5 548>
VStem: 114 86<79.3924 332 371 639.778> 465 36<248 301.807> 513 31<534 596.921>
AnchorPoint: "Bottom" 142 -15 basechar 0
AnchorPoint: "Top" 323 699 basechar 0
LayerCount: 2
Fore
SplineSet
249 -8 m 1xde
 180.993 18 149.903 18 67 -3 c 1
 67 -3 l 1
 130 15 130 4.58823 130 36 c 1
 130 124.206 130 553.774 130 650 c 0
 130 677.12 129.193 677.098 49 679 c 1
 49 679 l 1xee
 236.06 675 512.419 679 519 685 c 1
 538 675.362 531 669.096 532 605 c 1
 532 605 l 1
 529 688 544.119 682.845 489 681 c 0
 403.583 678.14 266.765 678 157 678 c 0
 134.819 678 129.953 678.009 130 641 c 0
 130.121 545.074 130 453.842 130 365 c 1
 225.695 365 423.065 365 444 365 c 0
 473.727 365 473.254 364.08 491 416 c 1
 491 416 l 1
 474 376.461 478 337.539 489 298 c 1
 489 298 l 1
 473.637 363.223 477.735 365 444 365 c 0
 378.522 365 268.399 365 130 365 c 1
 130 218.686 130 125.459 130 40 c 0
 130 -19 130 40 249 -8 c 1
 249 -8 l 1xde
EndSplineSet
Position2: "cpsp-1" dx=0 dy=0 dh=10 dv=20
Substitution2: "c2pc-1" f.pcap
Substitution2: "c2sc-1" f.smcp
EndChar

StartChar: G
Encoding: 71 71 32
Width: 811
VWidth: 1159
Flags: W
HStem: -9 37<369.664 576.67> 320 32<492.562 608.119 725.522 756> 678 38<333.234 542.832> 686 20G<653 684>
VStem: 38 99<252.185 474.753> 633 87<64.334 307.866> 670 31<539.645 560.71>
AnchorPoint: "Bottom" 421 -15 basechar 0
AnchorPoint: "Top" 444 699 basechar 0
LayerCount: 2
Fore
SplineSet
50 357 m 3xec
 50 607.73816156 278.38534279 710 423 710 c 3xec
 513.339622642 710 600.07892705 700.381461407 651 646 c 0
 679.104374386 615.985766943 684.473684211 596.365079365 672 705 c 1
 672 705 l 1
 689 541 l 1
 689 541 l 1xda
 686.666666667 573 696.201149425 710 423 710 c 3
 240.547824084 710 50 579.230292547 50 357 c 3
 50 159 207.946814529 -3 443 -3 c 3
 492.95620438 -3 608.379036499 15.5970292305 687 27 c 0
 703.372551513 29.3746303532 703 28.4358974359 703 65 c 0
 703 117.430379747 703 204.35443038 703 283 c 0
 703 341 704.125250749 338.158839281 648 338 c 0
 597.570703341 337.857280759 561.390804598 341 511 346 c 1
 511 346 l 1
 599.425855513 336 696.520912548 337 739 343 c 1
 739 343 l 1
 703.153846154 338.8 703 340.621076494 703 312 c 0
 703 216.1875 703.259736273 129.343722785 703 60 c 0
 702.885649471 29.4709897689 705.464285714 30.2045454545 728 33 c 1
 728 33 l 1
 652.191919192 22.7142857143 494.818181818 -3 443 -3 c 3
 221.755555556 -3 50 147.491803279 50 357 c 3xec
EndSplineSet
Position2: "cpsp-1" dx=0 dy=0 dh=10 dv=20
Substitution2: "c2pc-1" g.pcap
Substitution2: "c2sc-1" g.smcp
EndChar

StartChar: H
Encoding: 72 72 33
Width: 856
VWidth: 1159
Flags: W
HStem: -15 35<213.944 278.502 591.279 647.409> 324 40<197 673> 651 37<30.7353 100.641 212.767 288> 658 34<592 647.882> 662 37<775.511 825.135>
VStem: 100 97<39.9826 323.686> 673 95<372.736 639.31>
AnchorPoint: "Bottom" 430 -15 basechar 0
AnchorPoint: "Top" 438 699 basechar 0
LayerCount: 2
Fore
SplineSet
50 686 m 1xd6
 101.19844358 675 142.276264591 670 203 682 c 1
 203 682 l 1xe6
 124.666666667 665.578947368 124 684.725666577 124 661 c 0
 124 619.934455224 124 475.648794776 124 358 c 1
 742 358 l 1
 742 435.867716599 743.8515625 525.034806218 742 639 c 0
 741.061728395 698 741.469135802 658 666 686 c 1
 666 686 l 1xd6
 715.5 670 745.086206897 670 798 693 c 1
 798 693 l 1xce
 741.741935484 664.052631579 741.998429007 691.287495881 742 652 c 0
 742.005859375 515.875113628 740.700195312 123.053370936 742 23 c 4
 742.396460259 -8.09920525619 742 18 805 -6 c 5
 805 -6 l 5
 764.121212121 9 720.939393939 11 672 -9 c 5
 672 -9 l 5
 742 15 742 -4.46238159989 742 32 c 4
 742 153.642286792 742 230.275660377 742 358 c 1
 124 358 l 1
 124 247.622805344 124 119.073372003 124 33 c 4
 124 -4.84615384615 123 14 199 -8 c 5
 199 -8 l 5
 142.483870968 8 99.5080645161 11 53 -6 c 5
 53 -6 l 5
 123 20 123 -13 124 33 c 4
 126.979492188 167.488316545 122.782226562 564.871667691 124 656 c 0
 124.33624228 681.649046101 123.519480519 670.444444444 50 686 c 1
 50 686 l 1xd6
EndSplineSet
Position2: "cpsp-1" dx=0 dy=0 dh=10 dv=20
Substitution2: "c2pc-1" h.pcap
Substitution2: "c2sc-1" h.smcp
EndChar

StartChar: I
Encoding: 73 73 34
Width: 387
VWidth: 1159
Flags: W
HStem: -10 21G<38.5 84.5> 652 43<45.3488 143.367>
VStem: 36 315
AnchorPoint: "Bottom" 191 -15 basechar 0
AnchorPoint: "Ogonek" 258 1 basechar 0
AnchorPoint: "Top" 195 699 basechar 0
LayerCount: 2
Fore
SplineSet
46 695 m 1
 162 674 228 677 351 692 c 9
 353 692 l 1
 205.5 669.5 206.12 711.492 200 616 c 1
 199.57 467.904 199.711 219.591 199 36 c 1
 201.834 -11.6667 197.5 13.5 352 -8 c 9
 352 -8 l 1
 251 6.68732 128 5.07084 41 -9 c 1
 41 -9 l 1
 199.5 11.5 196.345 -12.5745 199 47 c 1
 200.135 195.283 199.877 471.832 200 614 c 5
 194.306 690.738 202 669.5 42 695 c 9
 46 695 l 1
EndSplineSet
Position2: "cpsp-1" dx=0 dy=0 dh=10 dv=20
Substitution2: "c2pc-1" i.pcap
Substitution2: "c2sc-1" i.smcp
EndChar

StartChar: J
Encoding: 74 74 35
Width: 350
VWidth: 1356
Flags: HMW
AnchorPoint: "Bottom" 208 -138.8 basechar 0
AnchorPoint: "Top" 160 699 basechar 0
LayerCount: 2
Fore
SplineSet
159 641 m 0
 159.125340666 694.587458644 159 656 51 686 c 1
 51 686 l 1
 129.347540984 665 173.924590164 671 257 686 c 1
 257 686 l 1
 160 667 159 678.677890105 159 643 c 0
 159 516.851662404 159 388.568710994 159 225 c 3
 159 131.4 160 93.9683709614 160 63 c 3
 160 -70.7 134.703131876 -132.4764743 94 -182 c 0
 72.28121446 -208.425259784 41 -232.235294118 13 -245 c 1
 13 -245 l 1
 36 -232.777777778 55.4358334258 -220.847151421 71 -205 c 0
 76 -199.909090909 80.4150109447 -195.60497593 85 -191 c 0
 148.722222222 -127 159 -38.0508474576 159 65 c 3
 159 105.985232755 158.912109375 603.229611515 159 641 c 0
EndSplineSet
Position2: "cpsp-1" dx=0 dy=0 dh=10 dv=20
Substitution2: "c2pc-1" j.pcap
Substitution2: "c2sc-1" j.smcp
EndChar

StartChar: K
Encoding: 75 75 36
Width: 717
VWidth: 1159
Flags: W
HStem: -10 30<228.663 283.933> -1 24<481.273 509.261 667.235 684.667> 656 36<572.205 616.75> 657 31<32 81.7048 215.286 280.581 402 446.126>
VStem: 102 87<44.2186 238.812 500.142 609.985>
AnchorPoint: "Bottom" 370 -15 basechar 0
AnchorPoint: "Top" 334 699 basechar 0
LayerCount: 2
Fore
SplineSet
402 677 m 1x28
 462.394366197 670 538.830985915 672 603 686 c 1
 603 686 l 1
 506 667 552 689 489 640 c 0
 364.857801919 543.444957048 243.017921147 445.872427984 122 347 c 1
 517 68 l 0
 603 0 584 12 672 5 c 1
 672 5 l 1x68
 644 7 605 10 577 10 c 0
 547.700934579 10 510.411214953 7 482 2 c 1
 482 2 l 1
 586 18 594 4 554 39 c 0
 523.953611377 65.2905900448 262.779552716 246.720930233 122 347 c 1
 122 247.202531646 122 122.76371308 122 55 c 0
 122 -11.0464865001 121.537634409 18 211 -4 c 1
 211 -4 l 1
 161.564202335 8 110.20233463 13 46 1 c 1
 46 1 l 1
 121.911392405 18.0697674419 121.878210822 -10.5707845871 122 47 c 0
 122.388647084 230.716796284 122.476563307 427.946928674 123 613 c 0
 123.237162256 696.845103738 123 663 49 682 c 1
 49 682 l 1
 99 670 154.625 673 204 683 c 1
 204 683 l 1x98
 124 664 123 693.056649058 123 632 c 0
 123 536.621513944 123 445.784860558 122 347 c 1
 229.771428571 433.044052863 333.813457178 517.249646383 444 604 c 0
 483.305002404 634.94500263 509.286244596 653.122271442 511 666 c 0
 513.045297257 681.3690444 504.754385965 669.114285714 402 677 c 1
 402 677 l 1x28
EndSplineSet
Position2: "cpsp-1" dx=0 dy=0 dh=10 dv=20
Substitution2: "c2pc-1" k.pcap
Substitution2: "c2sc-1" k.smcp
EndChar

StartChar: L
Encoding: 76 76 37
Width: 658
VWidth: 1159
Flags: W
HStem: -7 44<43 108.095> 2 50<209.846 525.493> 648 41<218.475 306>
VStem: 114 88<57.6719 635.659> 582 35<122.552 159>
AnchorPoint: "Bottom" 320 -15 basechar 0
AnchorPoint: "TopRight" 368.5 581 basechar 0
AnchorPoint: "Top" 177 699 basechar 0
LayerCount: 2
Fore
SplineSet
288 683 m 1xb8
 288 683 l 1
 124.5 654.7 124 691.569 124 604 c 0
 124 81 l 0
 124 4.99825 124.935 5 184 7 c 0
 225.156 6 428.474 6.51105 458 6 c 0
 580.5 3.8797 573.5 -22.3 617 141 c 1
 617 141 l 1
 609 93.5 605 110.167 578 -9 c 1
 556 -2.7 550 3.6 506 5 c 0
 495 5 406 8 304 8 c 0x78
 103.828 8 71.2414 -1 61 -1 c 1
 61 -1 l 1
 123.23 4.00171 123.149 6.79487 124 37 c 0
 124 41.6965 124 156.759 124 300 c 0
 124 468.743 124 630.869 124 643 c 0
 124 686.449 123.105 662.543 54 686 c 1
 54 686 l 1
 128.534 665 222.133 672 288 683 c 1xb8
EndSplineSet
Position2: "cpsp-1" dx=0 dy=0 dh=10 dv=20
Substitution2: "c2pc-1" l.pcap
Substitution2: "c2sc-1" l.smcp
EndChar

StartChar: M
Encoding: 77 77 38
Width: 997
VWidth: 1159
Flags: W
HStem: -10 41<32 113.222 218.245 293> -2 38<690.079 755.771> 651 40<875.759 959.7> 655 44<45.7273 133.712>
VStem: 167 30<117 529> 471 42<9 79.3822> 791 80<61.8765 363.678>
AnchorPoint: "Bottom" 492 -15 basechar 0
AnchorPoint: "Top" 517 699 basechar 0
LayerCount: 2
Fore
SplineSet
951 7 m 1x2e
 896.647058824 21 829.588235294 22 759 4 c 1
 759 4 l 1x6e
 860 30 861.514663073 -8.72736323852 859 97 c 0
 854.357240973 292.201764914 849 483.34864891 845 665 c 1
 757.747265858 499.964453608 665.462886381 331.440256766 569 153 c 0
 545.102064903 108.792804519 515.690140845 52 492 9 c 1
 492 9 l 1
 476 49 447.10675781 115.019455076 424 162 c 2
 183 652 l 1
 174.714285714 471.431734317 164.022264342 279.28094787 154 83 c 0
 149.158097041 -11.8262059166 151 15 250 -4 c 1
 250 -4 l 1
 192.383141762 7 115.034482759 12 44 -4 c 1
 44 -4 l 1
 150 15 148.368950014 -12.6469089903 153 75 c 2
 180 586 l 2
 182.007772418 623.998952052 188.951303607 675.716117693 159 681 c 0
 142.177570093 683.967741935 118.813084112 686.112903226 59 693 c 1
 59 693 l 1x9e
 87.6947368421 689.076923077 121.319231645 686 153 682 c 0
 170.85821961 679.745228978 174.346250052 668.706199705 180 657 c 0
 287.227091633 434.984212245 401.641434263 220.113159184 492 9 c 1
 847 669 l 0
 852 678 860.91723747 681 867 681 c 0
 892.789473684 681 921.210526316 681 947 685 c 1
 947 685 l 1
 846 670 843.778359426 707.844226263 846 614 c 0
 850.180035241 437.431306839 855.306508097 260.900627554 859 91 c 0
 861 -1 860 28 951 7 c 1
 951 7 l 1x2e
EndSplineSet
Position2: "cpsp-1" dx=0 dy=0 dh=10 dv=20
Substitution2: "c2pc-1" m.pcap
Substitution2: "c2sc-1" m.smcp
EndChar

StartChar: N
Encoding: 78 78 39
Width: 863
VWidth: 1159
Flags: W
HStem: -10 44<32 96.238> 655 37<780.205 840> 663 38<608.263 685.298>
VStem: 105 55<63.5993 314.059> 113 56<351.607 550> 728 37<-2.08108 25.5054>
AnchorPoint: "Bottom" 439 -15 basechar 0
AnchorPoint: "Top" 435 699 basechar 0
LayerCount: 2
Fore
SplineSet
34 686 m 1xcc
 53.5 683 79.4926232784 681 100 680 c 0
 114.982198058 679.269423961 116.098346261 676.096983561 123 669 c 0
 335 451 536 233 743 3 c 1
 743 192.51834127 742.771413025 381.857391595 743 582 c 0
 743.133440425 698.835679711 743 675 624 695 c 1
 624 695 l 1xac
 698.874458874 681 754.216450216 682 812 686 c 1
 812 686 l 1
 766.310810811 680.782608696 742.906082645 682.739993235 743 646 c 0
 743.462640518 465.01737535 743 275.739430657 743 92 c 0
 743 68.1986907262 743 26.8023255814 743 3 c 1
 743 3 l 1
 718.073170732 31.0344827586 678.118237195 75.6132509228 646 111 c 0
 475.70230608 298.628035955 302.1278826 482.147568539 125 667 c 1xcc
 125 121 l 2
 125 -56.9729368017 125 43 277 -9 c 1
 277 -9 l 1
 186.653061224 22 108.669387755 3 44 -4 c 1
 44 -4 l 1
 122 8 125 -6.12271217493 125 60 c 0xd4
 125 235.981801255 125 422.051060669 125 607 c 0
 125 695 134 674 34 686 c 1
 34 686 l 1xcc
EndSplineSet
Position2: "cpsp-1" dx=0 dy=0 dh=10 dv=20
Substitution2: "c2pc-1" n.pcap
Substitution2: "c2sc-1" n.smcp
EndChar

StartChar: O
Encoding: 79 79 40
Width: 837
VWidth: 1159
Flags: W
HStem: -7 50<344.825 539.448> 668 49<298.396 489.712>
VStem: 37 93<271.006 462.544> 695 101<226.05 449.101>
AnchorPoint: "Horn" 707.5 573 basechar 0
AnchorPoint: "Middle" 417.697 364.853 basechar 0
AnchorPoint: "Bottom" 416 -15 basechar 0
AnchorPoint: "Ogonek" 480 2 basechar 0
AnchorPoint: "Top" 420 699 basechar 0
LayerCount: 2
Fore
SplineSet
422 711 m 3
 215.753 711 49 537.001 49 348 c 3
 49 166.439 204.51 -1 424 -1 c 3
 640.002 -1 784 163.091 784 348 c 3
 784 551.015 620.516 711 422 711 c 3
422 711 m 3
 622.358 711 784 547.699 784 348 c 3
 784 155.313 631.097 -1 424 -1 c 3
 216.636 -1 49 154.33 49 348 c 3
 49 541.797 218.545 711 422 711 c 3
EndSplineSet
Position2: "cpsp-1" dx=0 dy=0 dh=10 dv=20
Substitution2: "c2pc-1" o.pcap
Substitution2: "c2sc-1" o.smcp
EndChar

StartChar: P
Encoding: 80 80 41
Width: 637
VWidth: 1159
Flags: W
HStem: -17 38<54.4211 100.225> 242 36<219.515 382.94> 642 42<35.5 120.292> 652 39<216.531 384.467>
VStem: 124 90<353.113 633.758> 133 83<47.5295 249.543> 496 89<375.88 540.933>
AnchorPoint: "Bottom" 183 -15 basechar 0
AnchorPoint: "Top" 315 699 basechar 0
LayerCount: 2
Fore
SplineSet
279 242 m 3xd6
 429.516746411 242 573 313.08988764 573 464 c 3
 573 547.793103448 524.354745835 599.688239119 463 644 c 0
 428.636363636 668.818181818 379 685 316 685 c 3
 236.488994472 685 133.55619746 665.599005869 135 643 c 0xda
 139.575601925 559.920050378 139.5 415.179640719 144 270 c 1
 185.830985915 249 227.661971831 242 279 242 c 3xd6
60 678 m 1xea
 82.8484848485 676 112.727272727 674 147 674 c 3
 213.29281768 674 249.70718232 685 316 685 c 3
 473.639405204 685 573 570.118942731 573 464 c 3
 573 346 475 242 279 242 c 3
 227.25 242 183 250 144 270 c 1
 144 183.357954545 144 88.0136669765 145 49 c 0
 145 -10.3552711254 155 26 240 -4 c 1
 240 -4 l 1
 176.278625954 14 148.969465649 17 81 -11 c 1
 81 -11 l 1
 134.476631848 9.64801513752 144.994722735 -2.54841589433 145 54 c 0xd6
 145.015147368 216.311280042 141.618547088 456.310784069 136 642 c 0
 135.030545542 674.039820142 135.769230769 675 57 676 c 1
 60 678 l 1xea
EndSplineSet
Position2: "cpsp-1" dx=0 dy=0 dh=10 dv=20
Substitution2: "c2pc-1" p.pcap
Substitution2: "c2sc-1" p.smcp
EndChar

StartChar: Q
Encoding: 81 81 42
Width: 793
VWidth: 1361
Flags: W
HStem: -157 43<706.054 871.117> -5 51<311.167 414.904> 684 32<298.898 457.678>
VStem: 41 98<255.911 496.429> 637 102<244.092 489.709>
AnchorPoint: "Middle" 390.697 364.853 basechar 0
AnchorPoint: "Top" 393 699 basechar 0
AnchorPoint: "Bottom" 341 -15 basechar 0
LayerCount: 2
Fore
SplineSet
387 710 m 3
 192.518987342 710 53 569.400684932 53 365 c 3
 53 177.739884393 182.802281369 1 391 1 c 3
 575.173830932 1 727 152.993355482 727 367 c 3
 727 566.010049997 569.375478927 710 387 710 c 3
409 1 m 1
 548.936305732 -112.703703704 667.343949045 -139 747 -139 c 3
 795.301886792 -139 838.773584906 -139 875 -124 c 1
 875 -124 l 1
 831 -135.25 789 -139 747 -139 c 3
 630.219101124 -139 517.235955056 -86.5 409 1 c 1
 196.417142857 -12 53 168.243243243 53 365 c 3
 53 580.256410256 202.624277457 710 387 710 c 3
 572.454545455 710 727 563.561604585 727 367 c 3
 727 201.98265896 624.3062954 15.1213872832 409 1 c 1
EndSplineSet
Position2: "cpsp-1" dx=0 dy=0 dh=10 dv=20
Substitution2: "salt-1" Q.alt
Substitution2: "c2pc-1" q.pcap
Substitution2: "c2sc-1" q.smcp
EndChar

StartChar: R
Encoding: 82 82 43
Width: 801
VWidth: 1159
Flags: W
HStem: -33 37<697.625 764> -10 21G<255 298.636> 322 45<209 337.579> 649 37<43 110.652> 663 42<228.956 395.894>
VStem: 119 90<71.4111 283.488 429.868 640.189> 487 87<441.267 575.707>
AnchorPoint: "Bottom" 388 -15 basechar 0
AnchorPoint: "Top" 315 699 basechar 0
LayerCount: 2
Fore
SplineSet
138 365 m 1x2e
 207.262135922 364 242.737864078 361 312 361 c 3
 520.571428571 361 562 465.226950355 562 528 c 3
 562 593.032258065 493.389830508 696 331 696 c 3
 269.948979592 696 138 675.730882985 138 661 c 0
 138 568.041322314 138 457.958677686 138 365 c 1x2e
67 680 m 1x76
 94.5045045045 679 110.495495495 678 138 678 c 3
 213.237288136 678 244.858757062 696 331 696 c 3
 457.432098765 696 562 621.032258065 562 528 c 3
 562 446.931818182 504 382 378 364 c 1
 484.57506244 129.861356932 597.890489914 -24.6932153392 746 -27 c 1
 746 -27 l 1xae
 592.234741784 -32.4915730337 460.924882629 177.286516854 378 364 c 1
 353.25 361 331.25 361 312 361 c 3
 243.99094298 361 205.942857143 363 138 364 c 1
 138 243.024390244 138.29449421 156.117433833 138 54 c 0
 137.804878049 -13.6595744681 138 26 212 -4 c 1
 212 -4 l 1
 167.518672199 13 123.037344398 15 78 -1 c 1
 78 -1 l 1
 138 20 138 -5 138 42 c 1
 138.672851562 299.806721766 138.705078125 398.337628147 138 641 c 1
 138.506329114 678.683006536 138.620253165 677.470588235 67 680 c 1
 67 680 l 1x76
EndSplineSet
Position2: "cpsp-1" dx=0 dy=0 dh=10 dv=20
Substitution2: "salt-1" R.alt
Substitution2: "c2pc-1" r.pcap
Substitution2: "c2sc-1" r.smcp
EndChar

StartChar: S
Encoding: 83 83 44
Width: 586
VWidth: 1159
Flags: W
HStem: -10 43<206.79 395.696> 672 38<230.404 394.163> 681 20G<485 524>
VStem: 41 34<149.828 195.235> 69 32<0 20.4257> 79 82<457.95 594.46> 460 80<96.0494 230.479> 493 33<527.268 575.693 682.701 692>
AnchorPoint: "Bottom" 297 -15 basechar 0
AnchorPoint: "Top" 319 699 basechar 0
LayerCount: 2
Fore
SplineSet
54 182 m 1xd0
 54 182 l 1
 93.347826087 46.0063414634 81.0911685707 49.4215210964 106 36 c 0
 145.70164057 14.6077316401 231.625641026 -4 293 -4 c 3
 472.011172836 -4 528 91.465648855 528 165 c 3
 528 248.666666667 451.356063496 311.351144784 302 355 c 0
 170.141534427 393.53523545 91 409.294478528 91 532 c 3
 91 613.7 165.132231405 704 321 704 c 3xd6
 387.093023256 704 442.66590949 683.500283941 468 674 c 0
 484 668 494 656 512 686 c 1xb6
 512 686 l 1
 506 602.044776119 497.445818294 593.087987203 515 537 c 0
 515 537 l 1
 489.894736842 601.379310345 520.757501879 634.565322261 493 658 c 0
 468.913276564 678.335569244 397.674698795 704 321 704 c 3
 257.074829932 704 91 674.929577465 91 532 c 3xc5
 91 417.345454545 157.741031048 393.407602223 302 355 c 0
 492.045454545 304.402173913 528 216.630434783 528 165 c 3
 528 94.2146596859 475.672064777 -4 293 -4 c 3
 236.312883436 -4 176.653078206 6.04323548578 125 28 c 0
 82.6551724138 46 85.1724137931 46 81 6 c 1
 81 6 l 1xca
 81.9642857143 68.5979381443 79.0714285714 84.9278350515 54 182 c 1xd0
EndSplineSet
Position2: "cpsp-1" dx=0 dy=0 dh=10 dv=20
Substitution2: "c2pc-1" s.pcap
Substitution2: "c2sc-1" s.smcp
EndChar

StartChar: T
Encoding: 84 84 45
Width: 744
VWidth: 1159
Flags: W
HStem: 632 51<107.399 327.89 427 643.844> 676 35G<65.5 82.5 704.5 733>
VStem: 325 97<46.625 332.37>
AnchorPoint: "Bottom" 371 -15 basechar 0
AnchorPoint: "Top" 371 699 basechar 0
LayerCount: 2
Fore
SplineSet
101 677 m 0xa0
 298.638933214 676.814694519 496.242508423 676 695 676 c 0
 705.947368421 676 716.210526316 677.6 721 680 c 1
 721 680 l 1
 707 644 690 604 688 557 c 1
 688 557 l 1
 691.579527814 594.000026992 692.335756927 603.450099495 716 668 c 0
 718.621369461 675.150414124 714.553719008 676 374 676 c 1
 374 472.333333333 373.911604228 273.162375149 374 65 c 0
 374.037724849 -23.8378942014 374 26 526 -5 c 1
 526 -5 l 1
 440 15 297 8 216 -15 c 1
 216 -15 l 1
 374 24 374 -18.5765913135 374 40 c 0
 374 178.410071942 374 605.079136691 374 676 c 1xa0
 286.85106383 676 201.573236364 677 118 677 c 0
 53.2161256264 677 76.4022988506 677 23 571 c 1
 23 571 l 1
 43 608.328571429 72 683.942857143 83 705 c 1x60
 70.1791044776 677 69.0865558728 677.029921919 101 677 c 0xa0
EndSplineSet
Position2: "cpsp-1" dx=0 dy=0 dh=10 dv=20
Substitution2: "c2pc-1" t.pcap
Substitution2: "c2sc-1" t.smcp
EndChar

StartChar: comma
Encoding: 44 44 47
Width: 200
VWidth: 1159
Flags: W
HStem: -133 252
VStem: 28 144
LayerCount: 2
Fore
SplineSet
60.473425 -90.21265 m 1
 60.4736328125 -90.212890625 l 1
 104.188058323 -43.0442571932 117.440598455 21.2041753309 105.625 35.875 c 0
 101.488073983 41.0116095842 97.0518141661 44.8075284857 91.375 47.875 c 0
 90.125 48.375 89.625 50.125 89.625 51.625 c 3
 89.625 53.125 90.1824127978 54.2503114655 91.375 54.875 c 0
 94 56.4791666667 96.2744515474 58.6650670132 97.375 61.875 c 0
 97.875 63.125 99.375 64.125 100.875 64.125 c 3
 102.375 64.125 103.750311466 63.0675872022 104.375 61.875 c 0
 105.805 58.8125 108.013574023 56.1589731947 110.875 54.875 c 0
 112.125 54.375 112.875 53.125 112.875 51.625 c 1
 117.245119659 33.648325 107.440524486 -41.036375 60.473425 -90.21265 c 1
EndSplineSet
Position2: "cpsp-1" dx=0 dy=0 dh=10 dv=20
EndChar

StartChar: period
Encoding: 46 46 49
Width: 200
VWidth: 1159
Flags: W
HStem: -21 140<78.678 121.536>
VStem: 31 141<25.3087 69.9365>
LayerCount: 2
Fore
SplineSet
111.875 45 m 0
 108.725 43.4456521739 106.025 41.4673913043 104.375 38.5 c 0
 103.875 37.25 102.625 36.5 101.125 36.5 c 3
 99.625 36.5 97.875 37.25 97.375 38.5 c 0
 95.7708333333 41.4673913043 93.4375 43.4456521739 90.375 45 c 0
 89.125 45.5 88.625 47.5 88.625 49 c 3
 88.625 50.5 89.125 51.75 90.375 52.25 c 0
 93.4375 53.8541666667 95.7708333333 56.1875 97.375 59.25 c 0
 97.875 60.5 99.625 61.5 101.125 61.5 c 3
 102.625 61.5 103.875 60.5 104.375 59.25 c 0
 106.025 56.1875 108.725 53.8541666667 111.875 52.25 c 0
 113.125 51.75 113.875 50.5 113.875 49 c 3
 113.875 47.5 113.125 45.5 111.875 45 c 0
EndSplineSet
Position2: "cpsp-1" dx=0 dy=0 dh=10 dv=20
EndChar

StartChar: uni0307
Encoding: 775 775 50
Width: 0
VWidth: 1159
Flags: W
HStem: 451 102<-239.927 -156.073>
VStem: -250 104<460.954 543.046>
AnchorPoint: "TopMark" -200.5 405 mark 0
AnchorPoint: "TopMark" -198.5 539 basemark 0
AnchorPoint: "Top" -198.5 389 mark 0
LayerCount: 2
Fore
SplineSet
-198 514.75 m 0
 -191 514.75 -185 509.25 -185 502.25 c 0
 -185 494.75 -191.25 489.25 -198 489.25 c 0
 -205 489.25 -211 494.25 -211 501.75 c 0
 -211 509.25 -204.75 514.75 -198 514.75 c 0
EndSplineSet
EndChar

StartChar: dotlessi
Encoding: 305 305 51
Width: 265
VWidth: 1159
Flags: MW
HStem: -7 33<15 69 166 236>
VStem: 79 71<57 330>
AnchorPoint: "Top" 118 465 basechar 0
LayerCount: 2
Fore
SplineSet
109 196 m 3
 109 148.486 109 68.0776 109 23 c 0
 109 9.98833 123 10 170 7 c 0
 190.657 5.68148 212.5 0.333333 230 -1 c 1
 230 -1 l 1
 192.872 5 150.984 10 111 10 c 3
 82.875 10 49.125 3 21 -1 c 1
 20.9961 -0.995117 l 1
 20.9972 -0.996094 20.9978 -1.00035 21 -1 c 0
 109 13 109 9.58825 109 45 c 0
 109 77.75 109 141.94 109 176 c 3
 109 196 109 238 109 301 c 0
 109 360.804 109.125 362 93 362 c 3
 79.1 362 51 345.946 23.5 341.2 c 1
 23.5 341.2 l 1
 106.186 364 114.998 370.4 137 425 c 1
 137 425 l 1
 125.652 399.949 114.192 369.92 112.998 354.4 c 0
 108.996 330.4 109 212.125 109 196 c 3
EndSplineSet
Substitution2: "case-1" I
EndChar

StartChar: uniFB01
Encoding: 64257 64257 52
Width: 576
VWidth: 1159
Flags: HW
LayerCount: 2
Fore
SplineSet
429 395 m 3
 345.380244283 395 217.492585419 394 126 394 c 1
 126 348.776119403 126 312.367187993 126 293 c 3
 126 202.422594142 125.755436453 117.149096781 126 29 c 0
 126.060341203 7.25095923257 126.182037059 8.78723415957 149 7 c 0
 169.107434169 5.42507005112 187.136986301 3.5 207 0 c 1
 207 0 l 1
 183.375 5 149.625 7 126 7 c 3
 106.754716981 7 77.2452830189 4 58 0 c 1
 58 0 l 1
 70.2222222222 2 84.6948005351 4.92861344921 98 6 c 0
 126.459459459 8.29166666667 126 6.78023649053 126 56 c 0
 126 115.027027027 126 192.216216216 126 266 c 3
 126 293.354097934 126 343.617021277 126 394 c 1
 102.689189189 394 80.3108108108 394 57 394 c 1
 57 394 l 1
 80.3108108108 394 102.689189189 394 126 394 c 1
 126 434.21875 126 480.625 126 493 c 3
 126 597.928909953 167.660238203 656.962206277 228 698 c 0
 258.739543237 718.906331032 310.192592593 750 374 750 c 3
 403.607476636 750 449.869158879 739 473 717 c 1
 473 717 l 1
 441.876168224 742.142857143 408.833333333 750 374 750 c 3
 273.542591111 750 126 668.422557196 126 498 c 0
 126 487.702970297 126 433.128712871 126 394 c 1
 187.986754967 394 244.013245033 394 306 394 c 0
 450.038389475 394.016778334 445.425226487 394.729442033 463 425 c 1
 463 425 l 1
 449.345970535 399.94921875 444.997261903 394.014191815 444.998046875 354.400390625 c 0
 444.998542265 329.400390553 445 212.125 445 196 c 3
 445 148.486328125 445 68.0771484375 445 23 c 0
 445 9.98828125 453.262279121 9.99957625451 481 7 c 0
 501.579271695 4.77454337434 523.5 0.3330078125 541 -1 c 1
 541 -1 l 1
 511.672055541 5 478.584296218 10 447 10 c 3
 411.0625 10 367.9375 3 332 -1 c 1
 331.99609375 -0.9951171875 l 1
 342.247070312 0.00390625 352.906233942 1.49135713347 373 4 c 0
 444.649429122 12.9452036387 445 6 445 45 c 0
 445 78 445 141.940429688 445 176 c 3
 445 205.76 445 268.256 445 362 c 0
 445 394.352827228 445.125 395 429 395 c 3
EndSplineSet
LCarets2: 1 298 
Ligature2: "liga-1" f i
EndChar

StartChar: uni0237
Encoding: 567 567 53
Width: 265
VWidth: 1159
Flags: MW
VStem: -27 27<-331 -293> 82 68<-160 327>
AnchorPoint: "Top" 120 465 basechar 0
LayerCount: 2
Fore
SplineSet
-15 -324 m 5
 -10 -272.945 -3 -250.255 27 -220 c 4
 47 -198 69 -166 78 -140 c 4
 83.625 -115 88 -55 88 96 c 7
 88 236.946 90 272.912 94 327 c 4
 98 362.802 98 392 98 392 c 7
 85 392 61.5 359.2 33 351 c 5
 33 351 l 5
 61.1973 363 81.2605 377 110 425 c 5
 110 425 l 5
 104.462 408.308 99.4524 376.22 98 363 c 4
 90.8572 318.473 88 215.251 88 194 c 7
 88 88.3143 88 -29.1143 86 -80 c 7
 86 -116.275 80.4615 -138.765 74 -154 c 4
 58.1798 -190.099 33.0112 -216.642 10 -240 c 4
 -0.294117 -252.353 -14.2647 -290.647 -15 -324 c 5
 -15 -324 l 5
EndSplineSet
EndChar

StartChar: U
Encoding: 85 85 54
Width: 827
VWidth: 1159
Flags: W
HStem: -10 54<307.466 561.379> 648 40<25 104.17 214.669 299>
VStem: 109 87<142.83 549.817> 114 90<338.621 635.527> 674 55<148.927 613.406> 675 61<265.699 641.847>
AnchorPoint: "Horn" 722 544 basechar 0
AnchorPoint: "Bottom" 420 -15 basechar 0
AnchorPoint: "Ogonek" 490 2 basechar 0
AnchorPoint: "Top" 441 699 basechar 0
LayerCount: 2
Fore
SplineSet
55 682 m 1xd0
 87.4087 675 159.249 675 203 682 c 1
 203 682 l 1
 126.346 672 126.778 677 126 619 c 0xd0
 125.898 611.394 121 291.136 121 256 c 0
 121 180.027 140.91 114.356 194 68 c 0
 232.892 21.4769 301.465 -4 412 -4 c 3
 449.747 -4 570.247 -2.5 653 80 c 0
 695.382 120.127 714.273 189.287 716 255 c 0xe8
 718.517 358.729 722.18 528.422 723 633 c 0
 723.464 692.256 723 666 647 682 c 1
 647 682 l 1
 677.166 675 762.438 671 781 680 c 1
 781 680 l 1
 723.025 661.879 723 695.762 723 643 c 0xc4
 723 631.111 721 503.579 716 255 c 0
 715.06 180.552 692.493 121.575 653 80 c 0
 600.944 23 519.004 -4 412 -4 c 3
 309.358 -4 237.6 22 194 68 c 0
 143.016 113.379 121 177.126 121 256 c 0xe8
 121 286.843 126 606.579 126 622 c 0
 126 677.143 126.278 672.357 55 682 c 1
 55 682 l 1xd0
EndSplineSet
Position2: "cpsp-1" dx=0 dy=0 dh=10 dv=20
Substitution2: "c2pc-1" u.pcap
Substitution2: "c2sc-1" u.smcp
EndChar

StartChar: V
Encoding: 86 86 55
Width: 858
VWidth: 1159
Flags: W
HStem: 651 36<26.3056 77.5686 205.027 285>
VStem: 413 46<-27 41.9461>
AnchorPoint: "Bottom" 433 -15 basechar 0
AnchorPoint: "Top" 447 699 basechar 0
LayerCount: 2
Fore
SplineSet
192 681 m 1
 192 681 l 1
 165.4 679 147.314877593 676.721434502 135 675 c 0
 104 670.666666667 102.510277321 675.343320312 118 643 c 2
 436 -21 l 1
 735 639 l 2
 752.405716109 677.420644255 759.070711176 677.000276719 715 679 c 0
 709.119258425 679.266840619 667.905660377 687 663 687 c 1
 663 687 l 1
 718.30212766 672 799.8 675 834 687 c 1
 834 687 l 1
 750.805555556 663 762.323920067 701.520036612 731 630 c 0
 713.811535788 590.754605837 553.062966861 236.505240931 475 66 c 0
 462.480317755 38.654492606 447.342857143 6 436 -21 c 1
 436 -21 l 1
 423.142857143 6 414.168809348 25.0724706061 396 63 c 0
 340.302771089 179.268394161 220.015494078 426.603131973 123 635 c 0
 102.190561205 679.700301859 109.693069307 663.173913043 27 683 c 1
 27 683 l 1
 96.7093023256 665 120.372093023 676 192 681 c 1
EndSplineSet
Position2: "cpsp-1" dx=0 dy=0 dh=10 dv=20
Substitution2: "c2pc-1" v.pcap
Substitution2: "c2sc-1" v.smcp
EndChar

StartChar: W
Encoding: 87 87 56
Width: 1141
VWidth: 1159
Flags: W
HStem: 656 34<416 473.596 1102 1132.73> 675 20G<19.0732 53>
VStem: 387 37<-21 34.9281> 768 36<-15 34.8204>
AnchorPoint: "Bottom" 585 -15 basechar 0
AnchorPoint: "Top" 590 699 basechar 0
LayerCount: 2
Fore
SplineSet
1120 687 m 1xb0
 1120 687 l 1
 1059.25849818 673.907479446 1066.89567412 690.489644127 1024 583 c 0
 875.296634425 210.373338382 830.715091727 94.2477445389 813 48 c 0
 804.028843573 24.5795313376 800 13 792 -9 c 1
 792 -9 l 1
 785.75 7.54054054054 779.997232782 22.0790447306 767 59 c 0
 715.952034225 204.010841351 659.960572368 349 608 494 c 1
 484.069867925 180.836734694 444.568021229 72.7460234988 425 29 c 0
 415.827128559 8.49324334306 411 -4 406 -15 c 1
 406 -15 l 1
 399.064599483 3.90909090909 388.711754852 25.1866273353 362 89 c 0
 248.083292252 361.142708878 157.268807271 578.431050881 149 597 c 0
 143.704874047 608.891064961 138.272761032 618.639839313 126 653 c 0
 113.195213949 688.849675971 93.4615384615 662.749386975 34 689 c 1
 34 689 l 1x70
 76.1221374046 668 165.122137405 669 212 687 c 1
 212 687 l 1
 149.917808219 665.263157895 124 681.367491525 124 665 c 3
 124 657 141.030948224 616.371568685 150 595 c 2
 406 -15 l 1
 608 494 l 1
 562.970588235 616.425 554.680985616 637.511933646 546 660 c 0
 536.722379352 684.033647556 542 668 474 684 c 1
 474 684 l 1
 519.705882353 673 589.5 671 642 687 c 1
 642 687 l 1
 636.387096774 684.25 593.855597709 677.07680481 584 676 c 0
 547 671.957446809 538.557276675 682.887940893 555 638 c 2
 792 -9 l 1
 875.454913728 208.654411765 982.477145019 478.07052258 1035 612 c 0
 1069.47283211 699.903225967 1056.48797995 666.570931142 940 682 c 1
 940 682 l 1
 982.049180328 675 1049.18032787 673 1120 687 c 1xb0
EndSplineSet
Position2: "cpsp-1" dx=0 dy=0 dh=10 dv=20
Substitution2: "c2pc-1" w.pcap
Substitution2: "c2sc-1" w.smcp
EndChar

StartChar: X
Encoding: 88 88 57
Width: 819
VWidth: 1159
Flags: HW
HStem: -5 31<37.6774 81.5845 216.875 282> 0 38<482.889 547.531 704.33 761> 653 39<240.4 294> 659 26<32 72.2148 466 501.599 685.401 721.194>
AnchorPoint: "Bottom" 400 -15 basechar 0
AnchorPoint: "Top" 383 699 basechar 0
LayerCount: 2
Fore
SplineSet
54 679 m 1x90
 170 673 91 671 197 686 c 1
 197 686 l 1
 191 685 173.838867188 682.967773438 159 681 c 0
 133.7265625 677.6484375 130.920898438 662.918945312 143 649 c 2
 399 354 l 1
 455.1953125 431.537109375 566.83203125 583.213867188 595 621 c 0
 636 676 636.3125 671.895507812 587 675 c 0
 580.688476562 675.397460938 542 678 536 680 c 1
 536 680 l 1
 620 671 635 673 719 683 c 1
 719 683 l 1
 630 673 640 681 611 642 c 0
 596.979492188 623.14453125 543.198242188 549.299804688 399 354 c 1
 454 289.85546875 639.880859375 75.2939453125 660 53 c 0
 697 12 684 21 759 6 c 1
 759 6 l 1x60
 690 20 670 16 597 0 c 1
 597 0 l 1
 608 5 630.46875 8.2802734375 643 10 c 0
 694 17 696 10 650 64 c 0
 613.057617188 107.3671875 472 266.90625 399 354 c 1
 332 266.080078125 207.919921875 103.545898438 164 48 c 0
 130 5 128.694335938 7.3076171875 178 4 c 0
 192.00390625 3.060546875 216 2 226 1 c 1
 226 1 l 1
 134 7 144 10 60 -1 c 1
 60 -1 l 1
 130 8 123.9921875 1.2744140625 162 46 c 0
 175 61.2978515625 225 126.575195312 399 354 c 1
 191 593.328125 155.614257812 634.33984375 143 649 c 0
 119.393554688 676.434570312 115 676 54 679 c 1
 54 679 l 1x90
EndSplineSet
Position2: "cpsp-1" dx=0 dy=0 dh=10 dv=20
Substitution2: "c2pc-1" x.pcap
Substitution2: "c2sc-1" x.smcp
EndChar

StartChar: Y
Encoding: 89 89 58
Width: 749
VWidth: 1159
Flags: W
HStem: -17 42<258 326.801> 649 40<20.3 85.8905 493.65 550.818 666.274 740>
VStem: 364 78<94.0509 324.738>
AnchorPoint: "Bottom" 398 -15 basechar 0
AnchorPoint: "Top" 386 699 basechar 0
LayerCount: 2
Fore
SplineSet
196 687 m 1
 196 687 184.106727497 682.14962081 176 682 c 0
 121.818181818 681 128.691300504 674.761419159 144 655 c 0
 277.602888087 482.537102473 394.09139785 342.564282869 401 336 c 1
 501.740740741 479 597.581817994 616.666666373 601 622 c 0
 648 695.333333333 638 676 593 682 c 0
 584.018539884 683.197528015 571.234042553 686.666666667 560 688 c 1
 560 688 l 1
 584.097560975 682 674.780487805 671 716 687 c 1
 716 687 l 1
 631 666 649.899334276 690.695512682 610 633 c 0
 551.307902044 548.129644556 468 429.310344828 401 336 c 1
 401 277.568627451 401.230999912 214.556371134 400 38 c 0
 399.719464408 -2.23586484855 400.962264151 10.0833333333 544 -11 c 1
 544 -11 l 1
 449.351351351 3 368.486486486 9 272 -17 c 1
 272 -17 l 1
 399 8 401 -1.9889832454 401 58 c 2
 401 336 l 1
 393.731914894 347.220423453 274.341052441 490.202201202 157 641 c 0
 113 697.545454545 122 674 45 689 c 1
 45 689 l 1
 78.2316602316 683 162.185328185 676 196 687 c 1
 196 687 l 1
EndSplineSet
Position2: "cpsp-1" dx=0 dy=0 dh=10 dv=20
Substitution2: "c2pc-1" y.pcap
Substitution2: "c2sc-1" y.smcp
EndChar

StartChar: Z
Encoding: 90 90 59
Width: 739
VWidth: 1159
Flags: HW
HStem: 1 40<177 569.424> 639 43<107.808 549>
AnchorPoint: "Bottom" 366 -15 basechar 0
AnchorPoint: "Top" 375 699 basechar 0
LayerCount: 2
Fore
SplineSet
21 563 m 1
 68 660.373333333 58 688.066666667 85 697 c 1
 105 681.675675676 140.987929889 676.179734755 153 676 c 0
 185.526367188 675.513312979 542.238460378 671.779332581 649 675.533203125 c 0
 660.415039062 675.934570312 668.982421875 676.420898438 674 677 c 1
 674 677 l 1
 654.573242188 654.099609375 l 0
 38 7 l 1
 162.454148472 6 288.546015263 6.20187865453 413 6 c 0
 645.53980067 5.62279374033 632.989950877 -21.6358102151 707 141 c 1
 707 141 l 1
 670 61.9166666667 658 30.630952381 633 -5 c 1
 612 0.28 596.001204131 7 512 7 c 0
 361 7 117 7 38 7 c 1
 38 7 l 1
 68.0804597701 34.5333611343 104.524558855 74.779483009 135 107 c 0
 311.607142857 293.719969697 498.035714286 483.956 670 673 c 0
 674 677 l 1
 185 676 l 2
 17.6059959949 675.657680973 96 710 21 563 c 1
 21 563 l 1
EndSplineSet
Position2: "cpsp-1" dx=0 dy=0 dh=10 dv=20
Substitution2: "c2pc-1" z.pcap
Substitution2: "c2sc-1" z.smcp
EndChar

StartChar: parenleft
Encoding: 40 40 60
Width: 383
VWidth: 1515
Flags: W
VStem: 37 60<49.4585 379.9>
LayerCount: 2
Fore
SplineSet
337 718 m 9
 337 718 l 1
 142.793 620.383 49 421.522 49 214 c 3
 49 10.1465 130.111 -178.688 339 -295 c 9
 339 -295 l 1
 152.709 -189.247 49 -15.2971 49 214 c 27
 49 442.282 156.52 622.141 337 718 c 9
EndSplineSet
Position2: "cpsp-1" dx=0 dy=0 dh=10 dv=20
Position2: "'case' vertical ajustments for all-caps-1" dx=0 dy=125 dh=0 dv=0
EndChar

StartChar: parenright
Encoding: 41 41 61
Width: 380
VWidth: 1516
Flags: W
VStem: 284 60<49.4585 379.9>
LayerCount: 2
Fore
SplineSet
46 718 m 17
 226.43 622.141 332 442.282 332 214 c 27
 332 -15.2971 229.266 -189.247 43 -295 c 1
 43 -295 l 17
 252.776 -178.688 332 22.4582 332 214 c 3
 332 421.502 240.347 620.383 46 718 c 1
 46 718 l 17
EndSplineSet
Position2: "cpsp-1" dx=0 dy=0 dh=10 dv=20
Position2: "'case' vertical ajustments for all-caps-1" dx=0 dy=125 dh=0 dv=0
EndChar

StartChar: zero
Encoding: 48 48 64
Width: 503
VWidth: 1159
Flags: W
HStem: 1 33<197.15 313.348> 358 36<174.377 296.898>
VStem: 49 73<109.281 280.474> 362 79<105.768 284.433>
LayerCount: 2
Fore
SplineSet
248 388 m 3
 137.904 388 61 287.608 61 194 c 3
 61 104.55 131.791 7 249 7 c 3
 372.199 7 429 114.933 429 194 c 3
 429 288.605 360.002 388 248 388 c 3
248 388 m 3
 348.347 388 429 299.73 429 194 c 3
 429 91.2953 353.062 7 249 7 c 3
 144.66 7 61 91.2953 61 194 c 3
 61 297.79 146.513 388 248 388 c 3
EndSplineSet
Substitution2: "dnom-1" zero.denom
Substitution2: "numr-1" zero.numerator
Substitution2: "lnum-1" zero.proportionallining
Substitution2: "tnum-1" zero.tabulartext
EndChar

StartChar: one
Encoding: 49 49 65
Width: 370
VWidth: 1159
Flags: W
HStem: 0 26<70 121.33 233.02 288> 369 23<80 132.532> 379 23<243.588 282.609>
VStem: 151 61<44.4318 360.804>
LayerCount: 2
Fore
SplineSet
98 386 m 5xd0
 141.951 381.886 217.13 382.838 264 396 c 13
 264 396 l 5xb0
 187.385 381.692 181.5 384 181 334 c 4
 180.905 324.504 181 251.701 181 200 c 31
 181 140.739 181.154 57.7735 181 47 c 4
 180.5 12 181.5 14 270 6 c 13
 270 6 l 5
 207.811 12.4775 150.386 13.29 88 6 c 13
 88 6 l 5
 179.5 15 179.5 12 181 51 c 4
 181.373 60.7102 181 85.5508 181 200 c 7
 182 303.488 182.061 325.664 182 332 c 4
 181.5 384 179.493 381.091 98 386 c 13
 98 386 l 5xd0
EndSplineSet
Substitution2: "dnom-1" one.denom
Substitution2: "numr-1" one.numerator
Substitution2: "tnum-1" one.tabulartext
Substitution2: "lnum-1" one.proportionallining
EndChar

StartChar: two
Encoding: 50 50 66
Width: 445
VWidth: 1159
Flags: HW
HStem: -11 21G<346 365.5> 2 64<114 361.376> 405 53<108.723 227.173>
VStem: 253 68<263.541 378.966>
LayerCount: 2
Fore
SplineSet
61 367 m 1x70
 85.2309 411.194 121.07 452 183 452 c 3
 259 452 321 401.585 321 335 c 3
 321 195.796 61.2415 34.1301 38 6 c 9x70
 341 8 l 2
 365.541 8.16198 385 70 416 103 c 1
 416 103 l 1
 416 103 367.077 43.9848 363 8 c 1xb0
 329 8 254 8 180 8 c 3
 97.013 8 42.6104 6 38 6 c 1
 38 6 l 1
 89.0128 55.0847 321 201.111 321 335 c 3
 321 409.363 249.725 452 183 452 c 3
 122.656 452 87.2365 412.769 61 367 c 1
 61 367 l 1x70
EndSplineSet
Substitution2: "dnom-1" two.denom
Substitution2: "numr-1" two.numerator
Substitution2: "tnum-1" two.tabulartext
Substitution2: "lnum-1" two.proportionallining
EndChar

StartChar: three
Encoding: 51 51 67
Width: 388
VWidth: 1159
Flags: W
HStem: -234 26<91.3077 109.651> 122 26<86 110.144> 402 52<123.681 212.829>
VStem: 229 67<266.659 384.313> 244 72<-77.1723 66.4688>
LayerCount: 2
Back
Fore
SplineSet
106 -228 m 1xe8
 227 -182.8 304 -95.2836 304 6 c 3xe8
 304 85.7918 226.173 136.859 162 159.2 c 1
 156.889 159.2 114.686 137.533 93 133.2 c 1
 93 133.2 l 1
 168.395 153.935 284 219.594 284 344 c 3
 284 428.958 212.871 448 186 448 c 3
 134.37 448 97 403.2 84 380 c 1
 84 380 l 1
 92.9473 411.243 153.79 448 186 448 c 3
 238.564 448 284 405.455 284 344 c 3xf0
 284 240.856 197 179.2 162 159.2 c 1
 220.678 142.588 304 88.1375 304 6 c 3
 304 -138.3 145.243 -221.175 106 -228 c 1
 106 -228 l 1xe8
EndSplineSet
Substitution2: "dnom-1" three.denom
Substitution2: "numr-1" three.numerator
Substitution2: "tnum-1" three.tabulartext
Substitution2: "lnum-1" three.proportionallining
EndChar

StartChar: four
Encoding: 52 52 68
Width: 463
VWidth: 1159
Flags: W
HStem: -7 21G<396.519 416.775> 0 45.5<49.3721 249 310 400.937> 402.3 20G<302.934 337>
VStem: 249 61<-178.286 0 45.5 270.662> 313.5 23.5<404.437 413.313>
LayerCount: 2
Fore
SplineSet
274 -0.5 m 1x78
 274 126.189655172 274 265.860827586 274 351.5 c 1
 274 351.5 105.6366 128.116551724 -2 -0.5 c 1
 274 -0.5 l 1x78
313.5 416.299804688 m 1
 298.095 387.517880859 274 361.397910578 274 342.5 c 0
 274 211.420875421 274 148.133333333 274 -0.5 c 1x78
 407.714285714 -2.9406779661 405.571428571 -0.686440677966 444 95.5 c 1
 444 95.5 l 1
 444 95.5 419.55 32.9746 402 -7 c 1xb8
 399.008816327 2.5918 394.273632653 1.06055 274 1 c 1
 273.794 -183.6543 262.566 -179.472 281 -179.5 c 1
 260.72 -203 249.28 -227 242 -252.5 c 1
 242 -252.5 l 1
 260.882352941 -176.565310493 273.616941176 -252.772034261 274 0 c 1
 -1.58964143426 0 -1.64940239044 1 -16 -17 c 1
 -16 -17 l 1
 -1.31203566122 -0.465783746721 292.806616642 359.980130575 313.5 416.299804688 c 1
 313.5 416.299804688 l 1
EndSplineSet
Substitution2: "dnom-1" four.denom
Substitution2: "numr-1" four.numerator
Substitution2: "tnum-1" four.tabulartext
Substitution2: "lnum-1" four.proportionallining
EndChar

StartChar: five
Encoding: 53 53 69
Width: 362
VWidth: 1159
Flags: W
HStem: 326.5 72<113.63 281.458>
VStem: 239 63<-40.6381 97.0244>
LayerCount: 2
Fore
SplineSet
101 387.5 m 1
 155.99 389.45 228.6098977 390.822925682 242 392.5 c 0
 280.094230769 397.2712 299.850961538 426.2232 317 448.5 c 1
 317 448.5 l 1
 287.75 409.66 260.74905764 391.575422756 242 392.5 c 0
 212.528551724 393.953333333 161.871724138 387.5 102 387.5 c 1
 102 387.5 93.02 292.556603774 86 217.5 c 1
 172.307692308 224 290 176.166 290 48.5 c 3
 290 -92.3145834915 148.181818182 -200.204933586 50 -209 c 1
 50 -209 l 1
 136.310344828 -205.338862559 290 -98.0682677725 290 48.5 c 3
 290 127.000424194 237.291428571 219.85483871 86 217.5 c 1
 91.7 256.920289855 98.81564 325.315196687 101 387.5 c 1
EndSplineSet
Substitution2: "dnom-1" five.denom
Substitution2: "numr-1" five.numerator
Substitution2: "tnum-1" five.tabulartext
Substitution2: "lnum-1" five.proportionallining
EndChar

StartChar: six
Encoding: 54 54 70
Width: 496
VWidth: 1159
Flags: W
HStem: -10 40<223.82 328.156> 320 44<211.153 311.825>
VStem: 68 72<129.031 347.68> 372 64<95.8203 248.065>
LayerCount: 2
Fore
SplineSet
366 624 m 9
 366 624 l 1
 187 560 80 405.204 80 214 c 27
 80 110.628 144.927 -4 254 -4 c 3
 351.6 -4 424 97.9438 424 178 c 3
 424 282.953 333.774 358 262 358 c 3
 199.967 358 146.225 321.881 117 248 c 1
 117 248 l 1
 139.119 312.706 194.226 358 262 358 c 3
 344.094 358 424 273.518 424 178 c 3
 424 79.2081 336.219 -4 254 -4 c 3
 136.929 -4 80 124.38 80 214 c 3
 80 410.694 199.007 566.836 366 624 c 9
EndSplineSet
Substitution2: "dnom-1" six.denom
Substitution2: "numr-1" six.numerator
Substitution2: "tnum-1" six.tabulartext
Substitution2: "lnum-1" six.proportionallining
EndChar

StartChar: seven
Encoding: 55 55 71
Width: 420
VWidth: 1159
Flags: W
HStem: 339 67<81.377 333.466> 407 20G<54 81>
LayerCount: 2
Fore
SplineSet
69 421 m 1
 65.9090909091 403.75 64.5000806312 402 114 402 c 0
 233.241642857 402 406.090909091 402 420 402 c 1
 420 402 l 1
 412.936933535 393.299820467 124.455228265 -129.113105925 103 -168 c 1
 103 -168 l 1
 210.817633379 23.2082474227 292.995995084 172.785906311 409 384 c 0
 413.172367323 391.596830672 406.439913764 402 396 402 c 0
 297.265767327 402 284.907583774 402 135 402 c 0
 63.884693799 402 63 402 24 293 c 1
 24 293 l 1
 24 293 63 391.388059701 69 421 c 1
 69 421 l 1
EndSplineSet
Substitution2: "dnom-1" seven.denom
Substitution2: "numr-1" seven.numerator
Substitution2: "tnum-1" seven.tabulartext
Substitution2: "lnum-1" seven.proportionallining
EndChar

StartChar: eight
Encoding: 56 56 72
Width: 461
VWidth: 1159
UnlinkRmOvrlpSave: 1
Flags: W
HStem: -7 34<188.562 300.068> 601 30<170.77 259.56>
VStem: 55 66<92.7065 220.453> 86 44<449.749 557.966> 313 57<427.637 550.637> 339 66<77.2167 214.897>
LayerCount: 2
Fore
SplineSet
222 625 m 3xe8
 142.263 625 98 547.873 98 484 c 3
 98 339.054 393 315.493 393 155 c 27xd4
 393 61.2287 316.533 -1 215 -1 c 3
 138.304 -1 67 45.4289 67 133 c 3
 67 346.491 358 319.13 358 497 c 3
 358 553.209 318.256 625 222 625 c 3xe8
222 625 m 3
 264.72 625 296.106 616.342 326 582.771 c 0
 341.652 565.477 358 537.737 358 497 c 3
 358 318.34 67 345.539 67 133 c 3xe8
 67 66.6883 116.995 -1 215 -1 c 3
 361.003 -1 393 108.151 393 155 c 3
 393 237.774 332.226 269.38 235 331.2 c 0
 167.762 373.953 98 417.5 98 484 c 3
 98 561.455 151.453 625 222 625 c 3
EndSplineSet
Substitution2: "dnom-1" eight.denom
Substitution2: "numr-1" eight.numerator
Substitution2: "lnum-1" eight.proportionallining
Substitution2: "tnum-1" eight.tabulartext
EndChar

StartChar: uniFB00
Encoding: 64256 64256 74
Width: 642
VWidth: 1159
Flags: W
HStem: -6 39<34 100.133 318.611 384.133 475.174 568.568> 1 32<191.619 269.028 475.619 566.018> 360 37<39 113 187 399 471 624> 669 55<273.933 387.321> 701 55<557.254 661.117>
VStem: 114 71<42.7113 360 397 588.557> 400 69<44.5312 360 397 610.446>
LayerCount: 2
Fore
SplineSet
456 394 m 1
 456 434.21875 456 480.625 456 493 c 3
 456 567.665935242 476.43359375 627.552734375 500.146484375 666 c 1
 466.5078125 691.142578125 397.6484375 718 360 718 c 3
 318.04296875 718 126 655.422557196 126 498 c 0
 126 487.702970297 126 433.128712871 126 394 c 1
 182.571401165 394.000314298 238.959043418 394.000527366 294.999970007 394.000549431 c 0
 349.037718462 394.000570707 402.753094897 394.000414392 456 394 c 1
500.146484375 666 m 1
 508.191148973 677.551835948 517.185103512 688.07765107 527 698 c 0
 548.140625 719.372070312 582.36328125 750 630 750 c 3
 662 750 712 739 737 717 c 1
 737 717 l 1
 703.361328125 742.142578125 667.6484375 750 630 750 c 3
 565.236025094 750 456 675.874171751 456 498 c 0
 456 487.703125 456 433.12890625 456 394 c 1
 505.58984375 394 550.41015625 394 600 394 c 1
 600 394 l 1
 550.737304688 394 505.262695312 394 456 394 c 1
 456 348.776367188 456 312.3671875 456 293 c 3
 456 202.422851562 455.755859375 117.149414062 456 29 c 0
 456.060546875 7.2509765625 456.181640625 8.787109375 479 7 c 0
 499.107421875 5.4248046875 517.13671875 3.5 537 0 c 1
 537 0 l 1
 513.375 5 479.625 7 456 7 c 3
 436.754882812 7 407.245117188 4 388 0 c 1
 388 0 l 1
 400.22265625 2 414.694335938 4.9287109375 428 6 c 0
 456.458984375 8.2919921875 456 6.7802734375 456 56 c 0
 456 115.02734375 456 192.215820312 456 266 c 3
 456 293.354492188 456 343.6171875 456 394 c 1
 294 394 l 0
 126 394 l 1
 126 348.776367188 126 312.367187993 126 293 c 3
 126 202.422594142 125.755436454 117.149096781 126 29 c 0
 126.060341203 7.25095923257 126.182037059 8.7872341596 149 7 c 0
 169.107434169 5.42507005112 187.136986301 3.5 207 0 c 1
 207 0 l 1
 183.375 5 149.625 7 126 7 c 3
 106.754716981 7 77.2452830189 4 58 0 c 1
 58 0 l 1
 70.2222222222 2 84.6948005351 4.92861344923 98 6 c 0
 126.459459459 8.29166666667 126 6.78023649053 126 56 c 0
 126 115.027027027 126 192.216216216 126 266 c 3
 126 293.354097934 126 343.617021277 126 394 c 1
 102.689189189 394 80.3108108108 394 57 394 c 1
 57 394 l 1
 80.3108108108 394 102.689189189 394 126 394 c 1
 126 434.21875 126 480.625 126 493 c 3
 126 597.928909953 183.397460938 632.920898438 227 666 c 0
 250.949355926 684.169198264 312.36328125 718 360 718 c 3
 392 718 475.146484375 688 500.146484375 666 c 1
EndSplineSet
LCarets2: 1 311 
Ligature2: "liga-1" f f
EndChar

StartChar: question
Encoding: 63 63 75
Width: 378
VWidth: 1159
Flags: W
HStem: -21 140<96.678 139.536> 680.8 20G<23 62.5>
VStem: 49 141<25.3087 69.9365> 110 18<184.428 224.678> 274 27<382.756 487.933>
LayerCount: 2
Fore
SplineSet
50 636 m 1xd8
 51.1429 683.145 36.8574 682.78 41 686.8 c 1
 54 636 79.4828 639.8 110 639.8 c 3
 200.092 639.8 289 562.224 289 444.8 c 3
 289 282.003 138.929 273.235 120 267.8 c 0
 120 267.8 120 231.331 120 190 c 9
 120 190 119.267 190.8 119 190.8 c 1
 118.636 228.167 119.287 267.608 120 267.8 c 0
 158 278 289 289.919 289 444.8 c 3
 289 584.439 164 666 50 636 c 1xd8
EndSplineSet
Refer: 49 46 N 1 0 0 1 18 0 2
Position2: "cpsp-1" dx=0 dy=0 dh=10 dv=20
EndChar

StartChar: exclam
Encoding: 33 33 76
Width: 266
VWidth: 1159
Flags: HW
HStem: -21 140<101.678 144.536>
VStem: 54 141<25.3087 69.9365> 109 45<209 415.199>
LayerCount: 2
Fore
SplineSet
131 209 m 17xa0
 132.333 339 133 437 133 533 c 0
 133 579.223 133 602.826 133 652 c 1
 133 651 l 1
 133 617.812 133 596.609 133 533 c 0
 133 408 133 342 133 208 c 9
 131 209 l 17xa0
EndSplineSet
Refer: 49 46 N 1 0 0 1 23 0 2
Position2: "cpsp-1" dx=0 dy=0 dh=10 dv=20
EndChar

StartChar: paragraph
Encoding: 182 182 77
Width: 605
VWidth: 1159
Flags: HW
LayerCount: 2
Fore
SplineSet
282 681 m 1
 282 681 l 1
 274 46 l 1
 274 46 l 1
 282 681 l 1
530 733 m 1
 530 733 l 1
 479.860465116 727.75 320.992104051 715.166957806 222 649 c 0
 158.178060439 606.341005906 124 568.92805269 124 373 c 3
 124 162.3 144.096863705 120.301995824 220 72 c 0
 253 51 307 28 434 0 c 1
 434 0 l 1
 236.281690141 43.3043478261 199.295168084 78.4523305884 144 139 c 0
 86 202.509433962 57.1286677569 281.39575027 41 343 c 0
 35.5443009018 363.838314408 31.9004595757 378.594181102 40 399 c 0
 70 474.581395349 122.152252937 579.498136848 222 649 c 0
 324 720 530 733 530 733 c 1
EndSplineSet
Position2: "cpsp-1" dx=0 dy=0 dh=10 dv=20
EndChar

StartChar: ampersand
Encoding: 38 38 79
Width: 676
VWidth: 1159
Flags: W
HStem: -11 57<161.575 299.635 513.09 600.584> 461 35<584.895 645> 492 33<480.667 506.511>
VStem: 17 72<119.103 262.82> 81 38<475.664 567.366> 289 62<462.542 556.254>
LayerCount: 2
Fore
SplineSet
217.5 402.6 m 1x94
 99.0619 354.558 29 276.697 29 172 c 3
 29 62.6764 109.36 -5 199 -5 c 3
 311.049 -5 376.677 99.6758 429.5 166.6 c 1
 349.5 328.6 261.283 384.955 217.5 402.6 c 1x94
233.5 638.6 m 3
 177.66 638.6 93 588.635 93 506 c 3
 93 450.54 168.17 426.1 217.5 402.6 c 1
 291.406 442.574 327.5 479.587 327.5 516.6 c 3xac
 327.5 576.404 288.674 638.6 233.5 638.6 c 3
618 491 m 1xcc
 583.174 491 551.341 492.358 547.5 480.6 c 0
 510.237 366.54 478.149 273.95 429.5 166.6 c 1
 465.5 32.6 508.833 1 540 1 c 3
 598.421 1 637.895 66.5375 660 108 c 1
 660 108 l 1
 624.958 42.6637 595.509 1 540 1 c 3
 492.77 1 453.56 74.2742 429.5 166.6 c 1
 393.867 123.339 325.599 -5 199 -5 c 3
 87.8462 -5 29 87.8525 29 172 c 3xd4
 29 286.18 117.049 365.659 217.5 402.6 c 1
 149.591 423.603 93 459.147 93 506 c 3
 93 589.449 162 621.102 231 647 c 1
 299.354 621.761 327.5 581.379 327.5 516.6 c 3
 327.5 498.175 303.453 443.229 217.5 402.6 c 1
 289.428 372.938 384.072 272.348 429.5 166.6 c 1
 475.255 253.745 522.643 398.987 547.5 480.6 c 0
 552.4 496.686 511.926 505.8 491 510 c 1
 491 510 l 1xac
 523.328 499.517 579.516 490.345 618 491 c 1
 618 491 l 1xcc
EndSplineSet
Position2: "cpsp-1" dx=0 dy=0 dh=10 dv=20
EndChar

StartChar: quotesingle
Encoding: 39 39 80
Width: 201
VWidth: 1159
Flags: W
HStem: 445.7 254<79 119>
VStem: 51 96<522.722 699.7> 79 40<445.7 617.021>
LayerCount: 2
Fore
SplineSet
98 693.7 m 9xc0
 98 693.7 l 17xc0
 98 627.993 98 538.719 98 451.7 c 9
 98 451.7 l 17xa0
 98 538.602 98 628.141 98 693.7 c 9xc0
EndSplineSet
Position2: "cpsp-1" dx=0 dy=0 dh=10 dv=20
EndChar

StartChar: bracketleft
Encoding: 91 91 86
Width: 246
VWidth: 1515
Flags: W
HStem: -230 33<159.267 219> 685 32<163 219>
VStem: 37 54<-182 669>
LayerCount: 2
Fore
SplineSet
49 711 m 1
 49 -224 l 1
 219 -224 l 1
 219 -224 l 1
 49 -224 l 1
 49 711 l 1
 219 711 l 1
 219 711 l 1
 49 711 l 1
EndSplineSet
Position2: "cpsp-1" dx=0 dy=0 dh=10 dv=20
Position2: "'case' vertical ajustments for all-caps-1" dx=0 dy=90 dh=0 dv=0
EndChar

StartChar: asterisk
Encoding: 42 42 88
Width: 362
VWidth: 1159
Flags: W
HStem: 402 21G<232.5 263.5>
VStem: 135 79<610.995 694.668>
LayerCount: 2
Fore
SplineSet
186.5 539.5 m 1
 154.5 485.5 141.5 465.5 107 409 c 1
 107 409 l 1
 142.5 467 157 489.5 186.5 539.5 c 1
 131.852 553.146 102.836 560.943 39 578 c 1
 39 578 l 1
 101.869 560.943 128.467 553.633 186.5 539.5 c 1
 181.737 604.745 178.5 630 173.5 691 c 1
 173.5 691 l 1
 179 627 181.5 603 186.5 539.5 c 1
 247.5 564 274.5 576 328.5 599 c 1
 328.5 599 l 1
 269.5 574 250 565.5 186.5 539.5 c 1
 224.5 492 243 471 285 423 c 1
 285 423 l 1
 241 472.5 225.5 492 186.5 539.5 c 1
EndSplineSet
EndChar

StartChar: acutecomb
Encoding: 769 769 93
Width: 0
VWidth: 1159
Flags: W
HStem: 427.951 225.517
VStem: -234.611 169.822
AnchorPoint: "TopMark" -216 403 mark 0
AnchorPoint: "Top" -198.5 402 mark 0
AnchorPoint: "TopMark" -191 616 basemark 0
LayerCount: 2
Fore
SplineSet
-221 440 m 17
 -192.356 499.061 -138 595 -93 640 c 9
 -93 640 l 1
 -133.213 597.358 -179.325 525.496 -221 440 c 9
 -221 440 l 17
EndSplineSet
EndChar

StartChar: uni0302
Encoding: 770 770 94
Width: 0
VWidth: 1159
Flags: W
HStem: 422.6 184.8
VStem: -310.25 225.5
AnchorPoint: "TopMark" -198.5 587 basemark 0
AnchorPoint: "TopMark" -200.5 384 mark 0
AnchorPoint: "Top" -198.5 401 mark 0
LayerCount: 2
Fore
SplineSet
-93.5498 429.6 m 1
 -93.5498 429.6 l 1
 -197.45 607.4 l 1
 -301.45 429.6 l 1
 -301.45 429.6 l 1
 -197.45 607.4 l 1
 -197.55 607.4 l 1
 -93.5498 429.6 l 1
EndSplineSet
EndChar

StartChar: gravecomb
Encoding: 768 768 95
Width: 0
VWidth: 1159
Flags: W
HStem: 430.175 225.516
VStem: -337.486 169.82
AnchorPoint: "TopMark" -195 625 basemark 0
AnchorPoint: "Top" -198.5 409 mark 0
AnchorPoint: "TopMark" -196 410 mark 0
LayerCount: 2
Fore
SplineSet
-180 440 m 9
 -180 440 l 17
 -221.675 525.496 -267.787 597.359 -308 640 c 1
 -308 640 l 17
 -263 595 -208.644 499.06 -180 440 c 9
EndSplineSet
EndChar

StartChar: uni030A
Encoding: 778 778 99
Width: 0
VWidth: 1159
Flags: W
HStem: 425.265 31.6061<-232.945 -164.224> 545.129 31.6061<-231.776 -163.399>
VStem: -275.22 32.2268<467.081 533.825> -153.007 32.2268<468.175 534.808>
AnchorPoint: "TopMark" -200.5 382 mark 0
AnchorPoint: "TopMark" -198.5 562 basemark 0
AnchorPoint: "Top" -198.5 395 mark 0
LayerCount: 2
Fore
SplineSet
-198 561.016 m 0
 -229.772 561.016 -259.19 535.126 -259.19 499.823 c 0
 -259.19 464.519 -230.949 440.984 -198 440.984 c 0
 -166.228 440.984 -136.81 466.874 -136.81 502.177 c 0
 -136.81 535.127 -165.051 561.016 -198 561.016 c 0
-198 560.831 m 0
 -165.152 560.831 -136.996 535.021 -136.996 502.173 c 0
 -136.996 466.978 -166.325 441.169 -198 441.169 c 0
 -230.848 441.169 -259.004 464.632 -259.004 499.827 c 0
 -259.004 535.021 -229.675 560.831 -198 560.831 c 0
EndSplineSet
EndChar

StartChar: uni031B
Encoding: 795 795 100
Width: 0
VWidth: 1159
Flags: W
HStem: 330 18<-84.5 -58.5265>
VStem: -45.7441 89.2441<432.878 482.403>
AnchorPoint: "Horn" -73.5 341.8 mark 0
LayerCount: 2
Fore
SplineSet
0 438 m 3
 0 438 l 1
 0 438 l 3
 0 438 l 3
 0 399.81 -41.7076 342.172 -73.5 341.812 c 1
 -73.5 341.812 l 1
 -48 340 0 393.717 0 438 c 3
EndSplineSet
EndChar

StartChar: tildecomb
Encoding: 771 771 101
Width: 0
VWidth: 1159
Flags: W
HStem: 421.645 21G<-344.926 -307.255> 434.053 60<-213.463 -120.137> 471.391 59.446<-293.306 -199.999>
VStem: -344.926 273.107
AnchorPoint: "TopMark" -214 389 mark 0
AnchorPoint: "TopMark" -198.5 538 basemark 0
AnchorPoint: "Top" -210 382 mark 0
LayerCount: 2
Fore
SplineSet
-329.5 436.5 m 1
 -306.559 474.193 -271.909 502.837 -266.112 502.837 c 3
 -226.598 502.837 -181.452 462.052 -142.992 462.052 c 3
 -133.5 462.052 -104.5 494.845 -86.8193 533.539 c 1
 -86.8193 533.539 l 1
 -102.822 497.429 -133.442 462.052 -142.992 462.052 c 3
 -178.985 462.052 -228.994 502.837 -266.111 502.837 c 3
 -280.211 502.837 -309 465.249 -329.5 436.5 c 1
 -329.5 436.5 l 1
EndSplineSet
EndChar

StartChar: uni0304
Encoding: 772 772 102
Width: 0
VWidth: 1159
Flags: W
HStem: 446.6 49.2<-326.4 -67.5996>
VStem: -326.4 258.8<446.6 495.8>
AnchorPoint: "TopMark" -200.5 397 mark 0
AnchorPoint: "TopMark" -198.5 495 basemark 0
AnchorPoint: "Top" -198.5 393 mark 0
LayerCount: 2
Fore
SplineSet
-326.4 471.6 m 1
 -326.4 471.8 l 1
 -67.5996 471.8 l 1
 -67.5996 471.6 l 1
 -326.4 471.6 l 1
EndSplineSet
EndChar

StartChar: uni0306
Encoding: 774 774 106
Width: 0
VWidth: 1159
Flags: W
HStem: 436.274 54.719<-267.503 -128.241>
VStem: -330.178 28.08<532.771 549.079> -92.9023 28.081<535.635 549.079>
AnchorPoint: "TopMark" -200.5 396 mark 0
AnchorPoint: "TopMark" -202 541 basemark 0
AnchorPoint: "Top" -198.5 393 mark 0
LayerCount: 2
Fore
SplineSet
-316.098 552.41 m 1
 -316.098 552.41 l 1
 -299.183 479.064 -248.687 442.274 -198.026 442.274 c 0
 -147.396 442.274 -96.6019 478.91 -78.9023 552.41 c 1
 -78.9023 552.41 l 1
 -96.1669 478.986 -147.175 442.274 -198.026 442.274 c 0
 -248.83 442.274 -299.477 478.986 -316.098 552.41 c 1
EndSplineSet
EndChar

StartChar: uni030D
Encoding: 781 781 107
Width: 0
VWidth: 1159
Flags: W
HStem: 434 176.4<-220.2 -175.8>
VStem: -220.2 44.4<434 610.4>
AnchorPoint: "TopMark" -200.5 396 mark 0
AnchorPoint: "TopMark" -198.5 601 basemark 0
AnchorPoint: "Top" -198.5 393 mark 0
LayerCount: 2
Fore
SplineSet
-198.2 610.4 m 1
 -197.8 610.4 l 1
 -197.8 434 l 1
 -198.2 434 l 1
 -198.2 610.4 l 1
EndSplineSet
EndChar

StartChar: uni0305
Encoding: 773 773 111
Width: 0
VWidth: 1159
Flags: W
HStem: 761 33<-533 0>
LayerCount: 2
Fore
SplineSet
-533 777 m 1
 -533 777 l 1
 0 777 l 1
 0 777 l 1
 -533 777 l 1
EndSplineSet
EndChar

StartChar: uni0315
Encoding: 789 789 114
Width: 0
VWidth: 1159
Flags: W
HStem: 450.494 206.751
VStem: -59.75 61<571.847 641.311>
AnchorPoint: "TopRight" -110.5 531 mark 0
LayerCount: 2
Fore
SplineSet
-59.75 651.245 m 9
 -59.75 651.245 l 1
 -68.5 591.729 -87.25 518.988 -126 470.494 c 9
 -126 470.494 l 1
 -87.0294 524.289 -68.2984 586.175 -59.75 651.245 c 9
EndSplineSet
EndChar

StartChar: Circumflex
Encoding: 65538 -1 160
Width: 281
VWidth: 1159
Flags: HMW
AnchorPoint: "Top" 140 699 mark 0
LayerCount: 2
Fore
SplineSet
252.505 755.361 m 1
 252.505 755.361 l 1
 140.846 893.4 l 1
 28.4951 755.361 l 1
 28.4951 755.361 l 1
 140.846 893.4 l 1
 141.154 893.4 l 1
 252.505 755.361 l 1
EndSplineSet
EndChar

StartChar: Breve
Encoding: 65541 -1 163
Width: 321
VWidth: 1159
Flags: HW
AnchorPoint: "Top" 162 699 mark 0
LayerCount: 2
Fore
SplineSet
28.7646 832.464 m 1
 28.7646 832.464 l 1
 66.6678 726.336 253.257 727.89 292.235 832.464 c 1
 292.235 832.464 l 1
 254.157 727.841 65.9572 726.378 28.7646 832.464 c 1
EndSplineSet
EndChar

StartChar: Ring
Encoding: 65544 -1 166
Width: 281
VWidth: 1159
Flags: W
HStem: 736.972 38.3723<100.526 176.371> 868.246 38.3722<102.629 177.208>
VStem: 53.0137 39.124<783.978 858.53> 186.862 39.1243<785.059 858.629>
AnchorPoint: "Top" 132 699 mark 0
LayerCount: 2
Fore
SplineSet
139.5 894.618 m 0
 100.824 894.618 65.0137 863.104 65.0137 820.132 c 0
 65.0137 777.436 99.3932 748.972 139.5 748.972 c 0
 178.176 748.972 213.986 780.486 213.986 823.458 c 0
 213.986 863.307 179.607 894.618 139.5 894.618 c 0
139.5 894.618 m 0
 179.609 894.618 213.986 863.307 213.986 823.458 c 0
 213.986 780.484 178.175 748.972 139.5 748.972 c 0
 99.3917 748.972 65.0137 777.435 65.0137 820.132 c 0
 65.0137 863.104 100.825 894.618 139.5 894.618 c 0
EndSplineSet
EndChar

StartChar: Uni030B
Encoding: 65545 -1 167
Width: 300
VWidth: 1159
Flags: W
HStem: 728.472 183.528
VStem: 20.5 261.258
AnchorPoint: "Top" 87 699 mark 0
LayerCount: 2
Fore
SplineSet
34 743 m 5
 66 816 87 848 120 899 c 5
 120 899 l 5
 85 845 67 818 34 743 c 5
 34 743 l 5
131.000976562 743.10546875 m 1
 183.993164062 802.643554688 213.853515625 826.587890625 260.999023438 864.89453125 c 1
 260.999023438 864.89453125 l 1
 211.025390625 824.353515625 185.5625 804.237304688 131.000976562 743.10546875 c 1
 131.000976562 743.10546875 l 1
EndSplineSet
EndChar

StartChar: eogonek
Encoding: 281 281 254
Width: 403
VWidth: 1159
UnlinkRmOvrlpSave: 1
Flags: W
HStem: -268.658 60.1279<268.017 345.674> 425 168
VStem: 45 185 183.562 69.209<-195.258 -87.7772>
AnchorPoint: "Top" 209 465 basechar 0
LayerCount: 2
Fore
SplineSet
351 51 m 1
 226.412134195 -36.0691276011 184.349609375 -139.473373562 184.349609375 -193.158203125 c 3
 184.349609375 -252.170898438 216.575195312 -287.158203125 257.349609375 -287.158203125 c 3
 286.7734375 -287.158203125 329.849609375 -273.158203125 358.349609375 -217.658203125 c 1
 358.349609375 -217.658203125 l 1
 334.42578125 -265.931640625 294.1171875 -287.158203125 257.349609375 -287.158203125 c 3
 218.627929688 -287.158203125 184.349609375 -251.993164062 184.349609375 -193.158203125 c 3
 184.349609375 -138.828842171 227.526909768 -33.7327013078 351 51 c 1
 351 51 l 1
EndSplineSet
Refer: 4 101 N 1 0 0 1 0 0 3
Substitution2: "case-1" Eogonek
EndChar

StartChar: uni0328
Encoding: 808 808 255
Width: 0
VWidth: 1159
Flags: W
HStem: -300 60.1279<-182.983 -105.326>
VStem: -267.438 69.209<-226.6 -119.119>
AnchorPoint: "Ogonek" -104.35 21.6582 mark 0
LayerCount: 2
Fore
SplineSet
-97.3691 26.543 m 1
 -204 -50.5 -240 -141.997 -240 -189.5 c 3
 -240 -248.513 -207.775 -283.5 -167 -283.5 c 3
 -137.577 -283.5 -94.5 -269.5 -66 -214 c 9
 -66 -214 l 1
 -89.9246 -262.273 -130.233 -283.5 -167 -283.5 c 3
 -205.722 -283.5 -240 -248.335 -240 -189.5 c 3
 -240 -141.427 -203.046 -48.4328 -97.3691 26.543 c 1
 -97.3691 26.543 l 1
EndSplineSet
EndChar

StartChar: Aogonek
Encoding: 260 260 256
Width: 730
VWidth: 0
Flags: W
HStem: -311.802 72.7783<505.757 579.002> -10 21G<217.5 245.909> 245 42<247 437.657> 692 20G<358 405.73>
VStem: 360 43<632.023 712> 417.273 71.958<-223.08 -102.443>
LayerCount: 2
Fore
SplineSet
247 287 m 1
 300 282 410 283 459 283 c 1
 420 383 394 443 352 545 c 9
 311 444 284 378 247 287 c 1
515.106 9.30371 m 0
 529.026 24.8008 540.25 48 535 76 c 0
 512 139 498 173 475 236 c 1
 415 246 318 252 231 245 c 9
 204.87 183.38 185 147 164 87 c 0
 152 51 176 29 247 34 c 9
 245 -10 l 1
 190 1 82 4 27 -5 c 9
 27 -5 23 20 22 34 c 1
 71 48 95 57 106 80 c 0
 198 289 276 470 344 640 c 0
 359 678 356 679 360 712 c 9
 403 712 l 9
 408.46 684.7 403 681 417 642 c 0
 489.318 423.284 532.922 291.261 632 78.1982 c 0
 640 60.9938 671.846 35.0799 702 32 c 9
 702 32 701 8 700 -4 c 1
 648.463 32.9972 586.223 32.6444 544 -14 c 0
 500 -62.607 489.231 -126.853 489.231 -176.747 c 3
 489.231 -209.679 518.631 -239.023 550.145 -239.023 c 3
 569.97 -239.023 593.775 -232.592 618.2 -218.402 c 9
 618.2 -218.402 629.31 -228.73 632 -236.802 c 1
 605.823 -280.299 555.232 -311.802 515 -311.802 c 3
 465.302 -311.802 417.273 -269.766 417.273 -215.232 c 3
 417.273 -95.7949 479.973 -29.8123 515.106 9.30371 c 0
EndSplineSet
Position2: "cpsp-1" dx=0 dy=0 dh=10 dv=20
EndChar

StartChar: aogonek
Encoding: 261 261 257
Width: 412
VWidth: 0
UnlinkRmOvrlpSave: 1
Flags: W
HStem: -303.658 60.1279<265.367 343.024> -15 43<65 171> 161 32<143 236> 364 52<118 210>
VStem: 23 64<34 133> 180.913 69.209<-230.259 -122.777> 237 65<60 164 191 321>
LayerCount: 2
Fore
SplineSet
331 -3 m 1
 246.782545138 -70.8122161794 218.349609375 -151.346744021 218.349609375 -193.158203125 c 3
 218.349609375 -252.170898438 250.575195312 -287.158203125 291.349609375 -287.158203125 c 3
 320.7734375 -287.158203125 363.849609375 -273.158203125 392.349609375 -217.658203125 c 1
 392.349609375 -217.658203125 l 1
 368.42578125 -265.931640625 328.1171875 -287.158203125 291.349609375 -287.158203125 c 3
 252.627929688 -287.158203125 218.349609375 -251.993164062 218.349609375 -193.158203125 c 3
 218.349609375 -150.844762398 247.536098151 -68.9925327939 331 -3 c 1
 331 -3 l 1
EndSplineSet
Refer: 0 97 N 1 0 0 1 0 0 3
Substitution2: "case-1" Aogonek
EndChar

StartChar: Uni0328
Encoding: 65547 -1 258
Width: 0
VWidth: 1159
Flags: W
HStem: -304.23 73.7197<-186.716 -117.498>
VStem: -275.584 71.875<-213.934 -104.903>
AnchorPoint: "Ogonek" -105.35 23.6582 mark 0
LayerCount: 2
Fore
SplineSet
-104.65 23.8359 m 1
 -207.735 -33.1489 -263.584 -107.898 -263.584 -203.855 c 3
 -263.584 -254.33 -223.682 -298.23 -179.785 -298.23 c 3
 -148.011 -298.23 -102 -274 -70.7158 -220.911 c 9
 -70.7158 -220.911 l 1
 -95.089 -265.21 -142.326 -298.23 -179.785 -298.23 c 3
 -222.805 -298.23 -263.584 -256.496 -263.584 -203.855 c 3
 -263.584 -134.03 -232.943 -46.2389 -104.65 23.8359 c 1
 -104.65 23.8359 l 1
EndSplineSet
EndChar

StartChar: Eogonek
Encoding: 280 280 259
Width: 672
VWidth: 0
UnlinkRmOvrlpSave: 1
Flags: W
HStem: -312.889 73.7197<484.634 553.852> -9 35<56 102.791> 332 36<205 473.393> 654 31<48 108.489>
VStem: 124 81<87.2516 332 368 600.204> 395.766 71.875<-222.592 -114.583> 497 36<248 304.348> 538 30<534 616.889> 598 28<152.398 171.75>
AnchorPoint: "Top" 330 699 basechar 0
LayerCount: 2
Fore
SplineSet
48 685 m 1
 247 675 548 682 574 688 c 1
 606 660 579 667 568 534 c 1
 538 531 l 1
 527 567 546 614 510 625 c 0
 447 643 328 648 247 638 c 0
 229 636 216 622 215 604 c 0
 211 523 206 443 205 368 c 1
 269 370 429 370 443 371 c 0
 480 376 485 402 501 446 c 1
 535 439 l 1
 518 375 522 312 533 248 c 1
 497 239 l 1
 477 310 484 323 443 327 c 0
 399 332 298 331 205 332 c 1
 204 235 208 147 220 81 c 0
 224 64 233 50 250 49 c 0
 343 40 414 32 490 58 c 0
 549 78 559 101 598 177 c 1
 626 170 l 1
 611.167 96.0752 575.441 4.87948 546.489 -19.9775 c 0
 495.106 -64.0946 467.641 -124.319 467.641 -171.689 c 0
 467.641 -207.779 495.827 -239.169 526.835 -239.169 c 0
 547.81 -239.169 572.994 -230.437 598.835 -211.169 c 1
 598.835 -211.169 609.944 -221.497 612.634 -229.569 c 1
 585.579 -277.306 533.145 -312.889 491.565 -312.889 c 0
 442.385 -312.889 395.766 -268.5 395.766 -212.514 c 0
 395.766 -147.806 420.236 -68.9896 514.531 0.186273 c 1
 344.109 1.71465 170.03 9.37991 58 -9 c 1
 48 26 l 1
 101 36 124 49 124 77 c 1
 128 154 128 529 122 613 c 0
 121 640 116 640 43 654 c 1
 48 685 l 1
EndSplineSet
Position2: "cpsp-1" dx=0 dy=0 dh=10 dv=20
EndChar

StartChar: Iogonek
Encoding: 302 302 260
Width: 387
VWidth: 0
UnlinkRmOvrlpSave: 1
Flags: W
HStem: -255.515 73.72<193.335 250.81> -10 21<38.5 84.5> 652 43<45.3488 143.367>
VStem: 36 315 112.549 71.875<-196.134 -81.0251>
LayerCount: 2
Fore
SplineSet
213.5 0 m 1xe8
 149.209 -44.8169 124.549 -130.317 124.549 -172.14 c 3
 124.549 -213.522 158.262 -249.515 195.348 -249.515 c 3
 222.09 -249.515 254.197 -227.186 287.145 -177.916 c 9
 287.145 -177.916 l 1
 266.63 -218.936 226.874 -249.515 195.348 -249.515 c 3
 159.002 -249.515 124.549 -215.297 124.549 -172.14 c 3
 124.549 -128.774 159.116 -38.327 213.5 0 c 1
 213.5 0 l 1xe8
EndSplineSet
Refer: 34 73 N 1 0 0 1 0 0 3
Position2: "cpsp-1" dx=0 dy=0 dh=10 dv=20
EndChar

StartChar: iogonek
Encoding: 303 303 261
Width: 279
VWidth: 0
UnlinkRmOvrlpSave: 1
Flags: HW
HStem: -300 60.128<121.016 198.674> -7 33<29 83 180 250> 572 102<113.073 196.927>
VStem: 36.5625 69.2085<-226.6 -104.449> 93 71<57 330> 103 104<581.954 664.046>
LayerCount: 2
Fore
SplineSet
138.384 9 m 1xf0
 60.3305 -77.8594 48.5625 -154.343 48.5625 -198.835 c 3
 48.5625 -258.579 84.8508 -294 130.771 -294 c 3
 160.485 -294 207.162 -272.17 232.771 -224 c 9
 232.771 -224 l 1
 208.611 -272.621 167.903 -294 130.771 -294 c 3
 87.1643 -294 48.5625 -258.399 48.5625 -198.835 c 3
 48.5625 -152.589 71.8343 -63.1273 138.384 9 c 1
 138.384 9 l 1xf0
EndSplineSet
Refer: 8 105 N 1 0 0 1 0 0 3
Substitution2: "case-1" Iogonek
EndChar

StartChar: uogonek
Encoding: 371 371 263
Width: 526
VWidth: 0
UnlinkRmOvrlpSave: 1
Flags: W
HStem: -324.658 60.1279<314.017 391.674> -11 55<172 273> 338 31<292 351>
VStem: 70 76<71 327> 229.562 69.209<-251.259 -143.777> 359 65<36 52 75 331>
LayerCount: 2
Fore
SplineSet
436 -16 m 1
 302.179563723 -106.665091946 257 -170.587726175 257 -214.158203125 c 3
 257 -273.170898438 289.224609375 -308.158203125 330 -308.158203125 c 3
 359.422851562 -308.158203125 402.5 -294.158203125 431 -238.658203125 c 1
 431 -238.658203125 l 1
 407.075195312 -286.931640625 366.766601562 -308.158203125 330 -308.158203125 c 3
 291.278320312 -308.158203125 257 -272.993164062 257 -214.158203125 c 3
 257 -170.064626068 303.376949621 -105.768854055 436 -16 c 1
 436 -16 l 1
EndSplineSet
Refer: 20 117 N 1 0 0 1 0 0 3
Substitution2: "case-1" Uogonek
EndChar

StartChar: uni0327
Encoding: 807 807 269
Width: 0
VWidth: 1159
UnlinkRmOvrlpSave: 1
Flags: W
VStem: -195 62.4277<-164.273 -94.0566>
AnchorPoint: "Bottom" -193 -15 mark 0
LayerCount: 2
Fore
SplineSet
-277.175 -194.003 m 1
 -277.175 -194.003 l 1
 -209.374 -221.91 -144.572 -168.849 -144.572 -111.429 c 3
 -144.572 -60.9041 -172.374 -33.9105 -241.122 -72.4629 c 1
 -241.123 -72.4629 l 1
 -238.075 -70.4492 -234.83 -68.7112 -231.521 -67.0766 c 0
 -164.374 -33.9105 -181.374 -83.9105 -157.624 13.4326 c 1
 -157.624 13.4326 l 1
 -157.624 13.4326 -170.498 -44.3975 -175.072 -54.9287 c 1
 -158.332 -59.6189 -144.572 -77.6729 -144.572 -111.429 c 0
 -144.572 -175.588 -218.652 -221.432 -277.175 -194.003 c 1
EndSplineSet
EndChar

StartChar: cedillafloating
Encoding: 65548 -1 270
Width: 0
VWidth: 1159
Flags: W
VStem: -195 63.126<-165.104 -94.3473>
AnchorPoint: "Bottom" -193 -15 mark 0
LayerCount: 2
Fore
SplineSet
-277.175 -194.003 m 1
 -277.175 -194.003 l 1
 -210.274 -223.095 -143.874 -168.215 -143.874 -109.349 c 3
 -143.874 -54.0838 -189.757 -32.0947 -235.123 -72.4629 c 1
 -235.123 -72.4629 l 1
 -200.035 -38.5206 -143.874 -44.0727 -143.874 -109.349 c 3
 -143.874 -175.124 -218.343 -222.123 -277.175 -194.003 c 1
EndSplineSet
EndChar

StartChar: Uni0327
Encoding: 65549 -1 282
Width: 0
VWidth: 1159
Flags: W
VStem: -194.928 70.897<-182.621 -103.12>
AnchorPoint: "Bottom" -191 -15 mark 0
LayerCount: 2
Fore
SplineSet
-302.112 -220.844 m 1
 -302.112 -220.844 l 1
 -219.572 -253.801 -136.031 -191.557 -136.031 -124.709 c 3
 -136.031 -75.7989 -178.572 -31.801 -245.892 -77.6221 c 1
 -245.892 -77.6221 l 1
 -241.051 -73.5834 -235.91 -70.2295 -230.581 -67.5293 c 0
 -178.64 -46.2831 -172.572 -82.801 -154.571 12.4434 c 1
 -154.571 12.4434 l 1
 -154.571 12.4434 -161.941 -32.0506 -177.391 -59.667 c 1
 -154.355 -67.455 -136.031 -90.6444 -136.031 -124.709 c 3
 -136.031 -199.404 -228.814 -252.778 -302.112 -220.844 c 1
EndSplineSet
EndChar

StartChar: Cedillafloating
Encoding: 65550 -1 283
Width: 0
VWidth: 1159
Flags: W
VStem: -194.928 70.8965<-182.621 -103.74>
AnchorPoint: "Bottom" -193 -15 mark 0
LayerCount: 2
Fore
SplineSet
-302.112 -220.844 m 1
 -302.112 -220.844 l 1
 -217.572 -253.972 -136.031 -191.557 -136.031 -124.709 c 3
 -136.031 -69.8629 -188.572 -28.9721 -239.892 -77.6221 c 1
 -239.892 -77.6221 l 1
 -199.954 -34.292 -136.031 -58.5156 -136.031 -124.709 c 3
 -136.031 -199.404 -228.814 -252.778 -302.112 -220.844 c 1
EndSplineSet
EndChar

StartChar: Uni030F
Encoding: 65554 -1 296
Width: 300
VWidth: 1159
Flags: W
HStem: 727.907 184.093
VStem: -108.738 262.238
AnchorPoint: "Top" 87 699 mark 0
LayerCount: 2
Fore
SplineSet
140.999023438 743 m 1
 140.999023438 743 l 1
 107.999023438 818 89.9990234375 845 54.9990234375 899 c 1
 54.9990234375 899 l 1
 87.9990234375 848 108.999023438 816 140.999023438 743 c 1
43.998046875 743.10546875 m 1
 43.998046875 743.10546875 l 1
 -10.5634765625 804.237304688 -36.0263671875 824.353515625 -86 864.89453125 c 1
 -86 864.89453125 l 1
 -38.8544921875 826.587890625 -8.994140625 802.643554688 43.998046875 743.10546875 c 1
EndSplineSet
EndChar

StartChar: uni01EB
Encoding: 491 491 310
Width: 506
VWidth: 0
UnlinkRmOvrlpSave: 1
Flags: W
HStem: -302 60.1279<262.367 340.024> -14 39<198.926 326.747> 371 45<167.903 304.133>
VStem: 31 76<127.211 288.037> 177.912 69.209<-228.6 -121.119> 394 78<104.641 273.826>
AnchorPoint: "Top" 251 465 basechar 0
AnchorPoint: "Middle" 255 206 basechar 0
LayerCount: 2
Fore
SplineSet
318.98046875 0.884765625 m 1
 212.349609375 -68.312794768 176.349609375 -150.492572514 176.349609375 -193.158203125 c 3
 176.349609375 -252.170898438 208.575195312 -287.158203125 249.349609375 -287.158203125 c 3
 278.7734375 -287.158203125 321.849609375 -273.158203125 350.349609375 -217.658203125 c 9
 350.349609375 -217.658203125 l 1
 326.42578125 -265.931640625 286.1171875 -287.158203125 249.349609375 -287.158203125 c 3
 210.627929688 -287.158203125 176.349609375 -251.993164062 176.349609375 -193.158203125 c 3
 176.349609375 -149.980335845 213.303710938 -66.4559368439 318.98046875 0.884765625 c 1
 318.98046875 0.884765625 l 1
EndSplineSet
Refer: 14 111 N 1 0 0 1 0 0 3
Substitution2: "case-1" uni01EA
EndChar

StartChar: thorn
Encoding: 254 254 318
Width: 515
VWidth: 1159
Flags: W
HStem: -348 32<8.34375 55.6963> -342 34<151.753 229> -10 46<184.803 329.513> 369 43<198.188 323.819> 654 29<16 45.5305>
VStem: 67 82<-302.037 -18.4171> 80 65<-197.411 7 69.4004 345.78 368 599.495> 406 69<130.435 275.055>
LayerCount: 2
Fore
SplineSet
145 332 m 9x3b
 144 241 143 189 143 98 c 3
 143 92 147 85 154 79 c 0
 185 52 227 36 268 36 c 3
 345 36 406 96 406 180 c 3
 406 270 352 369 251 369 c 3
 207 369 155 342 145 332 c 9x3b
76 31 m 24
 79.1289 217.79 80 367 80 510 c 3
 80 570 80 607 76 627 c 0
 71 654 64 656 46 656 c 3
 36 656 25 654 16 654 c 1
 11 683 l 1
 48 690 104 718 154 759 c 1
 175 743 l 1
 165 717 157 687 156 667 c 0
 151 599 145 484 145 368 c 1xbb
 178 382 234 412 294 412 c 3
 399 412 475 315 475 223 c 3
 475 94 363.004 -10 225 -10 c 3
 198 -10 170 -2 144 7 c 1
 144 -75 144 -247 149 -284 c 0
 151 -299 170 -303 181 -304 c 0
 197 -305 216 -307 230 -308 c 1
 229 -342 l 1x7d
 190 -341 159 -339 117 -339 c 3
 87 -339 39 -344 9 -348 c 1
 6 -316 l 1
 17 -315 25 -313 36 -311 c 0
 59 -305 65 -294 67 -266 c 0xbd
 72 -214 74.0589 -84.8672 76 31 c 24
EndSplineSet
Validated: 1
Substitution2: "case-1" Thorn
EndChar

StartChar: Thorn
Encoding: 222 222 319
Width: 587
VWidth: 1159
Flags: W
HStem: -9 35<49 91.6309> 175 45<203.142 405.091> 516 42<202.8 387.894> 645.244 37.799<211.888 312> 654 31<31 95.7781>
VStem: 117 86.142<54.7783 179.945 223.958 511.181 551.895 633.551> 479 87<296.251 428.707>
LayerCount: 2
Fore
SplineSet
314 645.244 m 1xf6
 283.541 645.769 253.069 641.465 225 634 c 0
 207.498 629.345 204 615 203 597 c 0
 202.24 581.604 201.66 566.606 201.22 551.895 c 1
 237.962 554.526 273.919 558 323 558 c 3
 456 558 566 475 566 372 c 3
 566 255.263 431.193 175 306 175 c 3
 265.72 175 242.813 178.861 203.142 179.945 c 1
 204.32 143.366 206.447 105.541 212 75 c 0
 215.801 58.8486 223.212 38.1826 320 36.1611 c 1
 316 -10.61 l 1
 220.463 11.9565 171.172 11.0439 49 -9 c 1
 39 26 l 1
 92 36 117 49 117 77 c 1
 121 154 120 529 114 613 c 0
 113 640 99 640 26 654 c 1
 31 685 l 1xee
 117.191 680.669 220 674 312 683.043 c 1
 314 645.244 l 1xf6
203.073 223.958 m 1
 242.562 222.396 263.367 220 304 220 c 3
 450 220 479 308 479 361 c 3
 479 421 418 516 302 516 c 3
 280.519 516 230.749 513.6 201.262 507.467 c 1
 199.977 414.948 201.341 310.534 203.073 223.958 c 1
EndSplineSet
Validated: 33
Position2: "cpsp-1" dx=0 dy=0 dh=10 dv=20
EndChar

StartChar: AE
Encoding: 198 198 320
Width: 1067
VWidth: 1159
Flags: HW
LayerCount: 2
Fore
SplineSet
449 681 m 1
 643.081552419 681 936.642699597 681 962 679 c 1
 988 655.909 967 661.682 956 552 c 1
 956 552 l 1
 957.5 648.3 1011.50225071 680.896606865 922 679 c 0
 852.55037037 677.528320312 721.315524691 679 632 679 c 0
 570.314 679 570 678.331 570 645 c 0
 570 541.905 570 442.386 570 348 c 1
 652.017109145 348 857.058109505 348.068925549 875 348 c 0
 909.621 347.867 901.5 347.3 923 421 c 1
 923 421 l 1
 906 369.063 910 317.937 921 266 c 1
 921 266 l 1
 902.5 345.3 910.124293658 348 875 348 c 0
 818.613687316 348 689.179424779 348 570 348 c 1
 570 227.812 570 118.777 570 37 c 0
 570 4.19573 570.221700763 5.42887297065 635 5 c 0
 758.607529745 4.181640625 852.981827195 5 954 5 c 0
 977.148 5 992.333 58.1176 1014 152 c 1
 1014 152 l 1
 999.231 95.3177 989.077 59.2471 978 6 c 1
 795.8 6 597.467 6 476 6 c 1
 476 6 l 1
 568.225 5.3 569 4.17646 569 33 c 1
 569.403923473 73.1839515201 569.668331017 167.061376816 569.76953125 277.991210938 c 1
 498.600360474 278.453886824 373.447240435 279.108098135 280.875 279 c 1
 218.523453135 184.23 172.509255672 115.512516695 121 36 c 0
 94 -6 111 17 199.598632812 -2 c 1
 199.598632812 -2 l 1
 159.360004315 9 77.6660679503 12 34.546875 3 c 1
 34.546875 3 l 1
 106 17 97 -1 121 36 c 0
 278.007043911 275.086758623 420.730482259 489.888571428 541.046875 680.923828125 c 1
 514.307456684 680.946643103 482.723875128 680.968511924 449 681 c 1
 449 681 l 1
541.046875 680.923828125 m 1
 506.523442177 627.115249377 343.169855609 372.690977984 280.875 279 c 1
 343.106391447 278.732223474 503.018381467 277.943939665 569.76953125 277.991210938 c 1
 569.802280693 426.027433725 569.699016264 595.198422352 569 651 c 0
 568.636096103 680.049984403 567.25532906 679.060404509 541.046875 680.923828125 c 1
EndSplineSet
Position2: "cpsp-1" dx=0 dy=0 dh=10 dv=20
EndChar

StartChar: uni0337
Encoding: 823 823 322
Width: 0
VWidth: 1159
Flags: W
HStem: 391.747 20G<-87.813 -46.585>
AnchorPoint: "Middle" -251 206 mark 0
LayerCount: 2
Fore
SplineSet
-60.1973 404.747 m 25
 -60.1973 404.747 l 25
 -461.397 -4.31348 l 25
 -461.397 -4.31348 l 25
 -60.1973 404.747 l 25
EndSplineSet
EndChar

StartChar: ae
Encoding: 230 230 323
Width: 578
VWidth: 1159
Flags: W
HStem: -15 43<55.5195 159.444> -14 50<352.222 471.185> 364 52<125.933 201.869 343.725 424.068>
VStem: 20.5195 62<37.6209 130.135> 33.5195 77<303.417 356.65> 232.563 66.1328<95.5239 181.689>
AnchorPoint: "Top" 283.52 465 basechar 0
AnchorPoint: "Bottom" 280.52 -15 basechar 0
LayerCount: 2
Fore
SplineSet
386.199 405 m 3x24
 308.591 405 272.71 300.989 266.149 210.888 c 1
 359.527 239.246 431.104 260.576 520.26 285.9 c 1
 505.323 346.135 448.94 405 386.199 405 c 3x24
266.149 210.888 m 1
 262.984 87.1898 305.745 -8 375.739 -8 c 3
 439.537 -8 492.474 22.3111 530.48 54 c 1
 530.48 54 l 1
 492.474 23.9118 438.179 -8 375.739 -8 c 3x6c
 330.762 -8 297.409 33.3044 280.26 89.9004 c 1
 225.306 49.4804 152.812 -9 93.5195 -9 c 3
 41.5195 -9 32.5195 24.3 32.5195 65 c 3xb4
 32.5195 88 33.5195 112 39.5195 124 c 0
 45.5195 138 49.323 140.414 59.5195 145 c 0
 124 174 185.542 188.621 266.149 210.888 c 1
 265.806 242.736 267.813 264.144 264.26 297.9 c 0
 260.26 335.9 253.995 352.339 250.26 363.9 c 0
 245.065 379.982 220.312 410 185.52 410 c 3
 161.365 410 45.5195 367.916 45.5195 319 c 3
 45.5195 311.667 49.8052 301.074 50.5195 297 c 1
 50.5195 297 l 1
 48.2973 302.5 45.5195 313.5 45.5195 319 c 3xac
 45.5195 333 52.5195 348 72.5195 360 c 1
 117.556 393.036 173.237 410 185.52 410 c 3
 220.887 410 274 385.5 266 224 c 1
 291 400 365.296 405 386.199 405 c 3
 437.382 405 491.211 362.872 508.859 317 c 0
 514.651 301.946 520.26 281.9 538 290 c 1
 538 290 l 1
 451.567 266.266 354.854 238.012 266.149 210.888 c 1
266.149 210.888 m 1
 199.693 192.69 129.296 172.9 96.2598 159.9 c 0
 49.5 141.5 32.5195 147.506 32.5195 65 c 3
 32.5195 11.8519 54.4799 -9 93.5195 -9 c 3xb4
 156.266 -9 225.838 53.5425 280.26 89.9004 c 1
 271.983 124.992 265.621 165.783 266.149 210.888 c 1
EndSplineSet
Substitution2: "case-1" AE
EndChar

StartChar: bar
Encoding: 124 124 326
Width: 158
VWidth: 1515
Flags: W
HStem: 684 20G<60 98>
VStem: 60 38<-223 704>
LayerCount: 2
Fore
SplineSet
79 704 m 17
 79 704 l 9
 79 -223 l 1
 79 -223 l 1
 79 704 l 17
EndSplineSet
Position2: "cpsp-1" dx=0 dy=0 dh=10 dv=20
Position2: "'case' vertical ajustments for all-caps-1" dx=0 dy=90 dh=0 dv=0
EndChar

StartChar: germandbls
Encoding: 223 223 328
Width: 579
VWidth: 1159
Flags: HW
HStem: -9 40<37 88.8477 173.148 208.525 365.019 460.981> 356 30<40 95.2842> 705 51<244.321 344.378>
VStem: 100 65<36.3341 356 396.595 588.58> 276 67<305.481 354.885> 301 22<88.2815 107.227> 396.559 58.286<487.211 649.856> 477 62<53.3627 166.162>
LayerCount: 2
Fore
SplineSet
312 750 m 0xfb
 403.486427631 750 442.844726562 676.363592835 442.844726562 588.779296875 c 0
 442.844726562 446.016123018 343 385.103048838 343 345 c 0xfb
 343 322 360.358 300 417 276 c 1
 488.094262295 246.667 527 186.985 527 128 c 0
 527 37.3081262774 454.157465649 -3 408 -3 c 0
 361.699560976 -3 332.401317073 8 300 22 c 1
 304 34.0465116279 306 46.0930232558 306 59 c 0
 306 68.3555 304.571 95.6445 301 105 c 1
 301 105 l 1xf7
 323 60.4736842105 260.540636364 -3 408 -3 c 0
 459.5 -3 527 42.254736 527 128 c 0
 527 204.222075472 479.332569826 239.195614477 432 268 c 0
 397.658121909 288.898858857 343 296.1875 343 345 c 0
 343 376.651512219 442.844726562 455.765575073 442.844726562 588.779296875 c 0
 442.844726562 681.632658913 397.563848823 751.178744969 312 750 c 0
 249.375157032 749.137267437 111 676.490066225 111 454 c 0
 111 379 112 295.337658942 112 249 c 0
 112 172.489271795 113.243901685 100.816254034 113 26 c 0
 112.915639362 -0.573675911563 114.465939968 9.65899138688 130 7 c 0
 136.581575462 5.87342057202 142.493363636 5.5 149 0 c 1
 149 0 l 1
 142 5 132 7 125 7 c 0
 105.754866667 7 76.2451333333 4 57 0 c 1
 57 0 l 1
 67.6944444444 2.66666666667 78.562470645 3.34212095866 92 5 c 0
 111.851920626 7.4492659526 113 5.2813277368 113 20 c 0
 113 90.1985815603 112.957421143 151.021936388 112 222 c 0
 111.369233541 270.150598531 111.113531747 333.545082002 111.009765625 395.80078125 c 1
 52 386 l 1
 52 386 l 1
 71.9402221756 388.440736296 91.0951434779 393.281891771 111.009765625 395.80078125 c 1
 111 414.475004353 111 432.42899396 111 449 c 0
 111 579.533 144.081000098 650.788748428 205 704 c 0
 235.911 727.884615385 265.237 750 312 750 c 0xfb
EndSplineSet
MultipleSubs2: "case-2" S S
Substitution2: "case-1" uni1E9E
EndChar

StartChar: minus
Encoding: 8722 8722 331
Width: 463
VWidth: 0
Flags: W
HStem: 190 54<34.2002 427.8>
LayerCount: 2
Fore
SplineSet
47.2002 218 m 25
 415.8 218 l 9
 415.8 218 l 9
 47.2002 218 l 9
 47.2002 218 l 25
EndSplineSet
EndChar

StartChar: greater
Encoding: 62 62 334
Width: 463
VWidth: 0
Flags: W
HStem: -7 21G<70.4615 113.429> 392 20G<91.5605 135.282>
LayerCount: 2
Fore
SplineSet
95 406 m 25
 95 406 l 25
 400 203 l 25
 94 -1 l 25
 94 -1 l 25
 400 203 l 25
 95 406 l 25
EndSplineSet
EndChar

StartChar: braceleft
Encoding: 123 123 337
Width: 266
VWidth: 1515
Flags: W
HStem: -229.7 31<164.585 219.5> 685.3 31.0002<164.585 219.5>
VStem: 71.5 49.5<-156.252 74.5844 412.015 642.851> 94 56<11.1752 194.831 291.769 475.424>
LayerCount: 2
Fore
SplineSet
221.5 710.3 m 1xe0
 221.5 710.3 l 1
 144.208 708.903 97.5 659.046 97.5 526.3 c 3xe0
 97.5 465.535 120 438 120 387 c 3
 120 332.955 85 266 17.5 243.3 c 1
 85 221 120 153.644 120 99.5996 c 3xd0
 120 47.3532 97.5 21.0647 97.5 -39.7002 c 3
 97.5 -171.009 144.196 -223.7 221.5 -223.7 c 0
 221.5 -223.7 l 1
 158.366 -226.989 97.5 -186.214 97.5 -39.7002 c 3xe0
 97.5 20.2272 120 52.5951 120 99.5996 c 3
 120 151.203 87.5417 219.455 17.5 243.3 c 1
 17.5 243.3 l 1
 87.5417 267.144 120 335.397 120 387 c 3xd0
 120 434.004 97.5 466.372 97.5 526.3 c 3
 97.5 672.814 158.366 713.589 221.5 710.3 c 1xe0
EndSplineSet
Position2: "cpsp-1" dx=0 dy=0 dh=10 dv=20
Position2: "'case' vertical ajustments for all-caps-1" dx=0 dy=90 dh=0 dv=0
EndChar

StartChar: underscore
Encoding: 95 95 339
Width: 463
VWidth: 0
Flags: W
HStem: -238 44<0 463>
LayerCount: 2
Fore
SplineSet
0 -216 m 25
 0 -216 l 25
 463 -216 l 25
 463 -216 l 25
 0 -216 l 25
EndSplineSet
EndChar

StartChar: asciitilde
Encoding: 126 126 340
Width: 394
VWidth: 0
Flags: W
HStem: 190.053 64<165.217 319.341> 219.392 63.4463<79.8039 234.197>
LayerCount: 2
Fore
SplineSet
30.1338 211.354 m 1x40
 58.6726 237.244 111.254 261.392 118.465 261.392 c 3x40
 156.831 261.392 238.109 212.053 275.451 212.053 c 3
 292.302 212.053 337.573 236.397 364 256.539 c 1
 364 256.539 l 1
 337.573 236.397 288.733 212.053 275.451 212.053 c 3x80
 240.497 212.053 151.53 261.392 118.465 261.392 c 3
 98.3631 261.392 51.3998 230.591 30.1338 211.354 c 1
 30.1338 211.354 l 1x40
EndSplineSet
Position2: "cpsp-1" dx=0 dy=0 dh=10 dv=20
Position2: "'case' vertical ajustments for all-caps-1" dx=0 dy=90 dh=0 dv=0
EndChar

StartChar: kgreenlandic
Encoding: 312 312 346
Width: 525
VWidth: 1159
Flags: W
HStem: -18 25.8994<461.79 501> -7 21G<208 227.941> -5 33<33.5758 85.0934> 374 27<269 299.949> 395 20G<145.5 187>
VStem: 105 64<41.8162 177 211 337.203>
LayerCount: 2
Fore
SplineSet
179 185 m 1x94
 169 177 l 1
 169 124.725 171 73.9876 175 54 c 0
 177 39 186 38 196 33 c 0
 206 29 216 28 230 27 c 1
 225 -7 l 1x44
 191 -1 172 4 130 4 c 3
 100 4 64 -3 34 -5 c 1
 32 28 l 1
 43 29 54 31 64 33 c 0
 87 40 94 48 96 76 c 0
 101 128 105 170 105 235 c 3
 105 251.155 103 276 101 308 c 0
 100 324 94 338 77 338 c 3
 71 338 51 335 41 334 c 1
 36 363 l 1
 88 374 124 381 167 415 c 1x2c
 187 399 l 1
 181 385 174.291 357.97 173 347 c 0
 171 325.982 168 264.163 167 211 c 1
 202.172 243.143 253.931 289.428 287 328 c 0
 292.772 334.732 301 348 301 355 c 3
 301 373 277 372 267 374 c 1
 269 401 l 1
 295 399 330 399 357 399 c 3
 390 399 433 399 465 403 c 1
 467 373 l 1
 404 365.731 362.85 347.417 333 319 c 2
 243.5 236.952 l 17
 355.5 173.635 404.57 9.25076 505.9 7.89941 c 1
 501 -18 l 5
 315.95 -45.3387 265.5 174.952 179 185 c 1x94
EndSplineSet
MultipleSubs2: "case-2" K quoteleft
EndChar

StartChar: OE
Encoding: 338 338 347
Width: 1081
VWidth: 1159
Flags: HW
HStem: -7 49<336.528 518.419> 332 36<614 882.393> 645 44<298.396 500.529>
VStem: 37 93<264.898 445.181> 533 81<87.2516 332 368 600.204> 906 36<248 304.348> 947 30<534 616.889> 1007 28<152.034 171.75>
LayerCount: 2
Fore
SplineSet
422 681 m 3
 215.752941176 681 49 515 49 334 c 3
 49 160.763 204.997716907 1 424 1 c 3
 499.536666667 1 553 7.19898992475 553 27 c 0
 553 168.10625 551.993867509 560.594018207 551 660 c 0
 550.814942196 678.509361197 478.231630137 681 422 681 c 3
424 1 m 3
 216.635658915 1 49 149.20843695 49 334 c 3
 49 519.254991549 218.545454545 681 422 681 c 3
 507.490017004 681 461.789007914 671.96875 696.956054688 671.96875 c 3
 832.909803577 671.96875 955.168253149 676.186881304 971 680 c 1
 1003 653.454545455 976 660.090909091 965 534 c 1
 965 534 l 1
 962.642857143 590.29787234 1014.01020575 686.220529259 959 681 c 0
 867.573920985 672.323564163 737.007017113 670.946557546 580 671 c 0
 564.123566219 671.005404062 552 668.650979863 552 666 c 0
 552 557.542372881 552 450.423728814 552 350 c 1
 641.546218487 350 866.045880667 350 885 350 c 0
 928.687555154 350 919.034482759 386.786666667 932 439 c 1
 932 439 l 1
 915 375 919 312 930 248 c 1
 930 248 l 1
 913.333333333 330.295454545 930.506852652 350 885 350 c 0
 823.621848739 350 682.731092437 350 553 350 c 1
 553 220.924302789 553 100.113978431 553 16 c 0
 553 12.7254532756 563.837009863 9.86338984041 583 10 c 0
 723.275 11 780.303205436 9.41421888403 945 9 c 0
 995.476436132 8.87304978764 994.833333333 67.1764705882 1023 170 c 1
 1023 170 l 1
 1007 107.105882353 996 67.0823529412 984 8 c 1
 878.313408438 7.45435813808 767.719137705 11.0703125 667.927734375 11.0703125 c 3
 487.931930381 11.0703125 491.021927017 1 424 1 c 3
EndSplineSet
Position2: "cpsp-1" dx=0 dy=0 dh=10 dv=20
EndChar

StartChar: uni2605
Encoding: 9733 9733 348
Width: 821
VWidth: 0
Flags: HW
LayerCount: 2
Fore
SplineSet
765.580078125 429.272460938 m 1
 546.16015625 269.467773438 l 1
 629.788085938 11.9599609375 l 1
 410.368164062 171.763671875 l 1
 190.948242188 11.9599609375 l 1
 274.576171875 270.295898438 l 1
 55.15625 429.272460938 l 1
 325.912109375 428.444335938 l 1
 410.368164062 686.780273438 l 1
 493.99609375 429.272460938 l 1
 765.580078125 429.272460938 l 1
EndSplineSet
EndChar

StartChar: uni2606
Encoding: 9734 9734 349
Width: 821
VWidth: 30
Flags: HW
LayerCount: 2
Fore
SplineSet
765.419921875 429.111328125 m 1
 493.8359375 429.111328125 l 1
 410.208007812 686.620117188 l 1
 325.751953125 428.284179688 l 1
 54.99609375 429.111328125 l 1
 274.416015625 270.135742188 l 1
 190.788085938 11.7998046875 l 1
 410.208007812 171.604492188 l 1
 629.627929688 11.7998046875 l 1
 546 269.30859375 l 1
 765.419921875 429.111328125 l 1
765.419921875 429.112304688 m 1
 546 269.307617188 l 1
 629.627929688 11.7998046875 l 1
 410.208007812 171.603515625 l 1
 190.788085938 11.7998046875 l 1
 274.416015625 270.135742188 l 1
 54.99609375 429.112304688 l 1
 325.751953125 428.284179688 l 1
 410.208007812 686.620117188 l 1
 493.8359375 429.112304688 l 1
 765.419921875 429.112304688 l 1
EndSplineSet
EndChar

StartChar: uni261C
Encoding: 9756 9756 350
Width: 2241
Flags: W
HStem: -39.8809 34.5928<702.366 803.644>
VStem: 65.4062 47.9922<389.495 407.811>
LayerCount: 2
Fore
SplineSet
65.4062 488.98 m 1
 133.471 493.169 171.866 495.579 238.634 514.306 c 1
 246.596 504.546 534.656 534.515 542.911 561.332 c 1
 564.898 551.482 577.512 547.037 605.929 570.229 c 1
 773.769 556.794 986.458 616.839 1106 648 c 1
 1329.25 569.701 1572.25 468.729 1696.18 430.638 c 1
 1739.57 483.052 1793.53 507.924 1848.05 516.793 c 1
 2110.43 547.303 l 1
 2163.02 255.056 2175.68 -29.6611 2148.35 -306.85 c 1
 1892.24 -297.519 l 1
 1875.45 -261.822 1858.65 -226.126 1841.85 -190.43 c 1
 1814.48 -179.761 1789.09 -165.358 1754.94 -149.172 c 1
 1614.8 -241.059 1469.34 -206.779 1327.96 -171.926 c 1
 1302.89 -235.181 1261.64 -288.312 1185.82 -267.69 c 1
 1164.81 -330.418 1107.45 -355.95 1072.25 -326.185 c 0
 999.4 -264.557 891.756 -230.288 835.198 -172.483 c 1
 682.232 -206.512 560.41 -112.538 687.913 48.1104 c 1
 660.334 112.992 745.543 185.467 777.889 271.683 c 1
 695.375 282.243 590.004 307.018 566.297 298.763 c 0
 515.511 281.073 363.284 309.172 334.218 317.119 c 1
 176.398 304.119 59.9014 331.849 65.4062 488.98 c 1
227.493 480.275 m 1
 178.401 472.663 150.689 468.371 101.594 460.757 c 1
 93.8691 413.082 244.447 408.912 227.493 480.275 c 1
1084.38 592.183 m 0
 825.397 554.269 996.286 546.32 636.788 522.399 c 0
 585.692 519 590.137 488.802 569.033 486.987 c 0
 550.55 485.4 544.591 511.314 526.415 507.695 c 0
 434.1 489.321 365.902 488.599 263.3 476.39 c 1
 250.997 394.928 192.292 410.334 113.398 407.811 c 1
 114.412 376.567 264.124 347.652 350.099 377.665 c 1
 407.623 368.682 461.089 357.379 523.575 380.384 c 1
 604.456 372.626 651.254 355.211 727.339 401.371 c 1
 807.605 356.047 974.055 358.16 1064.13 421.6 c 1
 1070.94 421.779 1071.33 413.38 1077.52 410.565 c 1
 1051.33 362.256 1084.46 312.087 1114.36 315.387 c 0
 1130.39 317.154 1149.22 354.088 1163.9 376.21 c 0
 1172.19 388.706 1208.8 379.251 1202.08 365.563 c 0
 1164.56 289.234 1183.03 221.194 1302.92 308.083 c 0
 1330.21 327.857 1391.28 329.565 1389.06 296.334 c 0
 1387.54 273.576 1345.13 302.372 1303.25 264.596 c 0
 1210.07 180.539 1123.04 118.563 1008.84 107.013 c 1
 996.464 98.4824 989.483 93.6709 977.105 85.1396 c 1
 876.257 142.62 705.042 54.8047 694.435 -5.28809 c 1
 757.921 -1.57617 796.29 11.3975 834.737 -28.0469 c 1
 861.688 11.0107 922.306 3.84277 985.483 11.0127 c 1
 998.435 5.33398 1005.74 2.13281 1018.69 -3.54395 c 1
 1031.07 4.98828 1038.05 9.79883 1050.42 18.3291 c 1
 1063.43 11.9795 1070.77 8.39844 1083.78 2.04883 c 1
 1093.29 11.6924 1098.66 17.1289 1108.17 26.7725 c 1
 1169 0.666992 1265.6 3.79102 1298.85 55.3369 c 0
 1307.77 69.1582 1331.21 74.7871 1353.92 73.9941 c 0
 1497.96 68.9609 1697.02 60.1641 1760.13 150.666 c 0
 1796.28 202.51 1766.13 361.801 1721.3 387.54 c 1
 1551.99 437.4 1391.01 515.096 1175.49 584.343 c 0
 1141.59 595.234 1119.66 597.348 1084.38 592.183 c 0
823.456 -100.385 m 1
 821.674 -60.501 792.91 -39.6387 757.787 -39.8809 c 0
 715.507 -40.1699 663.499 -75.8311 669.326 -101.442 c 0
 672.815 -116.764 791.04 -134.5 823.456 -100.385 c 1
1825.2 474.796 m 1
 1793.57 452.477 1775.72 439.887 1744.09 417.571 c 1
 1790.28 409.132 l 1
 1834.35 392.028 1910.85 90.5078 1840.19 -91.3711 c 1
 1844.61 -94.3838 1847.1 -96.085 1851.52 -99.1006 c 1
 1989.62 -17.6104 1923.24 389.222 1825.2 474.796 c 1
EndSplineSet
Validated: 33
EndChar

StartChar: uni261E
Encoding: 9758 9758 351
Width: 2241
Flags: HMW
LayerCount: 2
Fore
SplineSet
2162.17 488.98 m 1
 2167.68 331.849 2051.18 304.119 1893.36 317.119 c 1
 1864.29 309.172 1712.07 281.073 1661.28 298.763 c 0
 1637.57 307.018 1532.2 282.243 1449.69 271.683 c 1
 1482.03 185.467 1567.24 112.992 1539.66 48.1104 c 1
 1667.17 -112.538 1545.34 -206.512 1392.38 -172.483 c 1
 1335.82 -230.288 1228.18 -264.557 1155.32 -326.185 c 0
 1120.13 -355.95 1062.77 -330.418 1041.76 -267.69 c 1
 965.937 -288.312 924.688 -235.181 899.613 -171.926 c 1
 758.235 -206.779 612.779 -241.059 472.641 -149.172 c 1
 438.485 -165.358 413.094 -179.761 385.725 -190.43 c 1
 368.927 -226.126 352.131 -261.822 335.333 -297.519 c 1
 79.2285 -306.85 l 1
 51.9014 -29.6611 64.5586 255.056 117.149 547.303 c 1
 379.524 516.793 l 1
 434.047 507.924 488.01 483.052 531.394 430.638 c 1
 655.332 468.729 898.328 569.701 1121.58 648 c 1
 1241.12 616.839 1453.81 556.794 1621.65 570.229 c 1
 1650.07 547.037 1662.68 551.482 1684.67 561.332 c 1
 1692.92 534.515 1980.98 504.546 1988.94 514.306 c 1
 2055.71 495.579 2094.11 493.169 2162.17 488.98 c 1
2000.08 480.275 m 1
 1983.13 408.912 2133.71 413.082 2125.98 460.757 c 1
 2076.89 468.371 2049.18 472.663 2000.08 480.275 c 1
1143.19 592.183 m 0
 1107.92 597.348 1085.99 595.234 1052.09 584.343 c 0
 836.569 515.096 675.586 437.4 506.281 387.54 c 1
 461.443 361.801 431.295 202.51 467.448 150.666 c 0
 530.558 60.1641 729.622 68.9609 873.661 73.9941 c 0
 896.366 74.7871 919.808 69.1582 928.726 55.3369 c 0
 961.981 3.79102 1058.58 0.666992 1119.41 26.7725 c 1
 1128.92 17.1289 1134.29 11.6924 1143.8 2.04883 c 1
 1156.8 8.39844 1164.14 11.9795 1177.15 18.3291 c 1
 1189.53 9.79883 1196.51 4.98828 1208.89 -3.54395 c 1
 1221.83 2.13281 1229.14 5.33398 1242.09 11.0127 c 1
 1305.27 3.84277 1365.89 11.0107 1392.84 -28.0469 c 1
 1431.29 11.3975 1469.66 -1.57617 1533.14 -5.28809 c 1
 1522.54 54.8047 1351.32 142.62 1250.47 85.1396 c 1
 1238.09 93.6709 1231.11 98.4824 1218.74 107.013 c 1
 1104.54 118.563 1017.5 180.539 924.325 264.596 c 0
 882.445 302.372 840.035 273.576 838.518 296.334 c 0
 836.301 329.565 897.366 327.857 924.653 308.083 c 0
 1044.55 221.194 1063.02 289.234 1025.5 365.563 c 0
 1018.77 379.251 1055.38 388.706 1063.68 376.21 c 0
 1078.36 354.088 1097.19 317.154 1113.21 315.387 c 0
 1143.12 312.087 1176.25 362.256 1150.06 410.565 c 1
 1156.25 413.38 1156.63 421.779 1163.45 421.6 c 1
 1253.52 358.16 1419.97 356.047 1500.24 401.371 c 1
 1576.32 355.211 1623.12 372.626 1704 380.384 c 1
 1766.49 357.379 1819.95 368.682 1877.48 377.665 c 1
 1963.45 347.652 2113.17 376.567 2114.18 407.811 c 1
 2035.29 410.334 1976.58 394.928 1964.28 476.39 c 1
 1861.67 488.599 1793.48 489.321 1701.16 507.695 c 0
 1682.99 511.314 1677.03 485.4 1658.54 486.987 c 0
 1637.44 488.802 1641.88 519 1590.79 522.399 c 0
 1231.29 546.32 1402.18 554.269 1143.19 592.183 c 0
1404.12 -100.385 m 1
 1436.54 -134.5 1554.76 -116.764 1558.25 -101.442 c 0
 1564.08 -75.8311 1512.07 -40.1699 1469.79 -39.8809 c 0
 1434.67 -39.6387 1405.9 -60.501 1404.12 -100.385 c 1
402.373 474.796 m 1
 304.342 389.222 237.955 -17.6104 376.058 -99.1006 c 1
 380.473 -96.085 382.967 -94.3838 387.383 -91.3711 c 1
 316.725 90.5078 393.227 392.028 437.294 409.132 c 1
 483.483 417.571 l 1
 451.853 439.887 434.009 452.477 402.373 474.796 c 1
EndSplineSet
Validated: 33
EndChar

StartChar: uni268A
Encoding: 9866 9866 352
Width: 746
VWidth: 0
Flags: W
HStem: 24 66<30 716>
LayerCount: 2
Fore
SplineSet
30 57 m 25
 30 57 l 25
 716 57 l 25
 716 57 l 25
 30 57 l 25
EndSplineSet
EndChar

StartChar: uni211F
Encoding: 8479 8479 430
Width: 714
UnlinkRmOvrlpSave: 1
Flags: HW
HStem: -33 37<697.625 764> -10 21<255 298.636> 322 45<209 337.579> 649 37<43 110.652> 663 42<228.956 395.894>
VStem: 119 90<71.4111 283.488 429.868 640.189> 487 87<441.267 575.707>
LayerCount: 2
Fore
SplineSet
454.381 -78 m 1x26
 530.503 198.297 611.918 497.405 660 714 c 1
 598.034 687.286 500.371 809.122 472 765 c 0
 425.548 682.696 359.742 776.223 432 825.578 c 0
 517.865 876.988 640 639 673 795.578 c 9
 694.84 788.558 707.16 784.598 729 777.578 c 1
 684.75 645.232 584.381 263.927 491.454 -90 c 1
 454.381 -78 l 1x26
EndSplineSet
Refer: 43 82 N 1 0 0 1 0 0 2
EndChar

StartChar: uni2123
Encoding: 8483 8483 431
Width: 714
UnlinkRmOvrlpSave: 1
Flags: HW
HStem: 651 36<26.3056 77.5686 205.027 285>
VStem: 413 46<-27 41.9461>
LayerCount: 2
Fore
SplineSet
285.381 -78 m 1
 361.504 198.297 442.919 497.405 491 714 c 1
 429.034 687.286 331.371 809.122 303 765 c 0
 256.548 682.696 190.742 776.223 263 825.578 c 0
 348.865 876.988 471 639 504 795.578 c 9
 525.84 788.558 538.16 784.598 560 777.578 c 1
 515.75 645.232 415.382 263.927 322.454 -90 c 1
 285.381 -78 l 1
EndSplineSet
Refer: 55 86 N 1 0 0 1 0 0 2
EndChar

StartChar: estimated
Encoding: 8494 8494 432
Width: 752
VWidth: 0
Flags: W
HStem: -9 50.917<266.135 484.333> 310.923 51.15<191.384 562.454> 632.006 50.917<264.706 485.147>
VStem: 30.1973 161.187<217.349 310.923 362.073 455.702> 562.454 159.576<362.073 456.3>
LayerCount: 2
Fore
SplineSet
632.777 191.846 m 1
 676.861 166.441 l 1
 673.98 161.581 l 2
 613.377 59.3301 501.767 -9 376 -9 c 0
 189.553 -9 30.1973 142.604 30.1973 338.341 c 0
 30.1973 525.945 184.438 682.615 375.52 682.923 c 2
 376.044 682.923 l 2
 564.48 682.923 722.035 529.016 722.03 336.942 c 0
 722.03 329.967 721.813 323.039 721.4 316.168 c 2
 721.084 310.923 l 1
 191.384 310.923 l 1
 191.384 107.399 l 1
 242.467 66.2236 307.069 41.917 376 41.917 c 0
 483.087 41.917 578.216 100.053 629.964 187.113 c 2
 632.777 191.846 l 1
191.384 566.668 m 1
 191.384 362.073 l 1
 562.454 362.073 l 1
 562.454 565.158 l 1
 511.302 606.997 446.18 632.006 376.044 632.006 c 2
 375.598 632.006 l 2
 305.803 631.894 241.805 607.323 191.384 566.668 c 1
EndSplineSet
Validated: 33
EndChar

StartChar: bullet
Encoding: 8226 8226 436
Width: 446
Flags: W
HStem: 122 288<109.717 259.663>
VStem: 40 288<191.67 339.225>
LayerCount: 2
Fore
SplineSet
194.2 266 m 0
 194.2 283.4 208.6 294.8 223 294.8 c 0
 240.7 294.8 251.8 280.1 251.8 265.7 c 0
 251.8 250.4 239.8 237.2 223 237.2 c 0
 208.3 237.2 194.2 248.9 194.2 266 c 0
EndSplineSet
Position2: "cpsp-1" dx=0 dy=0 dh=10 dv=20
EndChar

StartChar: uni2023
Encoding: 8227 8227 437
Width: 614
Flags: W
HStem: 245.313 86.8271<277.825 527.585>
LayerCount: 2
Back
Fore
SplineSet
543 291.641 m 9
 543 291 l 17
 510.111 290.553 403.899 290.318 356 290.313 c 0
 125.904 290.292 124 290 64.1201 29.8203 c 1
 64.1201 29.8203 l 17
 140 324 144 260 49.0801 555.5 c 1
 49.0801 555.5 l 17
 136 298 93 291 325.64 291.141 c 0
 410.943 291.192 507.367 291.355 543 291.641 c 9
EndSplineSet
EndChar

StartChar: dagger
Encoding: 8224 8224 438
Width: 442
Flags: W
HStem: -237 10G<208 216> 247 98 290 55 728 10G<216 238>
VStem: 165 134<639 645 621 646 644 645 621 662> 202 39<-219 -3> 202 207<61 289 186 289 266 315 266 324>
LayerCount: 2
Fore
SplineSet
222 370 m 1
 222 262 222 250 222 -18 c 1
 222 -18 l 1
 222 266 222 282.899414062 222 370 c 1x90
 222 447.032679739 222 467.647058824 222 536 c 1
 140 536 l 2
 90.2734397096 536 93.6363636364 536 70 536 c 3
 29 536 l 3
 29 536 57.9580078125 536 70 536 c 3
 93.0263157895 536 93.5389909352 536 140 536 c 2
 222 536 l 1
 222 617 l 2
 222 649.554433868 222 675.768292683 222 696 c 3
 222 735 l 3
 222 735 222 712 222 698 c 3
 222 675.821428571 222 646.538095082 222 617 c 2
 222 536 l 1
 304 536 l 2
 355.120983514 536 350.052631579 536 374 536 c 3
 415 536 l 3
 415 536 386.72765532 536 374 536 c 3
 350.666666667 536 350.894236761 536 304 536 c 2
 222 536 l 1
 222 468.732026144 222 448.117647059 222 370 c 1
EndSplineSet
EndChar

StartChar: daggerdbl
Encoding: 8225 8225 439
Width: 442
Flags: W
HStem: -262 10G<222 224 222 222> -85 55 247 98 290 55 728 10G<216 238>
VStem: 31 216<20 274 20 290> 165 134<639 645 621 646 644 645 621 662> 180 90 202 45<61 72 72 137> 202 207<61 289 186 289 266 315 266 324>
LayerCount: 2
Fore
SplineSet
222 369 m 5
 222 445.993506494 222 467.681818182 222 536 c 5
 140 536 l 6
 90.7236963691 536 92.974025974 536 69 536 c 7
 29 536 l 7
 29 536 57.9580078125 536 70 536 c 7
 93.0263157895 536 103.348989055 536 140 536 c 6
 222 536 l 5
 222 617 l 6
 222 655.80050577 222 677.256097561 222 698 c 7
 222 735 l 7
 222 735 222 712 222 698 c 7
 222 675.821428571 222 651.219682842 222 617 c 6
 222 536 l 5
 304 536 l 6
 355.152507484 536 349.394736842 536 373 536 c 7
 415 536 l 7
 415 536 386.038085938 536 373 536 c 7
 350 536 348.541278595 536 304 536 c 6
 222 536 l 5
 222 468.766233766 222 447.077922078 222 369 c 5x90
 222 292.121019108 222 267.21656051 222 199 c 5
 303 199 l 6
 352.378938305 199 350.025974026 199 374 199 c 7
 414 199 l 7
 414 199 385.748285061 199 374 199 c 7
 350.644736842 199 350.70911516 199 303 199 c 6
 222 199 l 5
 222 118 l 6
 222 82.4019520008 222 59.2317073171 222 39 c 7
 222 0 l 7
 222 0 222 24.2432432432 222 39 c 7
 222 60.630952381 222 81.3247968929 222 118 c 6
 222 199 l 5
 139 199 l 6
 90.2934206986 199 93.6052631579 199 70 199 c 7
 28 199 l 7
 28 199 56.9619140625 199 70 199 c 7
 93 199 94.1291237477 199 139 199 c 6
 222 199 l 5
 222 266.133757962 222 291.038216561 222 369 c 5
EndSplineSet
EndChar

StartChar: uni0335
Encoding: 821 821 442
Width: 0
VWidth: 1159
Flags: W
HStem: 508.5 38<-325.5 -27.5>
VStem: -325.5 298<508.5 546.5>
LayerCount: 2
Fore
SplineSet
-313.5 527.5 m 25
 -39.5 527.5 l 25
 -39.5 527.5 l 25
 -313.5 527.5 l 25
 -313.5 527.5 l 25
EndSplineSet
EndChar

StartChar: longs
Encoding: 383 383 446
Width: 357
VWidth: 1159
Flags: W
HStem: -6 36<34 97.3708 215.17 284.568> 1 32<191.619 282.018> 356 25<46 67.3182> 701 55<273.459 377.117>
VStem: 113 72<42.1466 356 403 602.768>
AnchorPoint: "Top" 262 748 basechar 0
AnchorPoint: "Bottom" 135 -15 basechar 0
LayerCount: 2
Fore
SplineSet
353 750 m 3x78
 383.206 750 430.402 739 454 717 c 1
 454 717 l 1
 436 736 388.537 750 353 750 c 3
 278 750 124 681 125 493 c 0
 124.995 443.135 124 342.066 124 298 c 3
 124 205.364 124 118.377 124 28 c 0
 124 7.96671 125 6 147 7 c 0x78
 166.865 10.3238 185.137 3.5 205 0 c 1
 205 0 l 1xb8
 186.042 5 158.958 7 140 7 c 3x78
 115.094 7 76.9056 4 52 0 c 1
 52 0 l 1xb8
 60.8611 1.66667 71.9329 4.65042 81 5 c 0
 123.814 7.40727 125 6.9783 125 55 c 0
 125 114.308 125 191.865 125 266 c 3
 125 289.192 125 332.095 125 375 c 1
 64 375 l 1
 64 375 l 1
 125 375 l 1
 125 422.937 125 478.25 125 493 c 3
 125 599.464 163.351 654.668 224 701 c 0
 261.267 726.442 296.622 750 353 750 c 3x78
EndSplineSet
Substitution2: "case-1" S
EndChar

StartChar: yen
Encoding: 165 165 452
Width: 463
VWidth: 1159
UnlinkRmOvrlpSave: 1
Flags: HW
HStem: -4.67871 27.0137<146.569 183.29 299.257 339.58> 171.125 39.1<81 396> 271.775 39.1<81 396> 587.232 25.69<19.3948 54.5358 167.676 182.54 281.486 320.156 397.924 437>
VStem: 81 315<171.125 210.225> 81 315<271.775 310.875> 207.261 75.837<36.0924 306.389>
LayerCount: 2
Fore
SplineSet
182.540039062 612.426757812 m 1xf2
 197.048053325 612.586781538 161.402748005 608.230422156 143.131835938 607.822265625 c 0
 97.3030164241 606.798489039 109.690433709 601.19045948 120 580 c 0
 171.850131525 473.42634985 203.17866483 420.085469734 247.118164062 337.750976562 c 1
 289.630137575 440.372885776 319.253207146 510.895697911 357 592 c 0
 366.25521891 611.886141672 355.009558342 608.274374458 345.571289062 608.465820312 c 0
 318.426407674 609.016427088 303.372634709 612.559481931 281.818359375 612.921875 c 1
 281.818 612.922 l 1
 301.731095101 609.142762818 391.936991481 602.804687968 425 612.587890625 c 1
 425 612.587890625 l 1
 390.129910198 605.484844813 365.178792363 609.620186754 357 592 c 0
 328.518329225 530.63979719 282.490079734 425.775162451 247.118164062 337.750976562 c 1
 247.108157361 279.6816502 246.556117528 209.447811091 247.260742188 19.779296875 c 0
 247.435688505 2.65380538298 247.36108016 9.43644232581 339.580078125 -1.142578125 c 1
 339.58 -1.14258 l 1
 280.655 7.16309 208.32 10.7812 148.485 -4.67871 c 1
 148.485351562 -4.6787109375 l 1
 247.446201257 17.5384161981 247.162435299 -4.72828444559 247.260742188 19.779296875 c 0
 247.322320741 35.1306261486 247.166399779 346.300590472 247.118164062 337.750976562 c 1
 200.634053961 424 161.619247891 493 120 580 c 0
 103.309872675 614.888690952 106.794852623 606.86641311 32.03125 613.416992188 c 1
 32.03125 613.416992188 l 1
 61.8664889071 609.881020092 153.050217854 605.606053827 182.54 612.427 c 1
 182.540039062 612.426757812 l 1xf2
EndSplineSet
Refer: 453 -1 N 0.9 0 0 0.85 443.25 -108.95 2
Refer: 453 -1 N 0.9 0 0 0.85 443.25 -8.29971 2
EndChar

StartChar: eth
Encoding: 240 240 454
Width: 471
VWidth: 1159
UnlinkRmOvrlpSave: 1
Flags: W
HStem: -5 49<172.89 302.553> 359 46<174.141 312.123> 700 27.453<74.4455 86.7927>
VStem: 28 64<133.432 266.724> 366 69<130.061 315.66>
LayerCount: 2
Fore
SplineSet
348.139 315.39 m 1
 309.311 349.295 235.815 359 222 359 c 0
 198 359 92 331.005 92 226 c 0
 92 129.917 150.98 44 252 44 c 0
 332.374 44 366 128.15 366 202 c 0
 366 235.619 359.775 274.394 348.139 315.39 c 1
319.727 395.21 m 1
 297.195 448.096 267.132 501.537 231.091 549.926 c 1
 113 477 l 1
 97 506 l 1
 210.377 576.358 l 1
 168.161 627.531 119.003 671.266 65 700 c 1
 69.0967 706.582 77.2373 727.453 77.2373 727.453 c 1
 145.386 707.325 209.364 664.636 263.844 609.538 c 1
 379 681 l 1
 398 653 l 1
 287.162 584.553 l 1
 376.496 483.21 435 349.111 435 235 c 0
 435 113.963 360.284 -5 193 -5 c 0
 102.911 -5 28 65.9238 28 171 c 0
 28 326.39 176 405 264 405 c 0
 275.736 405 298.098 401.774 319.727 395.21 c 1
EndSplineSet
Substitution2: "case-1" Eth
EndChar

StartChar: Uni0336
Encoding: 65556 -1 456
Width: 0
VWidth: 1159
Flags: W
HStem: 509.5 36<-818.5 -32.5>
LayerCount: 2
Fore
SplineSet
-806.5 527.5 m 25
 -44.5 527.5 l 25
 -44.5 527.5 l 25
 -806.5 527.5 l 25
 -806.5 527.5 l 25
EndSplineSet
EndChar

StartChar: quotereversed
Encoding: 8219 8219 463
Width: 201
VWidth: 1159
Flags: W
HStem: 451 252
VStem: 28 144
LayerCount: 2
Fore
SplineSet
134.274 508.05 m 1
 103.814 551.951 92.5791 614.531 99.0723 636.5 c 1
 99.0723 636.5 l 0
 99.0723 636.5 l 0
 99.0723 636.5 l 0
 99.0723 636.5 l 0
 99.0723 636.5 l 0
 99.0723 636.5 l 0
 99.0723 636.5 l 0
 99.0723 636.5 l 0
 91.25 594.139 115.276 536.746 134.274 508.05 c 1
 134.274 508.05 l 1
EndSplineSet
Position2: "cpsp-1" dx=0 dy=0 dh=10 dv=20
EndChar

StartChar: uni20B9
Encoding: 8377 8377 467
Width: 539
VWidth: 1159
UnlinkRmOvrlpSave: 1
Flags: W
HStem: -33 37<438.45 490> 322 45<41 147.579> 492.095 42.999<42.25 496.25> 685.094 20G<41.5 496.25>
VStem: 297 87<441.267 575.707>
LayerCount: 2
Fore
SplineSet
42.25 705.094 m 25
 496.25 705.094 l 25
 496.25 662.095 l 25
 42.25 662.095 l 25
 42.25 705.094 l 25
42.25 535.094 m 25
 496.25 535.094 l 25
 496.25 492.095 l 25
 42.25 492.095 l 25
 42.25 535.094 l 25
41.5 705 m 1
 80.2881 705 96.5903 705 141 705 c 0
 274 705 384 622 384 519 c 0
 384 432 314 373 234 343 c 1
 324.192 140 395.438 6 497 4 c 1
 490 -33 l 1
 347.099 -38 207.409 153 148 323 c 1
 139 322 131 322 124 322 c 0
 91.5904 322 73.4096 324.4 41 325 c 1
 41 369 l 9
 73.2426 368.5 89.7574 367 122 367 c 3
 268 367 297 455 297 508 c 3
 297 568 236 663 120 663 c 3
 95.4844 663 45.6632 663 42.5 663 c 1
 41.5 705 l 1
EndSplineSet
EndChar

StartChar: eng
Encoding: 331 331 468
Width: 499
VWidth: 1159
Flags: W
HStem: -7 21G<208.5 230.353> -5 33<20.3636 70.2898> 335 29<32 79.6511> 338 61<245.574 353.747> 396 20G<129 175>
VStem: 95 75<72.7464 318.176 330 331.265> 379 69<-91.4785 313.154>
LayerCount: 2
Fore
SplineSet
379 143 m 3x16
 379 187 376 253 374 271 c 0
 369 310 348 338 293 338 c 3
 245 338 203 326 170 308 c 1
 168 224 161 107 161 71 c 3
 161 41 174 37 194 32 c 0
 203 30 222 28 232 27 c 1
 228 -7 l 1x96
 189 -1 159 4 117 4 c 3
 87 4 51 -1 21 -5 c 1
 18 28 l 1
 29 30 35 31 46 33 c 0
 69 39 81 49 87 76 c 0
 94 107 95 167 95 199 c 3
 95 219 93 288 86 308 c 0
 77 334 72 336 54 336 c 3
 44 336 41 335 32 335 c 1
 30 364 l 1
 67 371 104 375 154 416 c 1x6e
 175 401 l 1
 170 383 167 357 167 330 c 1
 215 361 267 399 330 399 c 3
 403 399 448 359 448 288 c 3
 448 255 446 219 446 183 c 3
 446 80.0143 445 -34.4143 445 -84 c 3
 445 -134 433 -165 419 -186 c 0
 397 -220 363 -249 329 -267 c 0
 314 -274 282 -298 262 -316 c 1
 244 -294 l 1
 269 -273 288 -258 316 -225 c 0
 337 -199 353 -166 362 -140 c 0
 371.562 -110.021 379 -38.072 379 143 c 3x16
EndSplineSet
Substitution2: "case-1" Eng
EndChar

StartChar: Eng
Encoding: 330 330 469
Width: 863
VWidth: 1159
Flags: W
HStem: -10 44<32 96.238> 665 37<780.205 840> 673 38<608.263 685.298>
VStem: 105 55<63.5964 311.035> 113 56<364.701 560>
LayerCount: 2
Fore
SplineSet
755 0 m 3xc8
 755 -92 694 -151 625 -200 c 0
 600 -217 575 -235 550 -251 c 9
 525 -218 l 1
 548 -207 567 -196 583 -182 c 0
 588 -178 593 -175 597 -171 c 0
 643.129 -130.678 660.071 -79.1809 670.66 -21 c 0
 683 46.8 658.328 97.5469 612 139.091 c 0
 467.896 283.034 321.026 422.806 169 560 c 1xc8
 160 154 l 2
 158 49 194 41 285 31 c 1
 277 -15 l 1
 182 16 100 -3 32 -10 c 1
 27 34 l 1
 85 34 103 45 105 93 c 0xd0
 114 250 115 416 113 581 c 0
 112 624 77 659 20 658 c 1
 22 702 l 1xc8
 61 698 113 695 154 694 c 0
 169 694 170 690 177 683 c 0
 326.792 523.458 481.299 370.2 644 223.228 c 0
 667.155 202.311 690.86 176.949 707 154 c 1
 716 285.255 718 416.51 717 555 c 0
 716 677 664 666 605 673 c 1
 609 711 l 1xa8
 701 697 769 698 840 702 c 1
 845 665 l 1
 796 659 775 661 771 619 c 0
 756 449 751 268 753 86 c 0
 753 63 755 43 755 0 c 3xc8
EndSplineSet
Position2: "cpsp-1" dx=0 dy=0 dh=10 dv=20
EndChar

StartChar: circumcombhigh
Encoding: 65558 -1 472
Width: 0
VWidth: 1159
Flags: W
HStem: 450.319 133.361
VStem: -323.78 252.561
LayerCount: 2
Fore
SplineSet
-83.2197 459.56 m 1
 -83.2197 459.56 l 1
 -197.364 577.681 l 1
 -311.78 459.56 l 1
 -311.78 459.56 l 1
 -197.364 577.681 l 1
 -197.636 577.681 l 1
 -83.2197 459.56 l 1
EndSplineSet
EndChar

StartChar: a.pcap
Encoding: 65568 -1 645
Width: 486
VWidth: 1159
Flags: HW
HStem: -6.72754 24.5371<40.1534 63.4002 300.216 318.521> 138.178 25.7979<183.397 283.759> 394.827 20G<239.66 272.077>
VStem: 241.215 30.8623<358.173 414.501>
LayerCount: 2
Fore
SplineSet
155.259765625 162.169921875 m 1
 202.85546875 161.599609375 301.63671875 160.459960938 345.639648438 159.889648438 c 1
 311.440429688 251.66015625 290.349609375 307.51953125 255.580078125 403.280273438 c 1
 220.809570312 312.080078125 190.610351562 247.212890625 155.259765625 162.169921875 c 1
367.299804688 3.1396484375 m 9
 367.299804688 3.1396484375 l 1
 406.130859375 9.6953125 408.625 4.849609375 395.799804688 31.0703125 c 0
 378.306640625 75.7724609375 366.16015625 107.735351562 345.639648438 159.889648438 c 1
 298.825195312 160.712890625 223.141601562 161.663085938 155.259765625 162.169921875 c 9
 133.250976562 111.62109375 119.641601562 80.8173828125 98.544921875 33.349609375 c 0
 83.4970703125 5.134765625 85.890625 8.83984375 143.004882812 3.1396484375 c 9
 143.004882812 3.1396484375 l 1
 119.8828125 6.267578125 78.193359375 6.5595703125 54.3701171875 2.5703125 c 9
 54.3701171875 2.5703125 l 1
 84.1875 6.5595703125 83.30078125 5.4755859375 96.5498046875 28.7900390625 c 0
 152.735351562 154.940429688 199.169921875 264.190429688 241.900390625 366.799804688 c 0
 250.611328125 387.7890625 251.01953125 388.174804688 255.580078125 403.280273438 c 9
 255.580078125 403.280273438 l 9
 260.05859375 389.649414062 260.151367188 389.54296875 268.120117188 367.940429688 c 0
 319.814453125 227.541015625 345.66015625 158.000976562 400.360351562 20.240234375 c 0
 407.88671875 5.7080078125 409.282226562 6.5595703125 434.559570312 3.1396484375 c 9
 434.559570312 3.1396484375 l 1
 410.58984375 6.5595703125 403.434570312 8.83984375 367.299804688 3.1396484375 c 9
EndSplineSet
EndChar

StartChar: b.pcap
Encoding: 65569 -1 646
Width: 457
VWidth: 1159
Flags: HW
HStem: -2.78809 27.4912<62.207 100.731 197.924 282.256> 199.25 19.0244<179.031 243.925> 372.902 26.8418<62.1856 92.4674 187.554 242.168>
VStem: 110.511 69.0166<32.0583 168.354 218.274 369.351> 270.896 77.8525<248.787 352.694> 310.656 78.3438<44.8722 163.307>
LayerCount: 2
Fore
SplineSet
82.48046875 4.2802734375 m 1xba
 126.370117188 6.5595703125 125.880859375 5.2734375 126.940429688 23.66015625 c 0
 126.940429688 26.96484375 126.940429688 91.7529296875 126.940429688 168.440429688 c 3
 126.940429688 277.03515625 127.03125 369.567382812 126.940429688 375.349609375 c 0
 126.655273438 390.258789062 126.940429688 389.15625 108.129882812 390.740234375 c 0
 104.981445312 391.026367188 86.68359375 393.818359375 83.6201171875 394.16015625 c 5
 83.6201171875 394.16015625 l 1
 88.994140625 394.16015625 111.029296875 388.459960938 140.049804688 388.459960938 c 3
 167.965820312 388.459960938 196.934570312 394.16015625 223.26953125 394.16015625 c 3
 299.44921875 394.16015625 319.599609375 330.293945312 319.599609375 297.259765625 c 3xbc
 319.599609375 255.974609375 287.92578125 219.854492188 223.26953125 210.620117188 c 1
 322.165039062 201.614257812 368.620117188 159.578125 368.620117188 105.169921875 c 3
 368.620117188 43.9521484375 313.153320312 3.1396484375 226.690429688 3.1396484375 c 3
 198.745117188 3.1396484375 172.3828125 6.5595703125 142.330078125 6.5595703125 c 3
 110.517578125 6.5595703125 86.2548828125 4.2802734375 82.48046875 4.2802734375 c 1
 82.48046875 4.2802734375 l 1xba
223.26953125 210.620117188 m 0
 285.975585938 217.961914062 319.599609375 253.940429688 319.599609375 297.259765625 c 3
 319.599609375 321.170898438 304.83984375 394.16015625 223.26953125 394.16015625 c 3
 212.899414062 394.16015625 193.629882812 392.735351562 185.934570312 391.879882812 c 0
 128.155273438 385.459960938 127.509765625 389.422851562 127.509765625 375.349609375 c 0
 127.509765625 209.48046875 l 1xdc
 206.826171875 209.48046875 213.59765625 210.049804688 223.26953125 210.620117188 c 0
209.58984375 209.48046875 m 0
 127.509765625 209.48046875 l 9
 127.509765625 142.580078125 127.509765625 77.0458984375 127.509765625 36.76953125 c 0
 127.509765625 6.5595703125 128.650390625 7.1298828125 185.650390625 5.419921875 c 0
 190.814453125 5.3203125 213.516601562 3.1396484375 226.690429688 3.1396484375 c 3
 303.6484375 3.1396484375 368.620117188 37.8583984375 368.620117188 105.169921875 c 3xba
 368.620117188 156.41015625 322.73046875 209.48046875 209.58984375 209.48046875 c 0
EndSplineSet
EndChar

StartChar: c.pcap
Encoding: 65570 -1 647
Width: 515
VWidth: 1159
Flags: HW
HStem: -5.74805 28.2881<248.634 357.7> 292.83 101.134<394.14 439.115> 378.525 27.4531<229.308 349.526>
VStem: 57.1709 86.0049<120.466 288.088> 394.14 24.333<294.116 340.369> 422.871 20.6309<91.7972 107.381>
LayerCount: 2
Fore
SplineSet
78.33984375 200.360351562 m 3
 78.33984375 296.723632812 146.920898438 397.009765625 301.780273438 397.009765625 c 3
 334.40234375 397.009765625 352.247070312 395.380859375 383.860351562 388.459960938 c 0
 408.745117188 383.01171875 434.58984375 369.194335938 440.860351562 380.48046875 c 1
 440.860351562 380.48046875 l 1
 419.200195312 345.474609375 419.76953125 323.888671875 419.76953125 311.053710938 c 0
 419.76953125 311.053710938 l 1
 418.629882812 353.234375 438.009765625 372.614257812 410.650390625 381.734375 c 0
 374.397460938 393.818359375 345.862304688 397.009765625 301.780273438 397.009765625 c 27
 177.213867188 397.009765625 78.33984375 326.053710938 78.33984375 200.360351562 c 3
 78.33984375 76.7353515625 186.782226562 0.2900390625 296.650390625 0.2900390625 c 3
 380.114257812 0.2900390625 422.049804688 22.6337890625 435.73046875 86.9296875 c 9
 435.73046875 86.9296875 l 1
 431.661132812 64.158203125 428.044921875 51.5615234375 422.620117188 28.7900390625 c 1
 388.559570312 13.0126953125 346.9296875 0.2900390625 296.650390625 0.2900390625 c 3
 175.059570312 0.2900390625 78.33984375 83.79296875 78.33984375 200.360351562 c 3
EndSplineSet
EndChar

StartChar: d.pcap
Encoding: 65571 -1 648
Width: 554
VWidth: 1159
Flags: HW
HStem: -4.59668 29.1143<50.9419 88.4936 154.692 316.994> 371.701 25.1631<179.271 302.206>
VStem: 91.8701 76.4385<33.3188 293.547> 410.276 82.7236<105.346 283.871>
LayerCount: 2
Fore
SplineSet
234.950195312 1.4296875 m 3x5c
 378.313476562 1.4296875 471.5 67.029296875 471.5 199.219726562 c 3
 471.5 304.244140625 381.83203125 391.309570312 248.629882812 391.309570312 c 3
 200.665039062 391.309570312 174.060546875 389.114257812 125.794921875 385.666992188 c 0
 109.834960938 384.526367188 109.264648438 384.526367188 109.264648438 361.7265625 c 0
 109.264648438 243.08203125 110.405273438 141.479492188 108.98046875 24.7998046875 c 0
 108.98046875 14.5400390625 110.634765625 4.2802734375 126.080078125 2 c 0
 155.427734375 1.4296875 191.401367188 1.4296875 234.950195312 1.4296875 c 3x5c
69.080078125 386.75 m 25xac
 89.615234375 386.75 101.5546875 386.75 122.08984375 386.75 c 27
 171.6796875 386.75 199.040039062 391.309570312 248.629882812 391.309570312 c 3
 367.530273438 391.309570312 471.5 315.706054688 471.5 199.219726562 c 3
 471.5 45.6943359375 347.961914062 1.4296875 234.950195312 1.4296875 c 3x5c
 192.76953125 1.4296875 168.259765625 2 126.080078125 2 c 3
 90.501953125 2 85.2138671875 0.8603515625 70.7900390625 -0.2802734375 c 9
 70.7900390625 -0.2802734375 l 1
 108.125 0.6650390625 107.9609375 1.89453125 108.98046875 16.25 c 1
 108.942382812 106.99609375 109.487304688 290.53125 109.549804688 369.080078125 c 1
 108.42578125 388.958984375 108.125 385.436523438 69.080078125 386.75 c 9
 69.080078125 386.75 l 25xac
EndSplineSet
EndChar

StartChar: e.pcap
Encoding: 65572 -1 649
Width: 469
VWidth: 1159
Flags: HW
HStem: -5.91016 22.9825<59.1113 83.6865> 189.377 23.64<167.007 306.626> 378.477 18.703<53.1904 82.1411>
VStem: 94.7002 72.1458<37.9719 189.377 213.017 361.009> 329.12 22.856<134.074 169.743 236.082 261.296> 347.939 19.861<295.923 342.541> 387.05 18.95<105.023 116.752>
LayerCount: 2
Fore
SplineSet
75.6201171875 389.030273438 m 1
 182.581054688 389.030273438 344.365234375 389.030273438 358.33984375 389.030273438 c 1
 373.16015625 375.868164062 361.190429688 379.158203125 354.919921875 316.639648438 c 1
 354.919921875 316.639648438 l 1
 355.775390625 371.53125 386.5546875 390.169921875 335.540039062 389.030273438 c 0
 291.3125 388.19140625 207.73828125 389.030273438 150.860351562 389.030273438 c 0
 115.69921875 389.030273438 115.51953125 388.6484375 115.51953125 369.650390625 c 0
 115.51953125 310.885742188 115.51953125 254.16015625 115.51953125 200.360351562 c 1
 167.481445312 200.360351562 297.3828125 200.395507812 308.75 200.360351562 c 0
 328.484375 200.284179688 323.85546875 199.9609375 336.110351562 241.969726562 c 1
 336.110351562 241.969726562 l 1
 326.419921875 212.366210938 328.700195312 183.223632812 334.969726562 153.620117188 c 1
 334.969726562 153.620117188 l 1
 324.424804688 198.821289062 328.657226562 198.236328125 308.75 200.360351562 c 0
 273.02734375 200.360351562 191.025390625 200.360351562 115.51953125 200.360351562 c 1
 115.51953125 131.852539062 115.51953125 69.703125 115.51953125 23.08984375 c 0
 115.51953125 4.3916015625 115.649414062 5.419921875 152.5703125 4.849609375 c 0
 230.536132812 4.3837890625 290.0625 4.849609375 353.780273438 4.849609375 c 0
 366.974609375 4.849609375 375.629882812 35.126953125 387.98046875 88.6396484375 c 1
 387.98046875 88.6396484375 l 1
 379.561523438 56.3310546875 373.774414062 35.7705078125 367.459960938 5.419921875 c 1
 263.60546875 5.419921875 150.555664062 5.419921875 81.3203125 5.419921875 c 1
 81.3203125 5.419921875 l 1
 115.235351562 5.0205078125 115.51953125 4.380859375 115.51953125 20.8095703125 c 1
 115.51953125 71.66015625 115.51953125 319.305664062 115.51953125 374.780273438 c 0
 115.51953125 388.159179688 115.33984375 388.154296875 75.6201171875 389.030273438 c 1
 75.6201171875 389.030273438 l 1
EndSplineSet
EndChar

StartChar: f.pcap
Encoding: 65573 -1 650
Width: 446
VWidth: 1159
Flags: HW
HStem: -5.91016 22.9825<64.1621 84.3336> 186.35 27.987<174.2 297.49> 374.123 20.518<53.6328 85.7743> 387.355 20G<352.946 370.807>
VStem: 103.567 69.304<36.7848 186.35 214.337 364.086> 318.66 23.107<131.986 167.294 239.369 264.909> 348.485 20.517<297.745 329.862 401.111 402.897>
LayerCount: 2
Fore
SplineSet
187.9296875 -2.5595703125 m 1xde
 149.166015625 12.259765625 131.4453125 12.259765625 84.1904296875 0.2900390625 c 1
 84.1904296875 0.2900390625 l 1
 120.099609375 10.5498046875 120.099609375 4.615234375 120.099609375 22.51953125 c 1
 120.099609375 72.7978515625 120.099609375 317.651367188 120.099609375 372.5 c 0
 120.099609375 387.958007812 119.640625 387.9453125 73.9296875 389.030273438 c 1
 73.9296875 389.030273438 l 1xee
 180.553710938 386.75 338.079101562 389.030273438 341.830078125 392.450195312 c 1
 352.66015625 386.956054688 348.669921875 383.384765625 349.240234375 346.849609375 c 1
 349.240234375 346.849609375 l 1
 347.530273438 394.16015625 356.147460938 391.221679688 324.73046875 390.169921875 c 0
 276.041992188 388.540039062 198.055664062 388.459960938 135.490234375 388.459960938 c 0
 122.846679688 388.459960938 120.073242188 388.46484375 120.099609375 367.370117188 c 0
 120.168945312 312.692382812 120.099609375 260.689453125 120.099609375 210.049804688 c 1
 174.646484375 210.049804688 287.147460938 210.049804688 299.080078125 210.049804688 c 0
 316.024414062 210.049804688 315.754882812 209.525390625 325.870117188 239.120117188 c 1
 325.870117188 239.120117188 l 1
 316.1796875 216.583007812 318.459960938 194.397460938 324.73046875 171.860351562 c 1
 324.73046875 171.860351562 l 1
 315.97265625 209.037109375 318.309570312 210.049804688 299.080078125 210.049804688 c 0
 261.7578125 210.049804688 198.987304688 210.049804688 120.099609375 210.049804688 c 1
 120.099609375 126.650390625 120.099609375 73.51171875 120.099609375 24.7998046875 c 0
 120.099609375 -8.830078125 120.099609375 24.7998046875 187.9296875 -2.5595703125 c 1
 187.9296875 -2.5595703125 l 1xde
EndSplineSet
EndChar

StartChar: g.pcap
Encoding: 65574 -1 651
Width: 548
VWidth: 1159
Flags: HW
HStem: -5.66797 27.3799<253.573 365.873> 383.816 28.5996<232.932 357.943>
VStem: 56.5967 83.7168<123.612 291.688> 396.628 71.5527<44.5193 178.581> 437.751 20.5176<299.387 313.65>
LayerCount: 2
Fore
SplineSet
78.5 205.490234375 m 3xec
 78.5 348.411132812 208.6796875 406.700195312 291.110351562 406.700195312 c 3xec
 342.603515625 406.700195312 392.044921875 401.217773438 421.0703125 370.219726562 c 0
 437.08984375 353.111328125 440.150390625 341.927734375 433.040039062 403.849609375 c 1
 433.040039062 403.849609375 l 1
 442.73046875 310.370117188 l 1
 442.73046875 310.370117188 l 1xda
 441.400390625 328.610351562 446.834960938 406.700195312 291.110351562 406.700195312 c 3
 187.112304688 406.700195312 78.5 332.161132812 78.5 205.490234375 c 3
 78.5 92.6298828125 168.530273438 0.2900390625 302.509765625 0.2900390625 c 3
 330.985351562 0.2900390625 396.776367188 10.8896484375 441.58984375 17.3896484375 c 0
 450.921875 18.744140625 450.709960938 18.2080078125 450.709960938 39.0498046875 c 0
 450.709960938 68.935546875 450.709960938 118.482421875 450.709960938 163.309570312 c 0
 450.709960938 196.370117188 451.3515625 194.750976562 419.360351562 194.66015625 c 0
 390.615234375 194.579101562 369.9921875 196.370117188 341.26953125 199.219726562 c 1
 341.26953125 199.219726562 l 1
 391.672851562 193.51953125 447.016601562 194.08984375 471.23046875 197.509765625 c 1
 471.23046875 197.509765625 l 1
 450.797851562 195.116210938 450.709960938 196.154296875 450.709960938 179.83984375 c 0
 450.709960938 125.2265625 450.858398438 75.7255859375 450.709960938 36.2001953125 c 0
 450.64453125 18.7978515625 452.114257812 19.216796875 464.959960938 20.8095703125 c 1
 464.959960938 20.8095703125 l 1
 421.75 14.947265625 332.046875 0.2900390625 302.509765625 0.2900390625 c 3
 176.400390625 0.2900390625 78.5 86.0703125 78.5 205.490234375 c 3xec
EndSplineSet
EndChar

StartChar: h.pcap
Encoding: 65575 -1 652
Width: 584
VWidth: 1159
Flags: HW
HStem: -9.52734 21G<374.397 398.917> -7.95996 23.0508<52.1693 73.5435 185.361 217.797 503.01 528.587> 186.323 27.501<171.585 420.307> 378.489 24.8721<53.1371 88.1347 185.834 222.389 373.337 404.007>
LayerCount: 2
Fore
SplineSet
74.5 393.01953125 m 1xd6
 103.682617188 386.75 127.09765625 383.900390625 161.709960938 390.740234375 c 1
 161.709960938 390.740234375 l 1xe6
 117.060546875 381.379882812 116.6796875 392.293945312 116.6796875 378.76953125 c 0
 116.6796875 355.362304688 116.6796875 273.119140625 116.6796875 206.059570312 c 1
 468.940429688 206.059570312 l 1
 468.940429688 250.4453125 469.995117188 301.270507812 468.940429688 366.23046875 c 0
 468.405273438 399.860351562 468.63671875 377.059570312 425.620117188 393.01953125 c 1
 425.620117188 393.01953125 l 1xd6
 453.834960938 383.900390625 470.69921875 383.900390625 500.860351562 397.009765625 c 1
 500.860351562 397.009765625 l 1xce
 468.79296875 380.509765625 468.938476562 396.033203125 468.940429688 373.639648438 c 0
 468.943359375 296.048828125 468.19921875 72.140625 468.940429688 15.1103515625 c 4
 469.166015625 -2.6171875 468.940429688 12.259765625 504.849609375 -1.419921875 c 5
 504.849609375 -1.419921875 l 5
 481.548828125 7.1298828125 456.935546875 8.26953125 429.040039062 -3.1298828125 c 5
 429.040039062 -3.1298828125 l 5
 468.940429688 10.5498046875 468.940429688 -0.54296875 468.940429688 20.240234375 c 4
 468.940429688 89.576171875 468.940429688 133.256835938 468.940429688 206.059570312 c 1
 116.6796875 206.059570312 l 1
 116.6796875 143.145507812 116.6796875 69.8720703125 116.6796875 20.8095703125 c 4
 116.6796875 -0.76171875 116.110351562 9.98046875 159.4296875 -2.5595703125 c 5
 159.4296875 -2.5595703125 l 5
 127.215820312 6.5595703125 102.719726562 8.26953125 76.2099609375 -1.419921875 c 5
 76.2099609375 -1.419921875 l 5
 116.110351562 13.400390625 116.110351562 -5.41015625 116.6796875 20.8095703125 c 4
 118.377929688 97.46875 115.986328125 323.977539062 116.6796875 375.919921875 c 0
 116.87109375 390.540039062 116.40625 384.153320312 74.5 393.01953125 c 1
 74.5 393.01953125 l 1xd6
EndSplineSet
EndChar

StartChar: i.pcap
Encoding: 65576 -1 653
Width: 331
VWidth: 1159
Flags: HW
HStem: -6.56641 26.1846<56.4055 101.954> 372.891 27.752<59.5411 109.06>
VStem: 57.2832 202.17
LayerCount: 2
Fore
SplineSet
73.2197265625 398.150390625 m 1
 139.33984375 386.1796875 176.959960938 387.889648438 247.0703125 396.440429688 c 9
 248.209960938 396.440429688 l 1
 164.134765625 383.615234375 164.48828125 407.55078125 161 353.120117188 c 1
 160.754882812 268.705078125 160.834960938 127.166992188 160.4296875 22.51953125 c 1
 162.044921875 -4.650390625 159.575195312 9.6953125 247.639648438 -2.5595703125 c 9
 247.639648438 -2.5595703125 l 1
 190.0703125 5.8115234375 119.959960938 4.890625 70.3701171875 -3.1298828125 c 1
 70.3701171875 -3.1298828125 l 1
 160.71484375 8.5546875 158.916015625 -5.1669921875 160.4296875 28.7900390625 c 1
 161.077148438 113.311523438 160.9296875 270.944335938 161 351.98046875 c 5
 157.75390625 395.720703125 162.139648438 383.615234375 70.9404296875 398.150390625 c 9
 73.2197265625 398.150390625 l 1
EndSplineSet
EndChar

StartChar: j.pcap
Encoding: 65577 -1 654
Width: 316
VWidth: 1355
Flags: HW
HStem: 372.729 26.105<53.8711 99.9628>
VStem: 122.568 74.57<-62.9141 275.502>
LayerCount: 2
Fore
SplineSet
146.629882812 367.370117188 m 0
 146.701171875 397.915039062 146.629882812 375.919921875 85.0703125 393.01953125 c 1
 85.0703125 393.01953125 l 1
 129.728515625 381.049804688 155.13671875 384.469726562 202.490234375 393.01953125 c 1
 202.490234375 393.01953125 l 1
 147.200195312 382.190429688 146.629882812 388.846679688 146.629882812 368.509765625 c 0
 146.629882812 296.60546875 146.629882812 223.484375 146.629882812 130.25 c 3
 146.629882812 76.8984375 147.200195312 55.5625 147.200195312 37.91015625 c 3
 147.200195312 -38.298828125 136.761617329 -77.320828214 109.580078125 -101.740234375 c 0
 89.8505072804 -119.464926131 60.4350695206 -133.437030521 36 -144 c 1
 36 -144 l 1
 58.78892888 -134.786232778 78.3823513069 -123.455129239 93.4697265625 -113.849609375 c 0
 97.4104323789 -111.340721821 101.26831391 -109.591080848 104.450195312 -106.870117188 c 0
 144.771484375 -72.3896484375 146.629882812 -19.6884765625 146.629882812 39.0498046875 c 3
 146.629882812 62.412109375 146.579635399 345.840821341 146.629882812 367.370117188 c 0
EndSplineSet
EndChar

StartChar: k.pcap
Encoding: 65578 -1 655
Width: 491
VWidth: 1159
Flags: HW
HStem: -6.56641 20.3447<48.6875 73.7133 191.575 219.431> 375.852 20.5977<52.3848 78.3378 182.87 216.46 264.771 288.293 384.532 407.859>
VStem: 95.1924 68.2002<27.0142 170.655 245.78 368.209>
LayerCount: 2
Fore
SplineSet
275.139648438 387.889648438 m 1x28
 309.564453125 383.900390625 353.133789062 385.040039062 389.709960938 393.01953125 c 1
 389.709960938 393.01953125 l 1
 334.419921875 382.190429688 360.639648438 394.73046875 324.73046875 366.799804688 c 0
 253.96875 311.763671875 184.51953125 256.147460938 115.540039062 199.790039062 c 1
 340.690429688 40.759765625 l 0
 389.709960938 2 378.879882812 8.83984375 429.040039062 4.849609375 c 1
 429.040039062 4.849609375 l 1x68
 413.080078125 5.990234375 390.849609375 7.7001953125 374.889648438 7.7001953125 c 0
 358.189453125 7.7001953125 336.934570312 5.990234375 320.740234375 3.1396484375 c 1
 320.740234375 3.1396484375 l 1
 380.01953125 12.259765625 384.580078125 4.2802734375 361.780273438 24.23046875 c 0
 344.653320312 39.2158203125 195.784179688 142.630859375 115.540039062 199.790039062 c 1
 115.540039062 142.905273438 115.540039062 71.9755859375 115.540039062 33.349609375 c 0
 115.540039062 -4.296875 115.276367188 12.259765625 166.26953125 -0.2802734375 c 1
 166.26953125 -0.2802734375 l 1
 138.091796875 6.5595703125 108.815429688 9.41015625 72.2197265625 2.5703125 c 1
 72.2197265625 2.5703125 l 1
 115.489257812 12.2998046875 115.470703125 -4.025390625 115.540039062 28.7900390625 c 0
 115.76171875 133.508789062 115.811523438 245.9296875 116.110351562 351.41015625 c 0
 116.245117188 399.201171875 116.110351562 379.91015625 73.9296875 390.740234375 c 1
 73.9296875 390.740234375 l 1
 102.4296875 383.900390625 134.13671875 385.610351562 162.280273438 391.309570312 c 1
 162.280273438 391.309570312 l 1x98
 116.6796875 380.48046875 116.110351562 397.041992188 116.110351562 362.240234375 c 0
 116.110351562 307.874023438 116.110351562 256.09765625 115.540039062 199.790039062 c 1
 176.969726562 248.834960938 236.2734375 296.83203125 299.080078125 346.280273438 c 0
 321.483398438 363.918945312 336.29296875 374.279296875 337.26953125 381.620117188 c 0
 338.435546875 390.380859375 333.709960938 383.395507812 275.139648438 387.889648438 c 1
 275.139648438 387.889648438 l 1x28
EndSplineSet
EndChar

StartChar: l.pcap
Encoding: 65579 -1 656
Width: 465
VWidth: 1159
Flags: HW
HStem: -4.59668 28.0859<59.7842 90.0198> 0.587891 34.6445<181.572 340.673> 369.193 29.8018<55.1737 92.4492 185.106 232.682>
VStem: 100.52 72.7471<67.0997 363.83> 388.018 22.9824<89.3817 109.699>
LayerCount: 2
Fore
SplineSet
210.16015625 391.309570312 m 1xb8
 210.16015625 391.309570312 l 1
 116.96484375 375.178710938 116.6796875 396.194335938 116.6796875 346.280273438 c 0
 116.6796875 48.169921875 l 0
 116.6796875 4.8486328125 117.212890625 4.849609375 150.879882812 5.990234375 c 0
 174.338867188 5.419921875 290.229492188 5.7109375 307.059570312 5.419921875 c 0
 376.884765625 4.2119140625 372.89453125 -10.7109375 397.690429688 82.3701171875 c 1
 397.690429688 82.3701171875 l 1
 393.129882812 55.294921875 390.849609375 64.794921875 375.459960938 -3.1298828125 c 1
 362.919921875 0.4609375 359.5 4.0517578125 334.419921875 4.849609375 c 0
 328.150390625 4.849609375 277.419921875 6.5595703125 219.280273438 6.5595703125 c 0x78
 105.181640625 6.5595703125 86.607421875 1.4296875 80.76953125 1.4296875 c 1
 80.76953125 1.4296875 l 1
 116.241210938 4.28125 116.1953125 5.873046875 116.6796875 23.08984375 c 0
 116.6796875 25.7666015625 116.6796875 91.3525390625 116.6796875 173 c 0
 116.6796875 269.18359375 116.6796875 361.595703125 116.6796875 368.509765625 c 0
 116.6796875 393.276367188 116.169921875 379.649414062 76.7802734375 393.01953125 c 1
 76.7802734375 393.01953125 l 1
 119.264648438 381.049804688 172.615234375 385.040039062 210.16015625 391.309570312 c 1xb8
EndSplineSet
EndChar

StartChar: m.pcap
Encoding: 65580 -1 657
Width: 648
VWidth: 1159
Flags: HW
HStem: -6.56641 26.5195<42.204 86.2866 162.423 202.403 412.047 452.632> 377.833 28.4082<49.9604 98.5728 551.364 588.655>
VStem: 104.824 40.3398<79.1084 279.542> 292.358 29.4043<3.74121 55.1367> 469.391 62.8096<84.0046 286.745 347.435 370.37>
LayerCount: 2
Fore
SplineSet
576.0703125 5.990234375 m 1x2e
 545.088867188 13.9697265625 506.865234375 14.5400390625 466.629882812 4.2802734375 c 1
 466.629882812 4.2802734375 l 1x6e
 524.200195312 19.099609375 525.063476562 -2.974609375 523.629882812 57.2900390625 c 0
 520.983398438 168.555664062 517.9296875 277.508789062 515.650390625 381.049804688 c 1
 465.916015625 286.979492188 413.313476562 190.920898438 358.330078125 89.2099609375 c 0
 344.708007812 64.01171875 327.943359375 31.6396484375 314.440429688 7.1298828125 c 1
 314.440429688 7.1298828125 l 1
 305.3203125 29.9296875 288.850585938 67.5615234375 275.6796875 94.33984375 c 2
 138.309570312 373.639648438 l 1
 133.586914062 270.715820312 127.493164062 161.190429688 121.780273438 49.3095703125 c 0
 119.020507812 -4.7412109375 120.0703125 10.5498046875 176.5 -0.2802734375 c 1
 176.5 -0.2802734375 l 1
 143.658203125 5.990234375 99.5693359375 8.83984375 59.080078125 -0.2802734375 c 1
 59.080078125 -0.2802734375 l 1
 119.5 10.5498046875 118.5703125 -5.2080078125 121.209960938 44.75 c 2
 136.599609375 336.01953125 l 2
 137.744140625 357.6796875 141.702148438 387.158203125 124.629882812 390.169921875 c 0
 115.041015625 391.861328125 101.723632812 393.084960938 67.6298828125 397.009765625 c 1
 67.6298828125 397.009765625 l 1x9e
 83.9853515625 394.774414062 103.15234375 393.01953125 121.209960938 390.740234375 c 0
 131.389648438 389.455078125 133.377929688 383.162109375 136.599609375 376.490234375 c 0
 197.719726562 249.94140625 262.935546875 127.46484375 314.440429688 7.1298828125 c 1
 516.790039062 383.330078125 l 0
 519.639648438 388.459960938 524.72265625 390.169921875 528.190429688 390.169921875 c 0
 542.889648438 390.169921875 559.08984375 390.169921875 573.790039062 392.450195312 c 1
 573.790039062 392.450195312 l 1
 516.219726562 383.900390625 514.954101562 405.470703125 516.219726562 351.98046875 c 0
 518.602539062 251.3359375 521.524414062 150.712890625 523.629882812 53.8701171875 c 0
 524.76953125 1.4296875 524.200195312 17.9599609375 576.0703125 5.990234375 c 1
 576.0703125 5.990234375 l 1x2e
EndSplineSet
EndChar

StartChar: n.pcap
Encoding: 65581 -1 658
Width: 564
VWidth: 1159
Flags: HW
HStem: -9.68848 21G<175.92 206.616> -6.56641 28.9727<47.6191 85.8788> 384.584 25.2744<377.511 418.246 495.265 519.797>
VStem: 95.8086 41.3701<41.9182 308.676> 439.42 30.418<130.871 238.18> 452.616 24.2949<-5.99538 11.9605>
LayerCount: 2
Fore
SplineSet
57.3798828125 393.01953125 m 1xcc
 68.4951171875 391.309570312 83.310546875 390.169921875 95 389.599609375 c 0
 103.540039062 389.18359375 104.17578125 387.375 108.110351562 383.330078125 c 0
 228.950195312 259.0703125 343.51953125 134.809570312 461.509765625 3.7099609375 c 1
 461.509765625 111.735351562 461.379882812 219.659179688 461.509765625 333.740234375 c 0
 461.5859375 400.336914062 461.509765625 386.75 393.6796875 398.150390625 c 1
 393.6796875 398.150390625 l 1xac
 436.358398438 390.169921875 467.903320312 390.740234375 500.83984375 393.01953125 c 1
 500.83984375 393.01953125 l 1
 474.796875 390.045898438 461.45703125 391.162109375 461.509765625 370.219726562 c 0
 461.7734375 267.059570312 461.509765625 159.170898438 461.509765625 54.4404296875 c 0
 461.509765625 40.873046875 461.509765625 17.27734375 461.509765625 3.7099609375 c 1
 461.509765625 3.7099609375 l 1
 447.301757812 19.689453125 424.52734375 45.099609375 406.219726562 65.26953125 c 0
 309.150390625 172.217773438 210.212890625 276.82421875 109.25 382.190429688 c 1xcc
 109.25 70.9697265625 l 2
 109.25 -30.474609375 109.25 26.509765625 195.889648438 -3.1298828125 c 1
 195.889648438 -3.1298828125 l 1
 144.392578125 14.5400390625 99.94140625 3.7099609375 63.080078125 -0.2802734375 c 1
 63.080078125 -0.2802734375 l 1
 107.540039062 6.5595703125 109.25 -1.490234375 109.25 36.2001953125 c 0xd4
 109.25 136.509765625 109.25 242.569335938 109.25 347.990234375 c 0
 109.25 398.150390625 114.379882812 386.1796875 57.3798828125 393.01953125 c 1
 57.3798828125 393.01953125 l 1xcc
EndSplineSet
EndChar

StartChar: o.pcap
Encoding: 65582 -1 659
Width: 589
VWidth: 1159
Flags: HW
HStem: -4.67676 36.2852<246.986 376.4> 377.726 35.2666<208.211 328.755>
VStem: 62.1523 77.6943<147.048 285.958> 434.492 83.5078<110.981 270.329>
LayerCount: 2
Fore
SplineSet
293.540039062 407.26953125 m 3
 175.979492188 407.26953125 80.9296875 308.090820312 80.9296875 200.360351562 c 3
 80.9296875 96.8701171875 169.5703125 1.4296875 294.6796875 1.4296875 c 3
 417.80078125 1.4296875 499.879882812 94.9619140625 499.879882812 200.360351562 c 3
 499.879882812 316.078125 406.694335938 407.26953125 293.540039062 407.26953125 c 3
293.540039062 407.26953125 m 3
 407.744140625 407.26953125 499.879882812 314.188476562 499.879882812 200.360351562 c 3
 499.879882812 90.5283203125 412.725585938 1.4296875 294.6796875 1.4296875 c 3
 176.482421875 1.4296875 80.9296875 89.9677734375 80.9296875 200.360351562 c 3
 80.9296875 310.82421875 177.5703125 407.26953125 293.540039062 407.26953125 c 3
EndSplineSet
EndChar

StartChar: p.pcap
Encoding: 65583 -1 660
Width: 454
VWidth: 1159
Flags: HW
HStem: -10.5986 24.3877<54.8303 72.329> -6.56641 29.8945<181.382 229.625> 137.215 22.421<171.622 250.081> 366.889 27.257<44.4043 90.4189> 374.598 17.082<172.148 239.359>
VStem: 100.282 71.34<28.9752 139.505 159.766 361.71> 304.887 76.668<198.808 328.194>
LayerCount: 2
Fore
SplineSet
194.030273438 139.940429688 m 3xd6
 279.82421875 139.940429688 361.610351562 180.4609375 361.610351562 266.48046875 c 3
 361.610351562 314.2421875 333.881835938 343.822265625 298.91015625 369.080078125 c 0
 279.323242188 383.2265625 251.030273438 392.450195312 215.120117188 392.450195312 c 3
 169.798828125 392.450195312 111.126953125 381.391601562 111.950195312 368.509765625 c 0xda
 114.557617188 321.154296875 114.514648438 238.65234375 117.080078125 155.900390625 c 1
 140.923828125 143.9296875 164.767578125 139.940429688 194.030273438 139.940429688 c 3xd6
69.2001953125 388.459960938 m 1xea
 82.2236328125 387.3203125 99.2548828125 386.1796875 118.790039062 386.1796875 c 3
 156.577148438 386.1796875 177.333007812 392.450195312 215.120117188 392.450195312 c 3
 304.974609375 392.450195312 361.610351562 326.967773438 361.610351562 266.48046875 c 3
 361.610351562 199.219726562 305.75 139.940429688 194.030273438 139.940429688 c 3
 164.532226562 139.940429688 139.309570312 144.5 117.080078125 155.900390625 c 1
 117.080078125 106.514648438 117.080078125 52.16796875 117.650390625 29.9296875 c 0
 117.650390625 -3.90234375 123.349609375 16.8203125 171.799804688 -0.2802734375 c 1
 171.799804688 -0.2802734375 l 1
 135.478515625 9.98046875 119.913085938 11.6904296875 81.169921875 -4.26953125 c 1
 81.169921875 -4.26953125 l 1
 111.651367188 7.5 117.647460938 0.546875 117.650390625 32.7802734375 c 0xd6
 117.659179688 125.297851562 115.72265625 262.096679688 112.51953125 367.940429688 c 0
 111.966796875 386.203125 112.388671875 386.75 67.490234375 387.3203125 c 1
 69.2001953125 388.459960938 l 1xea
EndSplineSet
EndChar

StartChar: q.pcap
Encoding: 65584 -1 661
Width: 564
VWidth: 1187
Flags: HW
HStem: -150.849 45.0264<519.002 707.554> 387.413 25.0029<210.376 313.492>
VStem: 66.252 79.2119<133.813 305.67> 405.267 81.7812<119.857 294.903>
LayerCount: 2
Fore
SplineSet
273.58984375 406.700195312 m 3
 162.735351562 406.700195312 83.2099609375 326.55859375 83.2099609375 210.049804688 c 3
 83.2099609375 103.311523438 159.60546875 2.5703125 282.139648438 2.5703125 c 3
 391.713867188 2.5703125 467.389648438 89.2060546875 467.389648438 211.190429688 c 3
 467.389648438 334.76171875 364.967773438 406.700195312 273.58984375 406.700195312 c 3
295.25 2.5703125 m 1
 430.44921875 -57.57421875 485.416992188 -130.240234375 609.3203125 -130.240234375 c 3
 670.208007812 -130.240234375 740.473632812 -111.081054688 764.9296875 -95.4697265625 c 1
 764.9296875 -95.4697265625 l 1
 744.46484375 -105.94921875 670.7109375 -130.240234375 609.3203125 -130.240234375 c 3
 492.32421875 -130.240234375 433.826171875 -61.5068359375 295.25 2.5703125 c 1
 161.791992188 -4.26953125 83.2099609375 97.8984375 83.2099609375 210.049804688 c 3
 83.2099609375 332.74609375 168.49609375 406.700195312 273.58984375 406.700195312 c 3
 379.298828125 406.700195312 467.389648438 323.23046875 467.389648438 211.190429688 c 3
 467.389648438 117.741210938 413.224609375 9.3349609375 295.25 2.5703125 c 1
EndSplineSet
EndChar

StartChar: r.pcap
Encoding: 65585 -1 662
Width: 528
VWidth: 1159
Flags: HW
HStem: -19.4922 24.1348<440.728 488.323> -6.64746 28.3281<59.4863 93.8987 187.39 220.647> 187.868 27.2793<170.981 223.708> 371.002 24.1338<52.7471 92.0511> 381.646 24.4346<184.127 252.133>
VStem: 99.792 71.1895<30.229 187.868 215.147 367.283> 304.484 74.6406<239.885 343.529>
LayerCount: 2
Fore
SplineSet
122.66015625 210.049804688 m 1x2e
 162.139648438 209.48046875 182.360351562 207.76953125 221.83984375 207.76953125 c 3
 340.725585938 207.76953125 364.33984375 267.178710938 364.33984375 302.959960938 c 3
 364.33984375 340.028320312 325.232421875 398.719726562 232.669921875 398.719726562 c 3
 197.87109375 398.719726562 122.66015625 387.166015625 122.66015625 378.76953125 c 0
 122.66015625 325.783203125 122.66015625 263.037109375 122.66015625 210.049804688 c 1x2e
82.1904296875 389.599609375 m 1x76
 97.8681640625 389.030273438 106.982421875 388.459960938 122.66015625 388.459960938 c 3
 165.544921875 388.459960938 183.569335938 398.719726562 232.669921875 398.719726562 c 3
 304.736328125 398.719726562 364.33984375 355.98828125 364.33984375 302.959960938 c 3
 364.33984375 256.750976562 331.280273438 219.740234375 259.459960938 209.48046875 c 1
 320.208007812 76.0205078125 384.797851562 -12.0751953125 469.219726562 -13.3896484375 c 1
 469.219726562 -13.3896484375 l 1xae
 381.573242188 -16.51953125 306.727539062 103.052734375 259.459960938 209.48046875 c 1
 245.352539062 207.76953125 232.8125 207.76953125 221.83984375 207.76953125 c 3
 183.075195312 207.76953125 161.38671875 208.91015625 122.66015625 209.48046875 c 1
 122.66015625 140.5234375 122.828125 90.986328125 122.66015625 32.7802734375 c 0
 122.548828125 -5.7861328125 122.66015625 16.8203125 164.83984375 -0.2802734375 c 1
 164.83984375 -0.2802734375 l 1
 139.485351562 9.41015625 114.130859375 10.5498046875 88.4599609375 1.4296875 c 1
 88.4599609375 1.4296875 l 1
 122.66015625 13.400390625 122.66015625 -0.849609375 122.66015625 25.9404296875 c 1
 123.043945312 172.889648438 123.061523438 229.052734375 122.66015625 367.370117188 c 1
 122.948242188 388.848632812 123.013671875 388.158203125 82.1904296875 389.599609375 c 1
 82.1904296875 389.599609375 l 1x76
EndSplineSet
EndChar

StartChar: s.pcap
Encoding: 65586 -1 663
Width: 435
VWidth: 1159
Flags: HW
HStem: -6.32422 31.0566<160.899 271.688> 384.129 24.8311<174.521 272.438>
VStem: 59.124 24.2441<89.4071 119.203> 72.3828 21.1738<-0.40332 6.53268> 78.2148 65.7725<264.338 350.96> 296.743 66.2568<45.4187 137.196>
LayerCount: 2
Fore
SplineSet
76.7802734375 105.740234375 m 1xd0
 76.7802734375 105.740234375 l 1
 99.2080078125 28.2236328125 92.2216796875 30.1708984375 106.419921875 22.51953125 c 0
 129.049804688 10.326171875 178.026367188 -0.2802734375 213.009765625 -0.2802734375 c 3
 315.045898438 -0.2802734375 346.959960938 54.1357421875 346.959960938 96.0498046875 c 3
 346.959960938 143.740234375 303.2734375 179.470703125 218.139648438 204.349609375 c 0
 142.98046875 226.315429688 97.8701171875 235.297851562 97.8701171875 305.240234375 c 3
 97.8701171875 351.809570312 140.125 403.280273438 228.969726562 403.280273438 c 3xd6
 266.642578125 403.280273438 298.319335938 391.594726562 312.759765625 386.1796875 c 0
 321.879882812 382.759765625 327.580078125 375.919921875 337.83984375 393.01953125 c 1xb6
 337.83984375 393.01953125 l 1
 334.419921875 345.166015625 329.543945312 340.060546875 339.549804688 308.08984375 c 0
 339.549804688 308.08984375 l 1
 325.240234375 344.786132812 342.83203125 363.702148438 327.009765625 377.059570312 c 0
 313.280273438 388.651367188 272.674804688 403.280273438 228.969726562 403.280273438 c 3
 192.533203125 403.280273438 97.8701171875 386.709960938 97.8701171875 305.240234375 c 3xc5
 97.8701171875 239.88671875 135.912109375 226.2421875 218.139648438 204.349609375 c 0
 326.465820312 175.509765625 346.959960938 125.479492188 346.959960938 96.0498046875 c 3
 346.959960938 55.7021484375 317.1328125 -0.2802734375 213.009765625 -0.2802734375 c 3
 180.698242188 -0.2802734375 146.692382812 5.4443359375 117.25 17.9599609375 c 0
 93.11328125 28.2197265625 94.548828125 28.2197265625 92.169921875 5.419921875 c 1
 92.169921875 5.419921875 l 1xca
 92.7197265625 41.1005859375 91.0703125 50.4091796875 76.7802734375 105.740234375 c 1xd0
EndSplineSet
EndChar

StartChar: t.pcap
Encoding: 65587 -1 664
Width: 492
VWidth: 1159
Flags: HW
HStem: -13.0635 32.3594<143.255 195.791> 356.938 36.833<78.4714 207.69 290.969 412.151> 381.541 28.882G<64.7353 74.521 438.326 457>
LayerCount: 2
Fore
SplineSet
91.5703125 387.889648438 m 0xa0
 204.223632812 387.784179688 316.858398438 387.3203125 430.150390625 387.3203125 c 0
 436.389648438 387.3203125 442.240234375 388.231445312 444.969726562 389.599609375 c 1
 444.969726562 389.599609375 l 1
 436.990234375 369.080078125 427.299804688 346.280273438 426.16015625 319.490234375 c 1
 426.16015625 319.490234375 l 1
 428.200195312 340.580078125 428.631835938 345.966796875 442.120117188 382.759765625 c 0
 443.614257812 386.8359375 441.295898438 387.3203125 247.1796875 387.3203125 c 1
 247.1796875 271.229492188 247.12890625 157.702148438 247.1796875 39.0498046875 c 0
 247.202148438 -11.587890625 247.1796875 16.8203125 333.8203125 -0.849609375 c 1
 333.8203125 -0.849609375 l 1
 284.799804688 10.5498046875 203.290039062 6.5595703125 157.120117188 -6.5498046875 c 1
 157.120117188 -6.5498046875 l 1
 247.1796875 15.6796875 247.1796875 -8.5888671875 247.1796875 24.7998046875 c 0
 247.1796875 103.693359375 247.1796875 346.895507812 247.1796875 387.3203125 c 1xa0
 197.504882812 387.3203125 148.896484375 387.889648438 101.259765625 387.889648438 c 0
 64.3330078125 387.889648438 77.5498046875 387.889648438 47.1103515625 327.469726562 c 1
 47.1103515625 327.469726562 l 1
 58.509765625 348.747070312 75.0400390625 391.846679688 81.3095703125 403.849609375 c 1x60
 74.001953125 387.889648438 73.3798828125 387.907226562 91.5703125 387.889648438 c 0xa0
EndSplineSet
EndChar

StartChar: u.pcap
Encoding: 65588 -1 665
Width: 569
VWidth: 1159
Flags: HW
HStem: -6.32422 38.3193<209.793 379.971> 370.506 25.9434<49.1221 91.4305 184.262 228.194 476.24 521.102>
VStem: 97.4258 71.7637<67.9692 317.161> 424.758 38.1787<73.1868 350.523>
LayerCount: 2
Fore
SplineSet
73.349609375 390.740234375 m 1xd0
 91.8232421875 386.75 132.771484375 386.75 157.709960938 390.740234375 c 1
 157.709960938 390.740234375 l 1
 114.016601562 385.040039062 114.263671875 387.889648438 113.8203125 354.830078125 c 0xd0
 113.76171875 350.494140625 110.969726562 167.947265625 110.969726562 147.919921875 c 0
 110.969726562 104.615234375 122.318359375 67.18359375 152.580078125 40.759765625 c 0
 174.748046875 14.2412109375 213.834960938 -0.2802734375 276.83984375 -0.2802734375 c 3
 298.35546875 -0.2802734375 367.041015625 0.5751953125 414.209960938 47.599609375 c 0
 438.3671875 70.47265625 449.135742188 109.893554688 450.120117188 147.349609375 c 0xe8
 451.5546875 206.475585938 453.642578125 303.200195312 454.110351562 362.809570312 c 0
 454.374023438 396.5859375 454.110351562 381.620117188 410.790039062 390.740234375 c 1
 410.790039062 390.740234375 l 1
 427.984375 386.75 476.58984375 384.469726562 487.169921875 389.599609375 c 1
 487.169921875 389.599609375 l 1
 454.124023438 379.270507812 454.110351562 398.583984375 454.110351562 368.509765625 c 0xc4
 454.110351562 361.733398438 452.969726562 289.040039062 450.120117188 147.349609375 c 0
 449.583984375 104.9140625 436.720703125 71.2978515625 414.209960938 47.599609375 c 0
 384.538085938 15.1103515625 337.83203125 -0.2802734375 276.83984375 -0.2802734375 c 3
 218.333984375 -0.2802734375 177.431640625 14.5400390625 152.580078125 40.759765625 c 0
 123.518554688 66.6259765625 110.969726562 102.961914062 110.969726562 147.919921875 c 0xe8
 110.969726562 165.5 113.8203125 347.75 113.8203125 356.540039062 c 0
 113.8203125 387.971679688 113.978515625 385.244140625 73.349609375 390.740234375 c 1
 73.349609375 390.740234375 l 1xd0
EndSplineSet
EndChar

StartChar: v.pcap
Encoding: 65589 -1 666
Width: 568
VWidth: 1159
Flags: HW
HStem: 374.123 20.792<39.2647 67.4909 168.045 209.199 377.926 414.003 495.88 525.325>
VStem: 265.175 30.749<-21.6221 26.4169>
LayerCount: 2
Fore
SplineSet
144.440429688 390.169921875 m 1
 144.440429688 390.169921875 l 1
 129.278320312 389.030273438 118.96875 387.731445312 111.950195312 386.75 c 0
 94.2802734375 384.280273438 93.4306640625 386.946289062 102.259765625 368.509765625 c 2
 283.51953125 -9.9697265625 l 1
 453.950195312 366.23046875 l 2
 463.87109375 388.129882812 467.669921875 387.889648438 442.549804688 389.030273438 c 0
 439.198242188 389.181640625 415.706054688 393.58984375 412.91015625 393.58984375 c 1
 412.91015625 393.58984375 l 1
 444.431640625 385.040039062 490.885742188 386.75 510.379882812 393.58984375 c 1
 510.379882812 393.58984375 l 1
 462.958984375 379.91015625 469.524414062 401.866210938 451.669921875 361.099609375 c 0
 441.873046875 338.73046875 350.24609375 136.807617188 305.75 39.6201171875 c 0
 298.614257812 24.033203125 289.985351562 5.419921875 283.51953125 -9.9697265625 c 1
 283.51953125 -9.9697265625 l 1
 276.19140625 5.419921875 271.076171875 16.291015625 260.719726562 37.91015625 c 0
 228.97265625 104.182617188 160.409179688 245.1640625 105.110351562 363.950195312 c 0
 93.2490234375 389.428710938 97.525390625 380.008789062 50.3896484375 391.309570312 c 1
 50.3896484375 391.309570312 l 1
 90.1240234375 381.049804688 103.612304688 387.3203125 144.440429688 390.169921875 c 1
EndSplineSet
EndChar

StartChar: w.pcap
Encoding: 65590 -1 667
Width: 720
VWidth: 1159
Flags: HW
HStem: -9.94141 21G<466.738 488.395> 377.366 23.293<183.943 212.214 262.861 292.197 397.092 446.03 656.434 677.117>
VStem: 259.773 23.5693<-12.6602 25.9001> 467.073 21.3213<-9.2041 22.3598>
LayerCount: 2
Fore
SplineSet
674.400390625 393.58984375 m 1xb0
 674.400390625 393.58984375 l 1
 639.77734375 386.126953125 644.130859375 395.579101562 619.6796875 334.309570312 c 0
 534.918945312 121.913085938 509.5078125 55.7216796875 499.41015625 29.3603515625 c 0
 494.296875 16.009765625 492 9.41015625 487.440429688 -3.1298828125 c 1
 487.440429688 -3.1298828125 l 1
 483.877929688 6.298828125 480.598632812 14.5849609375 473.190429688 35.6298828125 c 0
 444.092773438 118.286132812 412.177734375 200.9296875 382.559570312 283.580078125 c 1
 311.919921875 105.077148438 289.404296875 43.46484375 278.25 18.5302734375 c 0
 273.021484375 6.8408203125 270.26953125 -0.2802734375 267.419921875 -6.5498046875 c 1
 267.419921875 -6.5498046875 l 1
 263.466796875 4.228515625 257.565429688 16.3564453125 242.33984375 52.73046875 c 0
 177.407226562 207.8515625 125.643554688 331.705078125 120.9296875 342.290039062 c 0
 117.912109375 349.067382812 114.815429688 354.625 107.8203125 374.209960938 c 0
 100.521484375 394.64453125 89.2734375 379.766601562 55.3798828125 394.73046875 c 1
 55.3798828125 394.73046875 l 1x70
 79.3896484375 382.759765625 130.119140625 383.330078125 156.83984375 393.58984375 c 1
 156.83984375 393.58984375 l 1
 121.453125 381.200195312 106.6796875 390.37890625 106.6796875 381.049804688 c 3
 106.6796875 376.490234375 116.387695312 353.331054688 121.5 341.150390625 c 2
 267.419921875 -6.5498046875 l 1
 382.559570312 283.580078125 l 1
 356.893554688 353.362304688 352.16796875 365.381835938 347.219726562 378.200195312 c 0
 341.931640625 391.8984375 344.940429688 382.759765625 306.1796875 391.879882812 c 1
 306.1796875 391.879882812 l 1
 332.232421875 385.610351562 372.014648438 384.469726562 401.940429688 393.58984375 c 1
 401.940429688 393.58984375 l 1
 398.740234375 392.022460938 374.498046875 387.93359375 368.879882812 387.3203125 c 0
 347.790039062 385.015625 342.977539062 391.24609375 352.349609375 365.66015625 c 2
 487.440429688 -3.1298828125 l 1
 535.009765625 120.932617188 596.01171875 274.5 625.950195312 350.83984375 c 0
 645.599609375 400.9453125 638.198242188 381.9453125 571.799804688 390.740234375 c 1
 571.799804688 390.740234375 l 1
 595.767578125 386.75 634.033203125 385.610351562 674.400390625 393.58984375 c 1xb0
EndSplineSet
EndChar

StartChar: x.pcap
Encoding: 65591 -1 668
Width: 536
VWidth: 1159
Flags: HW
HStem: -0.806641 24.7109<177.68 212.974 458.226 489.403> 382.011 17.7178<47.4873 70.5438 201.107 223.314 295.207 309.292 445.836 460.234>
LayerCount: 2
Fore
SplineSet
73.7802734375 389.030273438 m 5x90
 139.900390625 385.610351562 94.8701171875 384.469726562 155.290039062 393.01953125 c 5
 155.290039062 393.01953125 l 5
 151.870117188 392.450195312 142.087890625 391.291992188 133.629882812 390.169921875 c 4
 119.224609375 388.259765625 117.625 379.864257812 124.509765625 371.9296875 c 6
 270.4296875 203.780273438 l 5
 302.4609375 247.9765625 366.094726562 334.431640625 382.150390625 355.969726562 c 4
 405.51953125 387.3203125 405.698242188 384.98046875 377.58984375 386.75 c 4
 373.9921875 386.9765625 351.940429688 388.459960938 348.51953125 389.599609375 c 5
 348.51953125 389.599609375 l 5
 396.400390625 384.469726562 404.950195312 385.610351562 452.830078125 391.309570312 c 5
 452.830078125 391.309570312 l 5
 402.099609375 385.610351562 407.799804688 390.169921875 391.26953125 367.940429688 c 4
 383.278320312 357.192382812 352.623046875 315.100585938 270.4296875 203.780273438 c 5
 301.780273438 167.217773438 407.732421875 44.91796875 419.200195312 32.2099609375 c 4
 440.290039062 8.83984375 432.879882812 13.9697265625 475.629882812 5.419921875 c 5
 475.629882812 5.419921875 l 5x60
 436.299804688 13.400390625 424.900390625 11.1201171875 383.290039062 2 c 5
 383.290039062 2 l 5
 389.559570312 4.849609375 402.3671875 6.7197265625 409.509765625 7.7001953125 c 4
 438.580078125 11.6904296875 439.719726562 7.7001953125 413.5 38.48046875 c 4
 392.442382812 63.19921875 312.040039062 154.13671875 270.4296875 203.780273438 c 5
 232.240234375 153.666015625 161.514648438 61.021484375 136.48046875 29.3603515625 c 4
 117.099609375 4.849609375 116.35546875 6.1650390625 144.459960938 4.2802734375 c 4
 152.442382812 3.744140625 166.120117188 3.1396484375 171.8203125 2.5703125 c 5
 171.8203125 2.5703125 l 5
 119.379882812 5.990234375 125.080078125 7.7001953125 77.2001953125 1.4296875 c 5
 77.2001953125 1.4296875 l 5
 117.099609375 6.5595703125 113.67578125 2.7265625 135.33984375 28.2197265625 c 4
 142.75 36.939453125 171.25 74.1474609375 270.4296875 203.780273438 c 5
 151.870117188 340.197265625 131.700195312 363.573242188 124.509765625 371.9296875 c 4
 111.0546875 387.567382812 108.549804688 387.3203125 73.7802734375 389.030273438 c 5
 73.7802734375 389.030273438 l 5x90
EndSplineSet
EndChar

StartChar: y.pcap
Encoding: 65592 -1 669
Width: 516
VWidth: 1159
Flags: HW
HStem: -10.6787 27.0137<170.569 207.29 323.346 363.58> 374.232 25.6895<35.3949 72.2345 191.676 206.54 305.486 343.412 427.91 469>
VStem: 231.261 67.6299<31.4137 177.802>
LayerCount: 2
Fore
SplineSet
148.719726562 393.58984375 m 1
 148.719726562 393.58984375 141.940429688 390.825195312 137.3203125 390.740234375 c 0
 106.436523438 390.169921875 110.354492188 386.614257812 119.080078125 375.349609375 c 0
 195.233398438 277.045898438 261.6328125 197.26171875 265.5703125 193.51953125 c 1
 322.9921875 275.030273438 377.622070312 353.5 379.5703125 356.540039062 c 0
 406.360351562 398.33984375 400.66015625 387.3203125 375.009765625 390.740234375 c 0
 369.890625 391.422851562 362.603515625 393.400390625 356.200195312 394.16015625 c 1
 356.200195312 394.16015625 l 1
 369.935546875 390.740234375 421.625 384.469726562 445.120117188 393.58984375 c 1
 445.120117188 393.58984375 l 1
 396.669921875 381.620117188 407.442382812 395.696289062 384.700195312 362.809570312 c 0
 351.245117188 314.43359375 303.759765625 246.70703125 265.5703125 193.51953125 c 1
 265.5703125 160.213867188 265.702148438 124.296875 265 23.66015625 c 0
 264.83984375 0.7255859375 265.547851562 7.7470703125 347.080078125 -4.26953125 c 1
 347.080078125 -4.26953125 l 1
 293.130859375 3.7099609375 247.037109375 7.1298828125 192.040039062 -7.6904296875 c 1
 192.040039062 -7.6904296875 l 1
 264.4296875 6.5595703125 265.5703125 0.8662109375 265.5703125 35.0595703125 c 2
 265.5703125 193.51953125 l 1
 261.426757812 199.916015625 193.374023438 281.415039062 126.490234375 367.370117188 c 0
 101.41015625 399.6015625 106.540039062 386.1796875 62.650390625 394.73046875 c 1
 62.650390625 394.73046875 l 1
 81.591796875 391.309570312 129.4453125 387.3203125 148.719726562 393.58984375 c 1
 148.719726562 393.58984375 l 1
EndSplineSet
EndChar

StartChar: z.pcap
Encoding: 65593 -1 670
Width: 511
VWidth: 1159
Flags: HW
HStem: -0.0693359 29.9336<166.464 340.178> 363.469 5.20508<184.875 185.177> 398.473 20G<76.9077 94.3906>
LayerCount: 2
Fore
SplineSet
53.9697265625 322.91015625 m 1
 80.759765625 378.413085938 75.0595703125 394.198242188 90.4501953125 399.290039062 c 1
 101.849609375 390.5546875 122.36328125 387.422851562 129.209960938 387.3203125 c 0
 147.75 387.04296875 351.076171875 384.9140625 411.9296875 387.053710938 c 0
 418.436523438 387.282226562 423.3203125 387.559570312 426.1796875 387.889648438 c 1
 426.1796875 387.889648438 l 1
 415.106445312 374.836914062 l 0
 63.66015625 5.990234375 l 1
 134.598632812 5.419921875 206.471679688 5.53515625 277.41015625 5.419921875 c 0
 409.958007812 5.205078125 402.8046875 -10.33203125 444.990234375 82.3701171875 c 1
 444.990234375 82.3701171875 l 1
 423.900390625 37.29296875 417.059570312 19.4599609375 402.809570312 -0.849609375 c 1
 390.83984375 2.1591796875 381.720703125 5.990234375 333.83984375 5.990234375 c 0
 247.76953125 5.990234375 108.690429688 5.990234375 63.66015625 5.990234375 c 1
 63.66015625 5.990234375 l 1
 80.8056640625 21.68359375 101.579101562 44.6240234375 118.950195312 62.990234375 c 0
 219.616210938 169.419921875 325.879882812 277.854492188 423.900390625 385.610351562 c 0
 426.1796875 387.889648438 l 1
 147.450195312 387.3203125 l 6
 52.03515625 387.125 99.5703125 406.700195312 53.9697265625 322.91015625 c 5
 53.9697265625 322.91015625 l 1
EndSplineSet
EndChar

StartChar: Q.alt
Encoding: 65565 -1 672
Width: 825
VWidth: 1159
Flags: HW
HStem: -260 55<872.691 1100.74> -5 51<311.167 428.106> 684 32<298.898 457.678>
VStem: 41 98<255.911 496.429> 637 102<244.821 489.709>
AnchorPoint: "Bottom" 341 -15 basechar 0
AnchorPoint: "Top" 393 699 basechar 0
AnchorPoint: "Middle" 390.697 364.853 basechar 0
LayerCount: 2
Fore
SplineSet
387 710 m 3
 192.518987342 710 53 569.400684932 53 365 c 3
 53 177.739884393 187.02661597 1 402 1 c 3
 594.234042553 1 727 152.993355482 727 367 c 3
 727 583.792284866 547.312195419 710 387 710 c 3
425 1 m 5
 662.192066743 -104.515283138 758.626790762 -232 976 -232 c 3
 1082.82150215 -232 1206.09330472 -198.387755102 1249 -171 c 1
 1249 -171 l 1
 1213.09609677 -189.383561644 1083.70290323 -232 976 -232 c 3
 770.744456204 -232 668.116684307 -111.414733333 425 1 c 1
 190.86240678 -11 53 168.243243243 53 365 c 3
 53 580.256410256 202.624277457 710 387 710 c 3
 572.454545455 710 727 563.561604585 727 367 c 3
 727 203.054955052 631.973642726 12.8694582033 425 1 c 5
EndSplineSet
Position2: "cpsp-1" dx=0 dy=0 dh=10 dv=20
EndChar

StartChar: R.alt
Encoding: 65566 -1 673
Width: 738
VWidth: 1159
Flags: HW
AnchorPoint: "Top" 315 699 basechar 0
AnchorPoint: "Bottom" 388 -15 basechar 0
LayerCount: 2
Fore
SplineSet
138 365 m 1x2e
 207.262135922 364 242.737864078 361 312 361 c 3
 520.571428571 361 562 465.226950355 562 528 c 3
 562 593.032258065 493.389830508 696 331 696 c 3
 269.948979592 696 138 675.730882985 138 661 c 0
 138 568.041322314 138 457.958677686 138 365 c 1x2e
67 680 m 1x76
 94.5045045045 679 110.495495495 678 138 678 c 3
 213.237288136 678 244.858757062 696 331 696 c 3
 457.432098765 696 562 621.032258065 562 528 c 3
 562 446.931818182 504 382 378 364 c 1
 470.094755043 141.837758112 568.014064654 -4.8112094395 696 -7 c 1
 696 -7 l 1xae
 563.126760563 -12.2106741573 449.65791488 186.837078652 378 364 c 1
 293.781006776 353.791637185 222.749940753 362.752629131 138 364 c 1
 138 243.024390244 138.29449421 156.117433833 138 54 c 0
 137.804878049 -13.6595744681 138 26 212 -4 c 1
 212 -4 l 1
 167.518672199 13 123.037344398 15 78 -1 c 1
 78 -1 l 1
 138 20 138 -5 138 42 c 1
 138.672851562 299.806721766 138.705078125 398.337628147 138 641 c 1
 138.506329114 678.683006536 138.620253165 677.470588235 67 680 c 1
 67 680 l 1x76
EndSplineSet
Position2: "cpsp-1" dx=0 dy=0 dh=10 dv=20
EndChar

StartChar: a.smcp
Encoding: 65594 -1 674
Width: 547
VWidth: 1159
Flags: HW
HStem: -7.54565 21G<182.106 202.074 342.949 368.617> -4.01489 28.7146<36.259 73.5765> 164.883 28.8484<199.929 326.713>
VStem: 270.911 33.8967<426.373 488.876>
LayerCount: 2
Fore
SplineSet
168.206054688 191.360351562 m 1
 224.369140625 190.6875 340.931640625 189.342773438 392.854492188 188.669921875 c 1
 352.5 296.958984375 327.612304688 362.873046875 286.584960938 475.87109375 c 1
 245.555664062 368.254882812 209.919921875 291.7109375 168.206054688 191.360351562 c 1
418.4140625 3.705078125 m 9
 418.4140625 3.705078125 l 1
 464.234375 11.4404296875 467.177734375 5.72265625 452.043945312 36.6630859375 c 0
 431.401367188 89.4111328125 417.069335938 127.127929688 392.854492188 188.669921875 c 1
 337.61328125 189.641601562 248.306640625 190.762695312 168.206054688 191.360351562 c 9
 142.236328125 131.712890625 126.176757812 95.3642578125 101.283203125 39.3525390625 c 0
 83.5263671875 6.05859375 86.3505859375 10.4306640625 153.74609375 3.705078125 c 9
 153.74609375 3.705078125 l 1
 126.461914062 7.3955078125 77.2685546875 7.740234375 49.15625 3.033203125 c 9
 49.15625 3.033203125 l 1
 84.3408203125 7.740234375 83.294921875 6.4609375 98.9287109375 33.97265625 c 0
 165.227539062 182.830078125 220.020507812 311.745117188 270.442382812 432.82421875 c 0
 280.721679688 457.590820312 281.203125 458.045898438 286.584960938 475.87109375 c 9
 286.584960938 475.87109375 l 9
 291.869140625 459.786132812 291.978515625 459.661132812 301.381835938 434.169921875 c 0
 362.380859375 268.498046875 392.87890625 186.44140625 457.424804688 23.8837890625 c 0
 466.306640625 6.7353515625 467.953125 7.740234375 497.780273438 3.705078125 c 9
 497.780273438 3.705078125 l 1
 469.49609375 7.740234375 461.052734375 10.4306640625 418.4140625 3.705078125 c 9
EndSplineSet
EndChar

